G04*
G04 #@! TF.GenerationSoftware,Altium Limited,Altium Designer,21.6.1 (37)*
G04*
G04 Layer_Physical_Order=1*
G04 Layer_Color=255*
%FSLAX44Y44*%
%MOMM*%
G71*
G04*
G04 #@! TF.SameCoordinates,3F17BC7F-6D44-4E06-9127-94DCD14E2BF1*
G04*
G04*
G04 #@! TF.FilePolarity,Positive*
G04*
G01*
G75*
%ADD10C,0.2500*%
%ADD11C,0.3000*%
%ADD16C,0.4000*%
G04:AMPARAMS|DCode=18|XSize=0.5mm|YSize=0.25mm|CornerRadius=0.05mm|HoleSize=0mm|Usage=FLASHONLY|Rotation=180.000|XOffset=0mm|YOffset=0mm|HoleType=Round|Shape=RoundedRectangle|*
%AMROUNDEDRECTD18*
21,1,0.5000,0.1500,0,0,180.0*
21,1,0.4000,0.2500,0,0,180.0*
1,1,0.1000,-0.2000,0.0750*
1,1,0.1000,0.2000,0.0750*
1,1,0.1000,0.2000,-0.0750*
1,1,0.1000,-0.2000,-0.0750*
%
%ADD18ROUNDEDRECTD18*%
%ADD19R,1.8200X1.3800*%
%ADD20R,0.8000X1.0000*%
%ADD21R,2.0000X0.4000*%
%ADD22R,1.0000X0.8000*%
%ADD23R,0.6000X0.8500*%
%ADD24R,0.7000X0.9000*%
%ADD25R,1.3208X0.5588*%
%ADD26R,1.0800X0.2600*%
%ADD27R,0.2600X1.0800*%
%ADD28R,3.7000X3.7000*%
%ADD29R,2.7940X1.9050*%
%ADD30R,1.9700X0.6000*%
%ADD31R,2.1300X3.0000*%
%ADD32R,0.8000X0.8000*%
%ADD33R,1.8200X1.1500*%
%ADD34R,0.6000X1.0000*%
%ADD35R,0.3000X0.5250*%
%ADD36R,0.8900X0.9300*%
%ADD37R,3.8000X1.8000*%
%ADD38R,2.7000X1.0000*%
%ADD39R,2.3000X2.2000*%
%ADD40R,2.7000X1.0000*%
%ADD41R,1.7000X0.6000*%
G04:AMPARAMS|DCode=42|XSize=0.9mm|YSize=1.6mm|CornerRadius=0.0495mm|HoleSize=0mm|Usage=FLASHONLY|Rotation=180.000|XOffset=0mm|YOffset=0mm|HoleType=Round|Shape=RoundedRectangle|*
%AMROUNDEDRECTD42*
21,1,0.9000,1.5010,0,0,180.0*
21,1,0.8010,1.6000,0,0,180.0*
1,1,0.0990,-0.4005,0.7505*
1,1,0.0990,0.4005,0.7505*
1,1,0.0990,0.4005,-0.7505*
1,1,0.0990,-0.4005,-0.7505*
%
%ADD42ROUNDEDRECTD42*%
%ADD70C,2.0000*%
%ADD71R,2.4500X1.6500*%
%ADD72C,0.5000*%
%ADD73C,1.3000*%
%ADD74C,0.7000*%
%ADD75C,1.0000*%
%ADD76C,0.8000*%
%ADD77C,1.5000*%
%ADD78R,0.8000X1.7800*%
%ADD79R,1.4300X4.0800*%
%ADD80R,3.9400X1.7753*%
%ADD81C,0.9000*%
%ADD82C,1.2000*%
%ADD83C,0.7000*%
%ADD84C,0.8000*%
G36*
X952786Y514154D02*
X954023Y513065D01*
X954195Y512949D01*
X954342Y512865D01*
X954463Y512816D01*
X954560Y512800D01*
X950600Y508840D01*
X950584Y508937D01*
X950535Y509058D01*
X950451Y509205D01*
X950334Y509377D01*
X950184Y509574D01*
X949782Y510044D01*
X948927Y510937D01*
X952463Y514473D01*
X952786Y514154D01*
D02*
G37*
G36*
X948693Y508651D02*
X948836Y508484D01*
X948900Y508400D01*
Y507666D01*
X949685Y505772D01*
X949178Y504502D01*
X866139D01*
X864483Y505187D01*
X862017D01*
X859738Y504244D01*
X857994Y502500D01*
X857687Y501759D01*
X856313D01*
X856006Y502500D01*
X854262Y504244D01*
X851983Y505187D01*
X849517D01*
X847238Y504244D01*
X845494Y502500D01*
X845187Y501759D01*
X843813D01*
X843506Y502500D01*
X841762Y504244D01*
X839483Y505187D01*
X837017D01*
X834738Y504244D01*
X833199Y502705D01*
X832244Y502653D01*
X828578Y498988D01*
X832244Y495322D01*
X833199Y495270D01*
X834738Y493731D01*
X837017Y492788D01*
X839483D01*
X841762Y493731D01*
X843506Y495476D01*
X843813Y496216D01*
X845187D01*
X845494Y495476D01*
X847238Y493731D01*
X849517Y492788D01*
X851983D01*
X854262Y493731D01*
X856006Y495476D01*
X856313Y496216D01*
X857687D01*
X857994Y495476D01*
X859738Y493731D01*
X862017Y492788D01*
X864483D01*
X866762Y493731D01*
X866929Y493898D01*
X899158D01*
X899808Y492721D01*
X899794Y492628D01*
X898894Y492027D01*
X896575Y489708D01*
X853414D01*
X853401Y489710D01*
X841399D01*
X840248Y489481D01*
X839272Y488829D01*
X830323Y479880D01*
X829671Y478905D01*
X829442Y477754D01*
Y477052D01*
X815408D01*
Y478416D01*
X815507Y478491D01*
X815687Y478614D01*
X815836Y478701D01*
X815948Y478755D01*
X816017Y478782D01*
X816037Y478787D01*
X816134Y478799D01*
X816176Y478813D01*
X816834D01*
X818929Y479681D01*
X820532Y481284D01*
X821400Y483379D01*
Y485647D01*
X820532Y487742D01*
X818929Y489345D01*
X816834Y490213D01*
X814566D01*
X813626Y489824D01*
X812570Y490529D01*
Y496460D01*
X812605D01*
Y508712D01*
X807479Y503586D01*
X806065Y505000D01*
X804651Y503586D01*
X799525Y508712D01*
Y497640D01*
X799490D01*
Y485388D01*
X804616Y490514D01*
X807444Y487686D01*
X802319Y482560D01*
X809221D01*
X809898Y481290D01*
X809621Y480876D01*
X809392Y479725D01*
Y477892D01*
X806388D01*
X806459Y477822D01*
X808650D01*
X808667Y475614D01*
X808814Y475467D01*
X805986Y472638D01*
X803560Y475064D01*
Y464803D01*
X802283D01*
X802271Y464878D01*
X802258Y465029D01*
Y474450D01*
X802029Y475601D01*
X801377Y476577D01*
X795470Y482484D01*
X794730Y483400D01*
X794730D01*
X794730Y483400D01*
Y495874D01*
X794748Y495916D01*
Y497300D01*
X794765D01*
Y510700D01*
X773065D01*
Y498300D01*
X782175D01*
X783348Y498184D01*
Y496800D01*
X783330D01*
Y483400D01*
X786331D01*
X786903Y482543D01*
X796242Y473204D01*
Y465029D01*
X796229Y464878D01*
X796218Y464810D01*
X770208D01*
X768989Y466030D01*
X769515Y467300D01*
X778465D01*
Y470004D01*
X778632Y470171D01*
X779500Y472266D01*
Y474534D01*
X778632Y476629D01*
X778465Y476796D01*
Y479700D01*
X768065D01*
Y468750D01*
X766795Y468224D01*
X764301Y470718D01*
X763897Y471153D01*
X763619Y471500D01*
X763465Y471722D01*
Y472552D01*
X763468Y472566D01*
X763465Y472580D01*
Y479700D01*
X753065D01*
Y476533D01*
X752990Y476521D01*
X752838Y476508D01*
X743800D01*
X742649Y476279D01*
X741673Y475627D01*
X737973Y471927D01*
X737321Y470951D01*
X737222Y470450D01*
X734193D01*
X733940Y471720D01*
X735274Y472272D01*
X736877Y473876D01*
X737745Y475971D01*
Y478238D01*
X736877Y480333D01*
X736631Y480579D01*
X736391Y480966D01*
X736251Y481233D01*
X736125Y481509D01*
X736022Y481774D01*
X735940Y482029D01*
X735879Y482273D01*
X735872Y482307D01*
X736485Y483161D01*
X736723Y483400D01*
X745700D01*
Y483400D01*
X746874Y483907D01*
X747904Y483243D01*
Y482560D01*
X756155D01*
X752030Y486686D01*
X754694Y489350D01*
X752030Y492014D01*
X756155Y496140D01*
X747904D01*
Y495152D01*
X746874Y494488D01*
X745700Y495045D01*
Y495300D01*
X738693D01*
X738207Y496473D01*
X739699Y497965D01*
X740135Y498370D01*
X740482Y498648D01*
X740701Y498800D01*
X741523D01*
X741536Y498797D01*
X741551Y498800D01*
X745700D01*
Y503475D01*
X746970Y503643D01*
X747350Y502226D01*
X747904Y501265D01*
Y500788D01*
X752030Y504914D01*
X754858Y502086D01*
X750732Y497960D01*
X757225D01*
Y497460D01*
X766477D01*
X761851Y502086D01*
X764265Y504500D01*
X761851Y506914D01*
X766477Y511540D01*
X757674D01*
X756912Y512810D01*
X757077Y513118D01*
X944226D01*
X948693Y508651D01*
D02*
G37*
G36*
X741546Y500530D02*
X741352Y500673D01*
X741123Y500744D01*
X740859Y500745D01*
X740558Y500674D01*
X740223Y500533D01*
X739851Y500321D01*
X739445Y500038D01*
X739002Y499683D01*
X738010Y498763D01*
X736263Y500550D01*
X736757Y501062D01*
X737533Y501980D01*
X737816Y502386D01*
X738028Y502758D01*
X738169Y503094D01*
X738241Y503394D01*
X738241Y503660D01*
X738171Y503890D01*
X738030Y504086D01*
X741546Y500530D01*
D02*
G37*
G36*
X962131Y494831D02*
X962060Y494996D01*
X961851Y495144D01*
X961500Y495274D01*
X961011Y495387D01*
X960380Y495483D01*
X958700Y495622D01*
X955130Y495700D01*
Y502700D01*
X956460Y502721D01*
X958700Y502886D01*
X959611Y503031D01*
X960380Y503217D01*
X961011Y503445D01*
X961500Y503714D01*
X961851Y504025D01*
X962060Y504376D01*
X962131Y504770D01*
Y494831D01*
D02*
G37*
G36*
X1111973Y492637D02*
X1111654Y492314D01*
X1110565Y491077D01*
X1110449Y490905D01*
X1110365Y490758D01*
X1110316Y490637D01*
X1110300Y490540D01*
X1106340Y494500D01*
X1106437Y494516D01*
X1106558Y494565D01*
X1106705Y494649D01*
X1106877Y494766D01*
X1107074Y494916D01*
X1107544Y495318D01*
X1108437Y496173D01*
X1111973Y492637D01*
D02*
G37*
G36*
X1089433Y488031D02*
X1089333Y488082D01*
X1089138Y488128D01*
X1088849Y488168D01*
X1087990Y488233D01*
X1084200Y488300D01*
Y491300D01*
X1089433Y491569D01*
Y488031D01*
D02*
G37*
G36*
X1128499Y490337D02*
X1128318Y490267D01*
X1128158Y490150D01*
X1128019Y489986D01*
X1127902Y489774D01*
X1127806Y489516D01*
X1127731Y489211D01*
X1127678Y488859D01*
X1127646Y488460D01*
X1127635Y488014D01*
X1125135D01*
X1125125Y488460D01*
X1125093Y488859D01*
X1125040Y489211D01*
X1124965Y489516D01*
X1124869Y489774D01*
X1124752Y489986D01*
X1124613Y490150D01*
X1124453Y490267D01*
X1124272Y490337D01*
X1124070Y490361D01*
X1128701D01*
X1128499Y490337D01*
D02*
G37*
G36*
X1292978Y488066D02*
X1292492Y486893D01*
X1269488D01*
X1275614Y480767D01*
X1273004Y478156D01*
X1273770Y478167D01*
Y468167D01*
X1272058Y468151D01*
X1267012Y467775D01*
X1266201Y467603D01*
X1265570Y467399D01*
X1265120Y467164D01*
X1264850Y466898D01*
X1264760Y466600D01*
Y478040D01*
X1272574Y478150D01*
X1266660Y484064D01*
Y480610D01*
X1246879D01*
X1253754Y473734D01*
X1252340Y472320D01*
X1253754Y470906D01*
X1246879Y464030D01*
X1266660D01*
Y456813D01*
X1266660D01*
X1267500Y456053D01*
Y450698D01*
X1266490Y450070D01*
X1264647D01*
X1263961Y450965D01*
X1261517Y452840D01*
X1258671Y454019D01*
X1255616Y454421D01*
X1230290D01*
X1227236Y454019D01*
X1224389Y452840D01*
X1221945Y450965D01*
X1221259Y450070D01*
X1219490D01*
Y447120D01*
X1218891Y445674D01*
X1218725Y444413D01*
X1218680Y444303D01*
X1218507Y443402D01*
X1218251Y442543D01*
X1217889Y441634D01*
X1217525Y440894D01*
X1216963Y440651D01*
X1215900Y440595D01*
X1215670Y440787D01*
Y446660D01*
X1205879D01*
X1205441Y447930D01*
X1205584Y448042D01*
X1208800D01*
X1210549Y448273D01*
X1212179Y448948D01*
X1213498Y449960D01*
X1215670D01*
Y459360D01*
X1213746D01*
X1213578Y459579D01*
X1212179Y460652D01*
X1210549Y461328D01*
X1208800Y461558D01*
X1199400D01*
X1197651Y461328D01*
X1196021Y460652D01*
X1194622Y459579D01*
X1194454Y459360D01*
X1192570D01*
Y454416D01*
X1192560Y453150D01*
X1190732Y453150D01*
X1190719Y453182D01*
X1189813Y454087D01*
X1189989Y450579D01*
X1186839D01*
X1185456Y449196D01*
X1184072Y450579D01*
X1174668D01*
X1173284Y449196D01*
X1171900Y450579D01*
X1168751D01*
X1168817Y450757D01*
X1168876Y451288D01*
X1168974Y453413D01*
X1168980Y454141D01*
X1168194Y453354D01*
X1167012Y453425D01*
X1166835Y453468D01*
X1166226Y454420D01*
X1166258Y454660D01*
X1166170Y455327D01*
Y459360D01*
X1164339D01*
X1164278Y459439D01*
X1162879Y460512D01*
X1161249Y461188D01*
X1159500Y461418D01*
X1142129D01*
X1141502Y462688D01*
X1142363Y463809D01*
X1143189Y465804D01*
X1143342Y466970D01*
X1153470D01*
Y468242D01*
X1153533Y468268D01*
X1155137Y469871D01*
X1156004Y471966D01*
X1157230Y471859D01*
Y468958D01*
X1161442Y473170D01*
X1160413Y474199D01*
X1159800Y473104D01*
X1159888Y473352D01*
X1159897Y473643D01*
X1159828Y473978D01*
X1159680Y474355D01*
X1159454Y474776D01*
X1159150Y475239D01*
X1158767Y475746D01*
X1158071Y476541D01*
X1157230Y477382D01*
Y474341D01*
X1156004Y474234D01*
X1155137Y476329D01*
X1153533Y477932D01*
X1153470Y477958D01*
Y479370D01*
X1143070D01*
Y476300D01*
X1141800Y475869D01*
X1141048Y476848D01*
X1139335Y478163D01*
X1137341Y478989D01*
X1135200Y479271D01*
X1133059Y478989D01*
X1131065Y478163D01*
X1129352Y476848D01*
X1128037Y475135D01*
X1127211Y473141D01*
X1126929Y471000D01*
Y467944D01*
X1127211Y465804D01*
X1128037Y463809D01*
X1128898Y462688D01*
X1128271Y461418D01*
X1121412D01*
X1121200Y462600D01*
X1121200D01*
Y466925D01*
X1121498Y467371D01*
X1121902Y469400D01*
Y475064D01*
X1122400Y476266D01*
Y478534D01*
X1121532Y480629D01*
X1119929Y482232D01*
X1117834Y483100D01*
X1115566D01*
X1113471Y482232D01*
X1111868Y480629D01*
X1111648Y480099D01*
X1110680Y479370D01*
X1108020D01*
X1107229Y479697D01*
X1105480Y479928D01*
X1103731Y479697D01*
X1102940Y479370D01*
X1100280D01*
Y477399D01*
X1099628Y476549D01*
X1098952Y474919D01*
X1098722Y473170D01*
Y452503D01*
X1098952Y450754D01*
X1099628Y449124D01*
X1100280Y448274D01*
Y447511D01*
X1099010Y446461D01*
X1098790Y446502D01*
X1098717Y446628D01*
X1092844Y440756D01*
X1090016Y443584D01*
X1096520Y450088D01*
Y459543D01*
X1096471D01*
X1095622Y460813D01*
X1096100Y461966D01*
Y464234D01*
X1095702Y465195D01*
Y466826D01*
X1095794Y468495D01*
X1095843Y468919D01*
X1095891Y469199D01*
X1095898Y469225D01*
X1096332Y469791D01*
X1097008Y471421D01*
X1097238Y473170D01*
X1097008Y474919D01*
X1096332Y476549D01*
X1095680Y477399D01*
Y479370D01*
X1093020D01*
X1092229Y479697D01*
X1090480Y479928D01*
X1088731Y479697D01*
X1087940Y479370D01*
X1086273D01*
X1086075Y479666D01*
Y481934D01*
X1085208Y484029D01*
X1083969Y485267D01*
X1084485Y486537D01*
X1085843D01*
X1087910Y486501D01*
X1088663Y486444D01*
X1089561Y485844D01*
X1091200Y485518D01*
X1092839Y485844D01*
X1094228Y486772D01*
X1099427Y491971D01*
X1099772Y491871D01*
X1100600Y491348D01*
Y489366D01*
X1101468Y487271D01*
X1103071Y485668D01*
X1105166Y484800D01*
X1107434D01*
X1109529Y485668D01*
X1111132Y487271D01*
X1111231Y487510D01*
X1111800Y488600D01*
Y488600D01*
X1111800Y488600D01*
X1120460D01*
Y487760D01*
X1131540D01*
Y488600D01*
X1140200D01*
Y502000D01*
X1131540D01*
Y502840D01*
X1120460D01*
Y502000D01*
X1111800D01*
Y499882D01*
X1111400D01*
X1109761Y499556D01*
X1108372Y498628D01*
X1106540Y496796D01*
X1106058Y496806D01*
X1105543Y498087D01*
X1111574Y504118D01*
X1276926D01*
X1292978Y488066D01*
D02*
G37*
G36*
X809662Y485106D02*
X809450Y485031D01*
X809262Y484906D01*
X809100Y484730D01*
X808962Y484506D01*
X808850Y484230D01*
X808763Y483905D01*
X808700Y483531D01*
X808662Y483106D01*
X808650Y482631D01*
X806150D01*
X806137Y483106D01*
X806100Y483531D01*
X806038Y483905D01*
X805950Y484230D01*
X805837Y484506D01*
X805700Y484730D01*
X805537Y484906D01*
X805350Y485031D01*
X805137Y485106D01*
X804900Y485131D01*
X809900D01*
X809662Y485106D01*
D02*
G37*
G36*
X1387643Y527188D02*
X1391752Y526087D01*
X1395681Y524460D01*
X1399365Y522333D01*
X1402740Y519744D01*
X1405748Y516737D01*
X1408337Y513363D01*
X1410464Y509680D01*
X1412093Y505751D01*
X1413194Y501643D01*
X1413751Y497426D01*
X1413751Y495299D01*
X1413848Y494814D01*
X1413898Y494560D01*
Y395280D01*
X1413836Y394967D01*
X1413743Y394498D01*
X1413743Y392372D01*
X1413188Y388155D01*
X1412087Y384046D01*
X1410460Y380117D01*
X1408333Y376433D01*
X1405744Y373059D01*
X1402737Y370051D01*
X1399363Y367461D01*
X1395680Y365334D01*
X1391751Y363705D01*
X1387643Y362604D01*
X1383482Y362055D01*
X1381412Y362146D01*
X1381356Y362138D01*
X1381300Y362149D01*
X1355762Y362149D01*
X1355273Y363419D01*
X1370662Y378808D01*
X1371314Y379784D01*
X1371543Y380935D01*
Y456876D01*
X1371764Y456968D01*
X1373367Y458571D01*
X1374235Y460666D01*
Y462934D01*
X1373367Y465029D01*
X1371764Y466632D01*
X1369669Y467500D01*
X1367401D01*
X1365863Y466863D01*
X1364593Y467578D01*
Y480239D01*
X1366945Y482592D01*
X1367166Y482500D01*
X1369434D01*
X1371529Y483368D01*
X1373132Y484971D01*
X1374000Y487066D01*
Y489334D01*
X1373132Y491429D01*
X1371529Y493032D01*
X1369434Y493900D01*
X1367166D01*
X1365071Y493032D01*
X1363468Y491429D01*
X1362600Y489334D01*
Y487066D01*
X1362692Y486845D01*
X1361591Y485744D01*
X1360417Y486230D01*
Y510665D01*
X1360091Y512304D01*
X1359163Y513693D01*
X1352728Y520128D01*
X1351339Y521056D01*
X1349700Y521382D01*
X1105400D01*
X1103761Y521056D01*
X1102372Y520128D01*
X1080772Y498528D01*
X1080461Y498063D01*
X1075504D01*
X1074698Y499044D01*
X1074700Y499050D01*
Y500550D01*
X1074655Y500776D01*
X1072264Y498386D01*
X1069436Y501214D01*
X1071826Y503605D01*
X1071600Y503650D01*
X1067600D01*
X1066414Y503414D01*
X1065408Y502742D01*
X1065336Y502633D01*
X1065289Y502664D01*
X1064105Y502900D01*
X1056095D01*
X1054911Y502664D01*
X1054154Y502158D01*
X1053458Y502622D01*
X1052600Y502793D01*
X1050674D01*
X1050600Y502808D01*
X1036192D01*
X1035041Y502579D01*
X1034065Y501927D01*
X1025046Y492908D01*
X1020790D01*
X1019600Y493100D01*
X1019600Y494178D01*
Y506500D01*
X1008200D01*
Y502075D01*
X1008100Y501834D01*
Y499566D01*
X1008200Y499325D01*
X1008200Y493100D01*
X1007010Y492908D01*
X1003440D01*
Y504511D01*
X998314Y499386D01*
X995486Y502214D01*
X1000612Y507340D01*
X990360D01*
Y507340D01*
X989640D01*
Y507340D01*
X979389D01*
X984514Y502214D01*
X981686Y499386D01*
X976560Y504512D01*
Y500661D01*
Y492908D01*
X972990D01*
X971800Y493100D01*
X971800Y494178D01*
Y506500D01*
X962145D01*
X962131Y506503D01*
X962116Y506500D01*
X961192D01*
X960306Y507659D01*
X960300Y507729D01*
Y509934D01*
X959432Y512029D01*
X957829Y513632D01*
X955734Y514500D01*
X955016D01*
X954514Y514942D01*
X949028Y520428D01*
X947639Y521356D01*
X946000Y521682D01*
X754112D01*
X752473Y521356D01*
X751084Y520428D01*
X751056Y520400D01*
X749466D01*
X747371Y519532D01*
X745768Y517929D01*
X744900Y515834D01*
Y513566D01*
X745561Y511970D01*
X744928Y510790D01*
X744817Y510700D01*
X736300D01*
Y504109D01*
X736297Y504096D01*
X736300Y504081D01*
Y503242D01*
X736157Y503037D01*
X735573Y502347D01*
X730692Y497465D01*
X730040Y496489D01*
X729811Y495338D01*
Y483178D01*
X729797Y483083D01*
X729756Y482919D01*
X729700Y482768D01*
X729629Y482626D01*
X729539Y482486D01*
X729426Y482344D01*
X729284Y482198D01*
X729129Y482066D01*
X728816Y481937D01*
X727213Y480333D01*
X726345Y478238D01*
Y475971D01*
X727213Y473876D01*
X728816Y472272D01*
X729074Y472165D01*
X729453Y470634D01*
X729300Y470450D01*
Y470450D01*
X728030Y469880D01*
X726534Y470500D01*
X724266D01*
X722171Y469632D01*
X720568Y468029D01*
X719700Y465934D01*
Y463666D01*
X720568Y461571D01*
X722171Y459968D01*
X724266Y459100D01*
X726534D01*
X728030Y459720D01*
X728457Y459471D01*
X729300Y458550D01*
Y457283D01*
X729300D01*
Y445383D01*
X729300D01*
Y444117D01*
X729300D01*
X729300Y444113D01*
Y432217D01*
X729300D01*
Y430950D01*
X729300D01*
Y419050D01*
X730967D01*
X730979Y418975D01*
X730992Y418823D01*
Y417700D01*
X731221Y416549D01*
X731873Y415573D01*
X757673Y389773D01*
X757673Y389773D01*
X758649Y389121D01*
X759800Y388892D01*
X759800Y388892D01*
X764218D01*
X764317Y388879D01*
X764518Y388835D01*
X764717Y388772D01*
X764919Y388688D01*
X765125Y388582D01*
X765336Y388451D01*
X765554Y388293D01*
X765777Y388105D01*
X766043Y387849D01*
X766172Y387767D01*
X766871Y387068D01*
X768966Y386200D01*
X771234D01*
X773329Y387068D01*
X774932Y388671D01*
X775800Y390766D01*
Y393034D01*
X774932Y395129D01*
X773329Y396732D01*
X771234Y397600D01*
X768966D01*
X766871Y396732D01*
X766172Y396033D01*
X766043Y395951D01*
X765777Y395695D01*
X765554Y395507D01*
X765336Y395349D01*
X765125Y395218D01*
X764919Y395112D01*
X764717Y395028D01*
X764518Y394965D01*
X764317Y394921D01*
X764218Y394908D01*
X761046D01*
X747077Y408877D01*
X747563Y410050D01*
X747578D01*
X749673Y410918D01*
X751276Y412521D01*
X752144Y414616D01*
Y416884D01*
X751276Y418979D01*
X751144Y419111D01*
Y420766D01*
X751147Y420780D01*
X751144Y420795D01*
Y429205D01*
X751147Y429220D01*
X751144Y429234D01*
Y430906D01*
X752073Y431773D01*
X753392Y430454D01*
X753810Y430006D01*
X754102Y429644D01*
X754200Y429506D01*
Y426102D01*
X760980D01*
X761661Y424832D01*
X761000Y423236D01*
Y420969D01*
X761868Y418874D01*
X763471Y417270D01*
X765566Y416403D01*
X767834D01*
X769929Y417270D01*
X771532Y418874D01*
X771669Y419204D01*
X771808Y419370D01*
X771951Y419510D01*
X772091Y419623D01*
X772229Y419712D01*
X772370Y419782D01*
X772519Y419837D01*
X772682Y419879D01*
X772777Y419892D01*
X776868D01*
X777722Y420062D01*
X778992Y419360D01*
Y386400D01*
X779221Y385249D01*
X779873Y384273D01*
X800073Y364073D01*
X801049Y363421D01*
X800875Y362161D01*
X721400Y362163D01*
X719273D01*
X715057Y362718D01*
X710948Y363818D01*
X707018Y365446D01*
X703335Y367572D01*
X699960Y370161D01*
X696952Y373168D01*
X694363Y376542D01*
X692235Y380225D01*
X690607Y384154D01*
X689505Y388263D01*
X688949Y392480D01*
X688949Y394606D01*
X688957Y495201D01*
X688957Y495202D01*
X688957Y495202D01*
Y497328D01*
X689512Y501545D01*
X690613Y505654D01*
X692240Y509583D01*
X694367Y513267D01*
X696956Y516642D01*
X699963Y519649D01*
X703337Y522239D01*
X707020Y524366D01*
X710949Y525995D01*
X715057Y527096D01*
X719274Y527652D01*
X721401Y527653D01*
X1381300Y527743D01*
X1383427Y527743D01*
X1387643Y527188D01*
D02*
G37*
G36*
X1066742Y481978D02*
X1067600Y481807D01*
X1068320D01*
X1068351Y481786D01*
X1069600Y481537D01*
X1073393D01*
X1073429Y481480D01*
X1073428Y481452D01*
X1072721Y480210D01*
X1048898D01*
X1061024Y468084D01*
X1059610Y466670D01*
X1060110Y466170D01*
X1062024Y468084D01*
X1074150Y455959D01*
Y477616D01*
X1075420Y477869D01*
X1075543Y477571D01*
X1077147Y475968D01*
X1079242Y475100D01*
X1081509D01*
X1082833Y475648D01*
X1083527Y475108D01*
X1083854Y474697D01*
X1083642Y473090D01*
X1083873Y471341D01*
X1084548Y469711D01*
X1084822Y469353D01*
X1085098Y465213D01*
Y465195D01*
X1084700Y464234D01*
Y461966D01*
X1085178Y460813D01*
X1084440Y459543D01*
X1084440D01*
Y449397D01*
X1083267Y448911D01*
X1083144Y449034D01*
X1081196Y450158D01*
X1079024Y450740D01*
X1076776D01*
X1074604Y450158D01*
X1072656Y449034D01*
X1071889Y448266D01*
X1071050Y447459D01*
X1070211Y448266D01*
X1069444Y449034D01*
X1067496Y450158D01*
X1065324Y450740D01*
X1063076D01*
X1060904Y450158D01*
X1059742Y449487D01*
X1065614Y443614D01*
X1064200Y442200D01*
X1065614Y440786D01*
X1059742Y434913D01*
X1060904Y434242D01*
X1063076Y433660D01*
X1065324D01*
X1067496Y434242D01*
X1069444Y435366D01*
X1070211Y436134D01*
X1071050Y436941D01*
X1071889Y436134D01*
X1072656Y435366D01*
X1074604Y434242D01*
X1076776Y433660D01*
X1079024D01*
X1081196Y434242D01*
X1083144Y435366D01*
X1083267Y435489D01*
X1084418Y435013D01*
X1084045Y435427D01*
X1098420D01*
Y437197D01*
X1099388Y438874D01*
X1099970Y441046D01*
Y443294D01*
X1099388Y445466D01*
X1100371Y446303D01*
X1102940D01*
X1103731Y445976D01*
X1105480Y445746D01*
X1107229Y445976D01*
X1108020Y446303D01*
X1109794D01*
X1110320Y445033D01*
X1109498Y444212D01*
X1106508Y441362D01*
X1104576Y439732D01*
X1103805Y439157D01*
X1103157Y438730D01*
X1102671Y438465D01*
X1102400Y438360D01*
X1102256Y438337D01*
X1100680D01*
Y436655D01*
X1100678Y436645D01*
X1100680Y436631D01*
Y434647D01*
X1100303Y433736D01*
X1100072Y431987D01*
X1100303Y430238D01*
X1100680Y429326D01*
Y425637D01*
X1104652D01*
X1105081Y425459D01*
X1106830Y425229D01*
X1108579Y425459D01*
X1109008Y425637D01*
X1111200D01*
X1111211Y425634D01*
X1111225Y425637D01*
X1112980D01*
Y427212D01*
X1113003Y427357D01*
X1113108Y427627D01*
X1113373Y428114D01*
X1113764Y428708D01*
X1118146Y433745D01*
X1119667Y435267D01*
X1141153D01*
X1142230Y434800D01*
X1142230Y433997D01*
X1142230Y423720D01*
X1141127Y423318D01*
X1140011D01*
X1138872Y423975D01*
X1136914Y424500D01*
X1134886D01*
X1132928Y423975D01*
X1132205Y423558D01*
X1126668D01*
X1125772Y424075D01*
X1123814Y424600D01*
X1121786D01*
X1119828Y424075D01*
X1118516Y423318D01*
X1112870D01*
X1111121Y423088D01*
X1109491Y422412D01*
X1108092Y421339D01*
X1105123Y418370D01*
X1102280D01*
Y415247D01*
X1102128Y415049D01*
X1101452Y413419D01*
X1101222Y411670D01*
X1101452Y409921D01*
X1102128Y408291D01*
X1102280Y408092D01*
Y404970D01*
X1107541D01*
X1107980Y404912D01*
X1108419Y404970D01*
X1113680D01*
Y407813D01*
X1115669Y409802D01*
X1119694D01*
X1119828Y409725D01*
X1121786Y409200D01*
X1123814D01*
X1125772Y409725D01*
X1126322Y410042D01*
X1132205D01*
X1132928Y409625D01*
X1134886Y409100D01*
X1136914D01*
X1138872Y409625D01*
X1139179Y409802D01*
X1159400D01*
X1161149Y410033D01*
X1162779Y410708D01*
X1164178Y411782D01*
X1164239Y411860D01*
X1166170D01*
Y416804D01*
X1166180Y418070D01*
X1168008Y418070D01*
X1168021Y418038D01*
X1169298Y416761D01*
X1170967Y416070D01*
X1172773D01*
X1173345Y416307D01*
X1170456Y419196D01*
X1173284Y422024D01*
X1177238Y418070D01*
X1181501D01*
X1185456Y422024D01*
X1188284Y419196D01*
X1185395Y416307D01*
X1185967Y416070D01*
X1187773D01*
X1189442Y416761D01*
X1190719Y418038D01*
X1190732Y418070D01*
X1192560D01*
X1192570Y416804D01*
Y414403D01*
X1192038Y413709D01*
X1191363Y412079D01*
X1191132Y410330D01*
X1191363Y408581D01*
X1192038Y406951D01*
X1193112Y405552D01*
X1194511Y404478D01*
X1196141Y403802D01*
X1197890Y403572D01*
X1199639Y403802D01*
X1201269Y404478D01*
X1202669Y405552D01*
X1206559Y409442D01*
X1208900D01*
X1210649Y409673D01*
X1212279Y410348D01*
X1213679Y411422D01*
X1214015Y411860D01*
X1215670D01*
Y421260D01*
X1215670D01*
X1215737Y422502D01*
X1216930D01*
X1218679Y422733D01*
X1219447Y423051D01*
X1219878Y422820D01*
X1220530Y422124D01*
X1220342Y420700D01*
Y414700D01*
Y404400D01*
X1220573Y402651D01*
X1221248Y401021D01*
X1222321Y399622D01*
X1222380Y399577D01*
X1222400Y399552D01*
Y398450D01*
X1223030D01*
X1223104Y398278D01*
X1223355Y397494D01*
X1223579Y396548D01*
X1223762Y395482D01*
X1224092Y391248D01*
Y388346D01*
X1204954Y369208D01*
X1002121D01*
X1001635Y370381D01*
X1014527Y383273D01*
X1015179Y384249D01*
X1015362Y385170D01*
X1015372Y385200D01*
X1015377Y385245D01*
X1015396Y385344D01*
X1015401Y385360D01*
X1015481Y385557D01*
X1015598Y385797D01*
X1015954Y386342D01*
X1019900D01*
X1021649Y386572D01*
X1022440Y386900D01*
X1025100D01*
Y388871D01*
X1025752Y389721D01*
X1026428Y391351D01*
X1026658Y393100D01*
X1026428Y394849D01*
X1025752Y396479D01*
X1025100Y397329D01*
Y399300D01*
X1022440D01*
X1021649Y399627D01*
X1019900Y399858D01*
X1004900D01*
X1003151Y399627D01*
X1002360Y399300D01*
X999700D01*
Y397329D01*
X999047Y396479D01*
X998372Y394849D01*
X998142Y393100D01*
X998372Y391351D01*
X999047Y389721D01*
X999700Y388871D01*
Y386900D01*
X1002360D01*
X1003151Y386572D01*
X1004900Y386342D01*
X1007292D01*
X1007819Y385072D01*
X996154Y373408D01*
X909878D01*
X909163Y374678D01*
X909800Y376216D01*
Y378484D01*
X908932Y380579D01*
X908233Y381278D01*
X908151Y381407D01*
X907895Y381673D01*
X907707Y381896D01*
X907549Y382114D01*
X907418Y382325D01*
X907312Y382531D01*
X907228Y382733D01*
X907165Y382933D01*
X907121Y383133D01*
X907108Y383232D01*
Y385600D01*
X911403D01*
X912252Y384330D01*
X911796Y383231D01*
Y380964D01*
X912664Y378869D01*
X914268Y377265D01*
X916363Y376398D01*
X918630D01*
X919591Y376796D01*
X966797D01*
X968826Y377199D01*
X970546Y378349D01*
X975210Y383012D01*
X975896Y383642D01*
X976747Y384313D01*
X977581Y384894D01*
X978379Y385375D01*
X979138Y385757D01*
X979856Y386045D01*
X980533Y386243D01*
X981169Y386357D01*
X981869Y386400D01*
X983500D01*
Y386731D01*
X984700Y386900D01*
Y386900D01*
X995100D01*
Y399300D01*
X993737D01*
X992908Y400171D01*
X992679Y401322D01*
X992027Y402298D01*
X986398Y407926D01*
X985422Y408578D01*
X984271Y408807D01*
X983353D01*
X981830Y408847D01*
X979812Y409035D01*
X979600Y409069D01*
Y411500D01*
X973461D01*
X972900Y411611D01*
X966528D01*
Y414514D01*
X964395Y417830D01*
X965433Y418903D01*
X967054Y420805D01*
X967638Y421634D01*
X968070Y422382D01*
X968351Y423048D01*
X968481Y423633D01*
X968459Y424137D01*
X968286Y424560D01*
X967961Y424901D01*
X972552Y421452D01*
X973900Y422800D01*
X972486Y424214D01*
X977612Y429340D01*
X965360D01*
Y429340D01*
X964090Y428856D01*
X963621Y429169D01*
X961397Y429612D01*
X961397Y429612D01*
X954300D01*
X952076Y429169D01*
X950613Y428192D01*
X949080D01*
Y426247D01*
X948931Y426024D01*
X948488Y423800D01*
X948931Y421576D01*
X949080Y421353D01*
Y419634D01*
X948626D01*
X948656Y419544D01*
X949006Y418894D01*
X949456Y418344D01*
X950006Y417894D01*
X950656Y417544D01*
X951406Y417294D01*
X952256Y417144D01*
X953206Y417094D01*
Y412094D01*
X952256Y412044D01*
X951406Y411894D01*
X950810Y411696D01*
Y411536D01*
X950760Y411642D01*
X950723Y411666D01*
X950656Y411644D01*
X950006Y411294D01*
X949456Y410844D01*
X949006Y410294D01*
X948656Y409644D01*
X948430Y408966D01*
X949080D01*
Y400408D01*
X948340Y400045D01*
X948365Y399770D01*
X948488Y399119D01*
X948647Y398569D01*
X948841Y398120D01*
X949070Y397770D01*
X949335Y397520D01*
X949634Y397369D01*
X949969Y397320D01*
X942030D01*
X942254Y397369D01*
X942454Y397520D01*
X942630Y397770D01*
X942783Y398120D01*
X942912Y398569D01*
X943018Y399119D01*
X943100Y399770D01*
X943115Y400018D01*
X942320Y400408D01*
Y409396D01*
X938625D01*
X938178Y409978D01*
X936779Y411052D01*
X935149Y411727D01*
X933400Y411958D01*
X918079D01*
X916868Y412100D01*
Y413707D01*
X918232Y415071D01*
X919100Y417166D01*
Y419434D01*
X918232Y421529D01*
X917952Y421809D01*
X917790Y423013D01*
X917790D01*
Y429184D01*
X915291Y431683D01*
X915289Y431663D01*
X915250Y430583D01*
X912250D01*
X912235Y431157D01*
X912190Y431671D01*
X912115Y432125D01*
X912010Y432519D01*
X911875Y432852D01*
X911710Y433125D01*
X911515Y433337D01*
X911290Y433490D01*
X911035Y433582D01*
X910750Y433614D01*
X913375Y433599D01*
X906586Y440388D01*
X909414Y443217D01*
X918790Y433841D01*
Y448881D01*
X919566Y449400D01*
X921834D01*
X923929Y450268D01*
X925280Y451619D01*
X926456Y451289D01*
X926550Y451230D01*
X926550Y451201D01*
X926550Y451201D01*
X926550Y451199D01*
Y436203D01*
X934576Y444229D01*
X937404Y441401D01*
X929379Y433375D01*
X947002D01*
X938976Y441401D01*
X940390Y442815D01*
X938976Y444229D01*
X947002Y452255D01*
X927066Y452255D01*
X926148Y453359D01*
X926400Y453966D01*
Y456234D01*
X925532Y458329D01*
X923929Y459932D01*
X921834Y460800D01*
X919940D01*
Y472237D01*
X926783D01*
X926991Y472219D01*
X927296Y472169D01*
X927390Y472144D01*
Y461595D01*
X931992D01*
X932280Y460900D01*
X934156Y458456D01*
X936600Y456580D01*
X939446Y455401D01*
X942500Y454999D01*
X957384D01*
X958092Y455092D01*
X958800Y454999D01*
X1000847D01*
X1003902Y455401D01*
X1005810Y456191D01*
X1006793D01*
X1009847Y456594D01*
X1011413Y457243D01*
X1021680D01*
Y478492D01*
X1029771D01*
X1030922Y478721D01*
X1031130Y478860D01*
X1032400Y478181D01*
Y478066D01*
X1033268Y475971D01*
X1034871Y474368D01*
X1036966Y473500D01*
X1039234D01*
X1041329Y474368D01*
X1042932Y475971D01*
X1043800Y478066D01*
Y480334D01*
X1043731Y480499D01*
X1043728Y480589D01*
X1043739Y480810D01*
X1043768Y481009D01*
X1043812Y481189D01*
X1043871Y481355D01*
X1043946Y481513D01*
X1044039Y481666D01*
X1044097Y481744D01*
X1044146Y481792D01*
X1050600D01*
X1050674Y481807D01*
X1052600D01*
X1053458Y481978D01*
X1054154Y482442D01*
X1054911Y481936D01*
X1056095Y481701D01*
X1064105D01*
X1065289Y481936D01*
X1066047Y482442D01*
X1066742Y481978D01*
D02*
G37*
G36*
X1043068Y483200D02*
X1042818Y482927D01*
X1042602Y482639D01*
X1042418Y482336D01*
X1042267Y482019D01*
X1042149Y481686D01*
X1042064Y481340D01*
X1042012Y480978D01*
X1041993Y480602D01*
X1042007Y480211D01*
X1042054Y479805D01*
X1037574Y483165D01*
X1038008Y483234D01*
X1038817Y483427D01*
X1039192Y483552D01*
X1039548Y483696D01*
X1039884Y483859D01*
X1040201Y484041D01*
X1040498Y484242D01*
X1040775Y484462D01*
X1041033Y484701D01*
X1043068Y483200D01*
D02*
G37*
G36*
X734069Y482955D02*
X734081Y482608D01*
X734119Y482259D01*
X734183Y481907D01*
X734273Y481552D01*
X734388Y481194D01*
X734528Y480834D01*
X734694Y480471D01*
X734885Y480105D01*
X735344Y479366D01*
X729850Y480449D01*
X730177Y480682D01*
X730469Y480931D01*
X730726Y481195D01*
X730950Y481474D01*
X731139Y481769D01*
X731294Y482080D01*
X731414Y482406D01*
X731500Y482747D01*
X731551Y483104D01*
X731569Y483476D01*
X734069Y482955D01*
D02*
G37*
G36*
X815917Y480519D02*
X815709Y480493D01*
X815490Y480435D01*
X815259Y480348D01*
X815016Y480229D01*
X814762Y480080D01*
X814496Y479901D01*
X814219Y479690D01*
X813630Y479177D01*
X813318Y478875D01*
X811516Y480609D01*
X811724Y480831D01*
X811900Y481050D01*
X812044Y481265D01*
X812155Y481477D01*
X812235Y481685D01*
X812282Y481890D01*
X812297Y482091D01*
X812280Y482288D01*
X812230Y482482D01*
X812149Y482672D01*
X815917Y480519D01*
D02*
G37*
G36*
X1308160Y493141D02*
X1318286Y503267D01*
X1321114Y500438D01*
X1310988Y490312D01*
X1351240D01*
X1351853Y489296D01*
Y486960D01*
X1325224D01*
X1331349Y480834D01*
X1328521Y478006D01*
X1322395Y484132D01*
Y472557D01*
X1321125Y472031D01*
X1281728Y511428D01*
X1281549Y511548D01*
X1281934Y512818D01*
X1308160D01*
Y493141D01*
D02*
G37*
G36*
X838670Y475322D02*
X836131D01*
X836144Y475337D01*
X836155Y475382D01*
X836166Y475456D01*
X836175Y475561D01*
X836197Y476277D01*
X836200Y476814D01*
X838700D01*
X838670Y475322D01*
D02*
G37*
G36*
X833670D02*
X831130D01*
X831144Y475346D01*
X831155Y475419D01*
X831166Y475541D01*
X831194Y476514D01*
X831200Y477754D01*
X833700D01*
X833670Y475322D01*
D02*
G37*
G36*
X813670D02*
X811131D01*
X811134Y475347D01*
X811137Y475422D01*
X811150Y477822D01*
X813650D01*
X813670Y475322D01*
D02*
G37*
G36*
X929151Y472500D02*
X929119Y472785D01*
X929026Y473040D01*
X928874Y473265D01*
X928661Y473460D01*
X928388Y473625D01*
X928055Y473760D01*
X927662Y473865D01*
X927208Y473940D01*
X926694Y473985D01*
X926121Y474000D01*
Y477000D01*
X929120Y477065D01*
X929151Y472500D01*
D02*
G37*
G36*
X754826Y471000D02*
X754801Y471237D01*
X754725Y471450D01*
X754598Y471637D01*
X754421Y471800D01*
X754193Y471937D01*
X753915Y472050D01*
X753586Y472137D01*
X753206Y472200D01*
X752776Y472238D01*
X752296Y472250D01*
Y474750D01*
X752776Y474763D01*
X753206Y474800D01*
X753586Y474863D01*
X753915Y474950D01*
X754193Y475062D01*
X754421Y475200D01*
X754598Y475363D01*
X754725Y475550D01*
X754801Y475762D01*
X754826Y476000D01*
Y471000D01*
D02*
G37*
G36*
X903551Y470530D02*
X902798Y469755D01*
X901113Y467757D01*
X900743Y467200D01*
X900470Y466696D01*
X900293Y466247D01*
X900212Y465853D01*
X900228Y465513D01*
X900339Y465227D01*
X897127Y470439D01*
X897313Y470228D01*
X897552Y470111D01*
X897843Y470089D01*
X898188Y470162D01*
X898586Y470330D01*
X899037Y470593D01*
X899541Y470950D01*
X900097Y471402D01*
X901369Y472591D01*
X903551Y470530D01*
D02*
G37*
G36*
X848664Y473615D02*
X848740Y473402D01*
X848867Y473215D01*
X849044Y473052D01*
X849272Y472915D01*
X849550Y472803D01*
X849879Y472715D01*
X850258Y472653D01*
X850689Y472615D01*
X851170Y472603D01*
Y470103D01*
X850689Y470090D01*
X850258Y470052D01*
X849879Y469990D01*
X849550Y469902D01*
X849272Y469790D01*
X849044Y469652D01*
X848867Y469490D01*
X848740Y469302D01*
X848664Y469090D01*
X848639Y468853D01*
Y473853D01*
X848664Y473615D01*
D02*
G37*
G36*
X880842Y468552D02*
X880535Y468846D01*
X880222Y469110D01*
X879903Y469343D01*
X879578Y469544D01*
X879247Y469715D01*
X878910Y469854D01*
X878566Y469963D01*
X878217Y470041D01*
X877861Y470087D01*
X877499Y470103D01*
X877501Y472603D01*
X877863Y472618D01*
X878218Y472664D01*
X878568Y472742D01*
X878912Y472850D01*
X879249Y472990D01*
X879580Y473160D01*
X879906Y473362D01*
X880225Y473594D01*
X880538Y473857D01*
X880845Y474152D01*
X880842Y468552D01*
D02*
G37*
G36*
X761593Y472372D02*
X761522Y472142D01*
Y471877D01*
X761593Y471576D01*
X761734Y471240D01*
X761947Y470869D01*
X762230Y470462D01*
X762583Y470020D01*
X763502Y469030D01*
X761734Y467263D01*
X761222Y467758D01*
X760303Y468536D01*
X759896Y468818D01*
X759525Y469030D01*
X759189Y469172D01*
X758888Y469243D01*
X758623D01*
X758393Y469172D01*
X758199Y469030D01*
X761734Y472566D01*
X761593Y472372D01*
D02*
G37*
G36*
X1094275Y469863D02*
X1094196Y469571D01*
X1094127Y469164D01*
X1094066Y468642D01*
X1093942Y466387D01*
X1093900Y463100D01*
X1086900D01*
X1086895Y464310D01*
X1086525Y469863D01*
X1086438Y470041D01*
X1094362D01*
X1094275Y469863D01*
D02*
G37*
G36*
X800512Y465091D02*
X800550Y464661D01*
X800612Y464282D01*
X800700Y463952D01*
X800813Y463674D01*
X800950Y463446D01*
X801113Y463269D01*
X801300Y463143D01*
X801513Y463067D01*
X801750Y463041D01*
X796750D01*
X796988Y463067D01*
X797200Y463143D01*
X797387Y463269D01*
X797550Y463446D01*
X797688Y463674D01*
X797800Y463952D01*
X797887Y464282D01*
X797950Y464661D01*
X797988Y465091D01*
X798000Y465572D01*
X800500D01*
X800512Y465091D01*
D02*
G37*
G36*
X728564Y467305D02*
X728876Y467042D01*
X729196Y466810D01*
X729521Y466608D01*
X729852Y466437D01*
X730189Y466298D01*
X730234Y466284D01*
X730428Y466362D01*
X730656Y466500D01*
X730833Y466662D01*
X730960Y466850D01*
X731036Y467062D01*
X731061Y467300D01*
Y466089D01*
X731238Y466065D01*
X731600Y466050D01*
Y463550D01*
X731238Y463535D01*
X731061Y463511D01*
Y462300D01*
X731036Y462537D01*
X730960Y462750D01*
X730833Y462938D01*
X730656Y463100D01*
X730428Y463237D01*
X730234Y463316D01*
X730189Y463302D01*
X729852Y463162D01*
X729521Y462992D01*
X729196Y462790D01*
X728876Y462558D01*
X728564Y462295D01*
X728257Y462000D01*
Y467600D01*
X728564Y467305D01*
D02*
G37*
G36*
X912673Y460561D02*
X912487Y460772D01*
X912248Y460889D01*
X911956Y460911D01*
X911612Y460838D01*
X911214Y460670D01*
X910763Y460407D01*
X910259Y460050D01*
X909703Y459598D01*
X908430Y458409D01*
X906248Y460470D01*
X907002Y461245D01*
X908687Y463243D01*
X909056Y463801D01*
X909330Y464304D01*
X909507Y464753D01*
X909588Y465147D01*
X909572Y465487D01*
X909461Y465773D01*
X912673Y460561D01*
D02*
G37*
G36*
X793880Y460533D02*
X793856Y460537D01*
X793781Y460540D01*
X791380Y460552D01*
Y463052D01*
X793880Y463072D01*
Y460533D01*
D02*
G37*
G36*
X863101Y463102D02*
X863419Y463102D01*
Y460602D01*
X863193Y460596D01*
X863249Y459097D01*
X862929Y459383D01*
X862604Y459639D01*
X862275Y459865D01*
X861942Y460060D01*
X861605Y460226D01*
X861263Y460362D01*
X860917Y460467D01*
X860566Y460542D01*
X860211Y460587D01*
X859852Y460602D01*
X859755Y463102D01*
X860119Y463118D01*
X860475Y463166D01*
X860823Y463246D01*
X861164Y463357D01*
X861496Y463500D01*
X861821Y463675D01*
X862138Y463882D01*
X862447Y464120D01*
X862749Y464391D01*
X863042Y464693D01*
X863101Y463102D01*
D02*
G37*
G36*
X1297164Y472028D02*
X1303525Y466695D01*
X1305338Y465499D01*
X1306996Y464595D01*
X1308500Y463982D01*
X1309851Y463660D01*
X1311047Y463629D01*
X1312089Y463890D01*
X1297966Y457951D01*
X1297863Y457876D01*
X1297554Y458026D01*
X1297039Y458401D01*
X1296317Y459001D01*
X1292918Y462147D01*
X1287664Y467317D01*
X1294736Y474388D01*
X1297164Y472028D01*
D02*
G37*
G36*
X809358Y461620D02*
X810426Y460682D01*
X810711Y460475D01*
X810959Y460322D01*
X811171Y460222D01*
X811347Y460175D01*
X811487Y460182D01*
X811591Y460242D01*
X808961Y457611D01*
X809021Y457715D01*
X809027Y457855D01*
X808980Y458032D01*
X808880Y458244D01*
X808727Y458492D01*
X808521Y458776D01*
X808261Y459096D01*
X807582Y459844D01*
X807163Y460272D01*
X808931Y462040D01*
X809358Y461620D01*
D02*
G37*
G36*
X917731Y452419D02*
X917439Y452722D01*
X917139Y452993D01*
X916831Y453232D01*
X916515Y453440D01*
X916191Y453615D01*
X915901Y453740D01*
X915844Y453719D01*
X915620Y453589D01*
X915444Y453435D01*
X915320Y453258D01*
X915245Y453057D01*
X915219Y452833D01*
X915213Y453940D01*
X915171Y453950D01*
X914815Y453998D01*
X914450Y454014D01*
X914558Y456514D01*
X914917Y456529D01*
X915196Y456564D01*
X915189Y457764D01*
X915216Y457526D01*
X915293Y457314D01*
X915420Y457126D01*
X915598Y456964D01*
X915826Y456826D01*
X915987Y456761D01*
X916311Y456889D01*
X916650Y457054D01*
X916984Y457249D01*
X917313Y457474D01*
X917639Y457729D01*
X917960Y458015D01*
X917731Y452419D01*
D02*
G37*
G36*
X886556Y458008D02*
X886124Y457967D01*
X885712Y457903D01*
X885318Y457816D01*
X884943Y457708D01*
X884587Y457577D01*
X884249Y457425D01*
X883931Y457249D01*
X883631Y457052D01*
X883350Y456833D01*
X883087Y456591D01*
X881171Y458210D01*
X881419Y458481D01*
X881636Y458768D01*
X881824Y459071D01*
X881981Y459389D01*
X882108Y459724D01*
X882206Y460076D01*
X882273Y460443D01*
X882310Y460826D01*
X882317Y461226D01*
X882294Y461641D01*
X886556Y458008D01*
D02*
G37*
G36*
X749251Y461490D02*
X749329Y460280D01*
X749414D01*
X749382Y460243D01*
X749353Y460129D01*
X749345Y460068D01*
X749383Y459842D01*
X749433Y459636D01*
X749489Y459470D01*
X749554Y459345D01*
X749626Y459260D01*
X749287Y459235D01*
X749247Y456503D01*
X744247D01*
X744239Y457221D01*
X744129Y458843D01*
X744042Y458836D01*
X744081Y458905D01*
X744110Y458999D01*
X744054Y459336D01*
X743969Y459676D01*
X743868Y459940D01*
X743753Y460129D01*
X743621Y460243D01*
X743475Y460280D01*
X744222D01*
X744247Y461454D01*
X749247Y461943D01*
X749251Y461490D01*
D02*
G37*
G36*
X876460Y457600D02*
X876035Y457591D01*
X875627Y457556D01*
X875237Y457495D01*
X874865Y457408D01*
X874510Y457294D01*
X874173Y457154D01*
X873853Y456988D01*
X873551Y456796D01*
X873267Y456577D01*
X873000Y456332D01*
X871232Y458100D01*
X871477Y458367D01*
X871696Y458651D01*
X871888Y458953D01*
X872054Y459273D01*
X872194Y459610D01*
X872308Y459965D01*
X872395Y460337D01*
X872456Y460727D01*
X872491Y461135D01*
X872500Y461560D01*
X876460Y457600D01*
D02*
G37*
G36*
X777637Y455869D02*
X777271Y455500D01*
X775832Y453852D01*
X775839Y453809D01*
X773711Y455742D01*
X773756Y455737D01*
X773838Y455773D01*
X773954Y455851D01*
X774107Y455969D01*
X774519Y456329D01*
X775772Y457540D01*
X777637Y455869D01*
D02*
G37*
G36*
X845864Y459065D02*
X845940Y458853D01*
X846067Y458665D01*
X846244Y458503D01*
X846472Y458365D01*
X846750Y458252D01*
X847079Y458165D01*
X847458Y458102D01*
X847889Y458065D01*
X848211Y458057D01*
X850181Y458072D01*
Y455533D01*
X850155Y455537D01*
X850080Y455540D01*
X848255Y455550D01*
X847889Y455540D01*
X847458Y455503D01*
X847079Y455440D01*
X846750Y455353D01*
X846472Y455240D01*
X846244Y455103D01*
X846067Y454940D01*
X845940Y454753D01*
X845864Y454540D01*
X845839Y454302D01*
Y459302D01*
X845864Y459065D01*
D02*
G37*
G36*
X793880Y455533D02*
X793856Y455537D01*
X793781Y455540D01*
X791380Y455552D01*
Y458052D01*
X793880Y458072D01*
Y455533D01*
D02*
G37*
G36*
X892781Y452833D02*
X892756Y452980D01*
X892681Y453111D01*
X892555Y453227D01*
X892381Y453327D01*
X892156Y453412D01*
X891880Y453482D01*
X891555Y453536D01*
X891180Y453574D01*
X890281Y453605D01*
Y456105D01*
X890760Y456118D01*
X891189Y456155D01*
X891568Y456218D01*
X891896Y456305D01*
X892174Y456418D01*
X892402Y456555D01*
X892580Y456718D01*
X892707Y456905D01*
X892784Y457118D01*
X892811Y457355D01*
X892781Y452833D01*
D02*
G37*
G36*
X860945Y453068D02*
X861020Y453065D01*
X863419Y453052D01*
Y450552D01*
X860919Y450533D01*
Y453072D01*
X860945Y453068D01*
D02*
G37*
G36*
X793880Y450533D02*
X793856Y450537D01*
X793781Y450540D01*
X791380Y450552D01*
Y453052D01*
X793880Y453072D01*
Y450533D01*
D02*
G37*
G36*
X908765Y452452D02*
X908810Y451942D01*
X908885Y451492D01*
X908990Y451102D01*
X909125Y450772D01*
X909290Y450502D01*
X909485Y450292D01*
X909710Y450142D01*
X909965Y450052D01*
X910250Y450022D01*
X904250D01*
X904535Y450052D01*
X904790Y450142D01*
X905015Y450292D01*
X905210Y450502D01*
X905375Y450772D01*
X905510Y451102D01*
X905615Y451492D01*
X905690Y451942D01*
X905735Y452452D01*
X905750Y453022D01*
X908750D01*
X908765Y452452D01*
D02*
G37*
G36*
X860945Y448068D02*
X861020Y448065D01*
X863419Y448052D01*
Y445552D01*
X860919Y445533D01*
Y448072D01*
X860945Y448068D01*
D02*
G37*
G36*
X793880Y445533D02*
X793856Y445537D01*
X793781Y445540D01*
X791380Y445552D01*
Y448052D01*
X793880Y448072D01*
Y445533D01*
D02*
G37*
G36*
X784693Y448530D02*
X785481Y448341D01*
X785908Y448265D01*
X787326Y448106D01*
X787843Y448076D01*
X788945Y448052D01*
X789391Y445552D01*
X789006Y445535D01*
X788651Y445482D01*
X788327Y445395D01*
X788034Y445272D01*
X787770Y445115D01*
X787538Y444922D01*
X787335Y444694D01*
X787164Y444431D01*
X787022Y444133D01*
X786912Y443800D01*
X784333Y448642D01*
X784693Y448530D01*
D02*
G37*
G36*
X808961Y439302D02*
X808936Y439540D01*
X808860Y439753D01*
X808733Y439940D01*
X808556Y440103D01*
X808328Y440240D01*
X808050Y440353D01*
X807721Y440440D01*
X807341Y440503D01*
X806911Y440540D01*
X806590Y440548D01*
X804620Y440533D01*
Y443072D01*
X804644Y443068D01*
X804719Y443065D01*
X806545Y443055D01*
X806911Y443065D01*
X807341Y443102D01*
X807721Y443165D01*
X808050Y443252D01*
X808328Y443365D01*
X808556Y443503D01*
X808733Y443665D01*
X808860Y443853D01*
X808936Y444065D01*
X808961Y444302D01*
Y439302D01*
D02*
G37*
G36*
X1238713Y436931D02*
X1237787Y437343D01*
X1236753Y437506D01*
X1235610Y437419D01*
X1234359Y437083D01*
X1232999Y436498D01*
X1231531Y435663D01*
X1229953Y434579D01*
X1229856Y434502D01*
X1231646Y432712D01*
X1230660Y432523D01*
X1229644Y432220D01*
X1228599Y431804D01*
X1227526Y431275D01*
X1226422Y430633D01*
X1225290Y429878D01*
X1224128Y429009D01*
X1221716Y426932D01*
X1220466Y425724D01*
X1213394Y432795D01*
X1214603Y434045D01*
X1216679Y436457D01*
X1217548Y437620D01*
X1218303Y438752D01*
X1218945Y439855D01*
X1219474Y440929D01*
X1219890Y441974D01*
X1220193Y442990D01*
X1220382Y443976D01*
X1221613Y442745D01*
X1221654Y442815D01*
X1222206Y444141D01*
X1222441Y445292D01*
X1222361Y446268D01*
X1221964Y447068D01*
X1221251Y447693D01*
X1238713Y436931D01*
D02*
G37*
G36*
X834979Y447614D02*
X834671Y447265D01*
X834397Y446865D01*
X834156Y446415D01*
X833948Y445916D01*
X833774Y445366D01*
X833633Y444765D01*
X833524Y444115D01*
X833450Y443414D01*
X833400Y441862D01*
X827460Y447802D01*
X828261Y447811D01*
X829712Y447927D01*
X830363Y448035D01*
X830963Y448176D01*
X831513Y448351D01*
X832013Y448559D01*
X832463Y448800D01*
X832862Y449074D01*
X833211Y449381D01*
X834979Y447614D01*
D02*
G37*
G36*
X735275Y448100D02*
X735350Y447675D01*
X735475Y447300D01*
X735559Y447144D01*
X736289D01*
X736091Y447121D01*
X735915Y447052D01*
X735759Y446936D01*
X735720Y446889D01*
X735875Y446700D01*
X736150Y446475D01*
X736475Y446300D01*
X736850Y446175D01*
X737275Y446100D01*
X737750Y446075D01*
Y443575D01*
X737275Y443550D01*
X736850Y443475D01*
X736475Y443350D01*
X736150Y443175D01*
X735875Y442950D01*
X735696Y442731D01*
X735833Y442578D01*
X736011Y442454D01*
X736213Y442380D01*
X736439Y442356D01*
X735478D01*
X735475Y442350D01*
X735350Y441975D01*
X735275Y441550D01*
X735250Y441075D01*
X734396Y442356D01*
X731561D01*
X731787Y442380D01*
X731989Y442454D01*
X732168Y442578D01*
X732322Y442751D01*
X732453Y442973D01*
X732560Y443245D01*
X732643Y443566D01*
X732702Y443936D01*
X732738Y444356D01*
X732750Y444825D01*
X732740Y445266D01*
X732708Y445660D01*
X732656Y446008D01*
X732584Y446309D01*
X732490Y446564D01*
X732376Y446773D01*
X732241Y446936D01*
X732085Y447052D01*
X731908Y447121D01*
X731711Y447144D01*
X734296D01*
X735250Y448575D01*
X735275Y448100D01*
D02*
G37*
G36*
X860945Y443068D02*
X861020Y443065D01*
X863419Y443052D01*
Y440552D01*
X860919Y440533D01*
Y443072D01*
X860945Y443068D01*
D02*
G37*
G36*
X793880Y440533D02*
X793856Y440537D01*
X793781Y440540D01*
X791380Y440552D01*
Y443052D01*
X793880Y443072D01*
Y440533D01*
D02*
G37*
G36*
X886010Y440050D02*
X885585Y440041D01*
X885177Y440006D01*
X884787Y439945D01*
X884415Y439858D01*
X884060Y439744D01*
X883723Y439604D01*
X883403Y439438D01*
X883101Y439246D01*
X882817Y439027D01*
X882550Y438782D01*
X880782Y440550D01*
X881027Y440817D01*
X881246Y441101D01*
X881438Y441403D01*
X881604Y441723D01*
X881744Y442060D01*
X881858Y442415D01*
X881945Y442787D01*
X882006Y443177D01*
X882041Y443585D01*
X882050Y444010D01*
X886010Y440050D01*
D02*
G37*
G36*
X1341503Y440469D02*
X1341608Y438824D01*
X1341647Y438620D01*
X1341692Y438457D01*
X1341743Y438336D01*
X1341800Y438257D01*
X1336200D01*
X1336257Y438336D01*
X1336308Y438457D01*
X1336353Y438620D01*
X1336392Y438824D01*
X1336425Y439070D01*
X1336473Y439686D01*
X1336500Y440923D01*
X1341500D01*
X1341503Y440469D01*
D02*
G37*
G36*
X775701Y443177D02*
X775633Y442949D01*
X775636Y442686D01*
X775710Y442386D01*
X775854Y442050D01*
X776069Y441679D01*
X776355Y441271D01*
X776712Y440828D01*
X777637Y439833D01*
X775870Y438065D01*
X775354Y438563D01*
X774431Y439347D01*
X774024Y439633D01*
X773652Y439848D01*
X773317Y439993D01*
X773017Y440066D01*
X772753Y440070D01*
X772526Y440002D01*
X772334Y439864D01*
X775839Y443368D01*
X775701Y443177D01*
D02*
G37*
G36*
X821938Y449074D02*
X822337Y448800D01*
X822787Y448559D01*
X823287Y448351D01*
X823837Y448176D01*
X824437Y448035D01*
X825088Y447927D01*
X825788Y447852D01*
X827340Y447802D01*
X823115Y443577D01*
Y437603D01*
X822543Y438163D01*
X821434Y439107D01*
X820898Y439491D01*
X820373Y439815D01*
X819861Y440080D01*
X819361Y440287D01*
X818872Y440434D01*
X818396Y440523D01*
X817932Y440552D01*
Y443052D01*
X818396Y443082D01*
X818872Y443171D01*
X819361Y443318D01*
X819861Y443525D01*
X820373Y443790D01*
X820898Y444114D01*
X821235Y444356D01*
X821167Y444765D01*
X821026Y445366D01*
X820852Y445916D01*
X820644Y446415D01*
X820403Y446865D01*
X820128Y447265D01*
X819821Y447614D01*
X821589Y449381D01*
X821938Y449074D01*
D02*
G37*
G36*
X860945Y438068D02*
X861020Y438065D01*
X863419Y438052D01*
Y435552D01*
X860919Y435533D01*
Y438072D01*
X860945Y438068D01*
D02*
G37*
G36*
X793880Y435533D02*
X793856Y435527D01*
X793781Y435522D01*
X792655Y435505D01*
X791380Y435503D01*
Y438003D01*
X793880Y438072D01*
Y435533D01*
D02*
G37*
G36*
X833408Y440942D02*
X833524Y439490D01*
X833633Y438840D01*
X833774Y438239D01*
X833948Y437689D01*
X834156Y437189D01*
X834397Y436740D01*
X834671Y436340D01*
X834979Y435991D01*
X833211Y434224D01*
X832862Y434531D01*
X832463Y434805D01*
X832013Y435046D01*
X831513Y435254D01*
X830963Y435429D01*
X830363Y435570D01*
X829712Y435678D01*
X829012Y435753D01*
X827460Y435803D01*
X833400Y441743D01*
X833408Y440942D01*
D02*
G37*
G36*
X860945Y433068D02*
X861020Y433065D01*
X863419Y433052D01*
Y430552D01*
X860919Y430533D01*
Y433072D01*
X860945Y433068D01*
D02*
G37*
G36*
X793880Y430533D02*
X793859Y430537D01*
X793794Y430540D01*
X791711Y430552D01*
Y433052D01*
X793880Y433072D01*
Y430533D01*
D02*
G37*
G36*
X1351853Y424403D02*
X1351350Y423900D01*
X1350566D01*
X1348471Y423032D01*
X1346868Y421429D01*
X1346000Y419334D01*
Y417066D01*
X1346868Y414971D01*
X1348109Y413730D01*
X1347597Y412460D01*
X1325223D01*
X1331349Y406334D01*
X1329935Y404920D01*
X1331349Y403506D01*
X1325223Y397380D01*
X1351647D01*
X1345521Y403506D01*
X1348349Y406334D01*
X1354475Y400208D01*
X1354475Y412286D01*
X1354767Y412981D01*
X1355052Y413491D01*
X1356532Y414971D01*
X1357400Y417066D01*
X1358577Y416842D01*
Y381171D01*
X1352413Y375007D01*
X1351240Y375493D01*
Y390564D01*
X1341114Y380438D01*
X1338286Y383267D01*
X1348411Y393392D01*
X1310988D01*
X1321114Y383267D01*
X1318286Y380438D01*
X1308160Y390564D01*
Y372408D01*
X1276146D01*
X1254227Y394327D01*
X1253251Y394979D01*
X1252100Y395208D01*
X1244682D01*
X1244583Y395221D01*
X1244382Y395265D01*
X1244183Y395328D01*
X1243981Y395412D01*
X1243775Y395518D01*
X1243564Y395649D01*
X1243346Y395807D01*
X1243123Y395995D01*
X1242857Y396251D01*
X1242728Y396333D01*
X1243262Y397595D01*
X1288700D01*
X1289139Y397653D01*
X1297900D01*
Y402186D01*
X1301357D01*
X1301922Y401622D01*
X1303321Y400548D01*
X1304951Y399873D01*
X1306700Y399642D01*
X1308449Y399873D01*
X1310079Y400548D01*
X1311478Y401622D01*
X1312552Y403021D01*
X1313228Y404651D01*
X1313458Y406400D01*
X1313228Y408149D01*
X1312552Y409779D01*
X1311478Y411179D01*
X1308935Y413722D01*
X1307536Y414796D01*
X1305906Y415471D01*
X1304157Y415701D01*
X1297900D01*
Y418720D01*
X1303154D01*
X1303206Y418668D01*
X1305301Y417800D01*
X1307569D01*
X1309664Y418668D01*
X1309716Y418720D01*
X1316635D01*
Y428120D01*
X1314252D01*
X1313821Y429390D01*
X1314061Y429574D01*
X1315134Y430974D01*
X1315237Y431220D01*
X1316635D01*
Y440620D01*
X1311659D01*
X1311031Y440880D01*
X1309282Y441110D01*
X1284259D01*
X1284102Y441131D01*
X1283944Y441110D01*
X1283452D01*
X1283013Y441053D01*
X1269433D01*
X1268527Y442323D01*
X1268572Y442453D01*
X1268745Y442653D01*
X1283502D01*
X1285100Y442442D01*
X1288548D01*
X1289706Y442595D01*
X1302935D01*
X1304684Y442825D01*
X1306314Y443500D01*
X1306601Y443720D01*
X1316635D01*
Y453120D01*
X1308489D01*
X1307730Y454110D01*
X1307743Y454211D01*
X1308172Y455380D01*
X1314647D01*
X1310521Y459506D01*
X1313349Y462334D01*
X1317475Y458208D01*
Y461910D01*
X1318648Y462396D01*
X1334718Y446326D01*
Y439472D01*
X1334701Y439253D01*
X1334687Y439147D01*
X1334168Y438629D01*
X1333300Y436534D01*
Y434266D01*
X1334168Y432171D01*
X1335771Y430568D01*
X1337866Y429700D01*
X1340134D01*
X1342229Y430568D01*
X1343832Y432171D01*
X1344700Y434266D01*
Y436534D01*
X1343832Y438629D01*
X1343325Y439136D01*
X1343282Y439804D01*
Y448100D01*
X1342956Y449739D01*
X1342028Y451128D01*
X1322546Y470610D01*
X1323072Y471880D01*
X1351853D01*
Y424403D01*
D02*
G37*
G36*
X748945Y433947D02*
X749414D01*
X749324Y433897D01*
X749245Y433747D01*
X749174Y433497D01*
X749113Y433147D01*
X749061Y432697D01*
X749027Y432018D01*
X749174Y429669D01*
X749245Y429420D01*
X749324Y429270D01*
X749414Y429220D01*
X748947D01*
X748944Y428947D01*
X743944D01*
X743943Y429220D01*
X743475D01*
X743564Y429270D01*
X743643Y429420D01*
X743714Y429669D01*
X743775Y430019D01*
X743827Y430470D01*
X743861Y431148D01*
X743714Y433497D01*
X743643Y433747D01*
X743564Y433897D01*
X743475Y433947D01*
X743941D01*
X743944Y434220D01*
X748944D01*
X748945Y433947D01*
D02*
G37*
G36*
X756110Y433775D02*
X757808Y432337D01*
X758275Y432027D01*
X758692Y431801D01*
X759060Y431660D01*
X759377Y431602D01*
X759645Y431630D01*
X759864Y431741D01*
X755961Y428634D01*
X756117Y428808D01*
X756199Y429022D01*
X756205Y429276D01*
X756137Y429569D01*
X755995Y429903D01*
X755778Y430276D01*
X755486Y430690D01*
X755120Y431143D01*
X754163Y432169D01*
X755444Y434424D01*
X756110Y433775D01*
D02*
G37*
G36*
X1118321Y436406D02*
X1116977Y435043D01*
X1112381Y429758D01*
X1111886Y429007D01*
X1111532Y428358D01*
X1111320Y427812D01*
X1111249Y427367D01*
X1102411Y436606D01*
X1102855Y436677D01*
X1103402Y436889D01*
X1104051Y437243D01*
X1104801Y437738D01*
X1105654Y438374D01*
X1107666Y440071D01*
X1111450Y443677D01*
X1118321Y436406D01*
D02*
G37*
G36*
X1264760Y436900D02*
X1264425Y436800D01*
X1264126Y436500D01*
X1263862Y436000D01*
X1263633Y435300D01*
X1263440Y434400D01*
X1263281Y433301D01*
X1263070Y430500D01*
X1263000Y426900D01*
X1253000D01*
X1252950Y428805D01*
X1252800Y430508D01*
X1252550Y432012D01*
X1252200Y433316D01*
X1251750Y434419D01*
X1251200Y435322D01*
X1250550Y436024D01*
X1249800Y436527D01*
X1248950Y436829D01*
X1248000Y436931D01*
X1264760Y436900D01*
D02*
G37*
G36*
X872324Y429179D02*
X872613Y428964D01*
X872914Y428786D01*
X873227Y428645D01*
X873553Y428541D01*
X873891Y428474D01*
X874241Y428444D01*
X874603Y428451D01*
X874977Y428495D01*
X875364Y428577D01*
X872455Y423792D01*
X872345Y424224D01*
X872083Y425028D01*
X871932Y425400D01*
X871767Y425752D01*
X871588Y426083D01*
X871396Y426394D01*
X871189Y426685D01*
X870969Y426956D01*
X870736Y427207D01*
X872047Y429431D01*
X872324Y429179D01*
D02*
G37*
G36*
X1168751Y420640D02*
X1168651Y421328D01*
X1168351Y421944D01*
X1167850Y422486D01*
X1167150Y422957D01*
X1166251Y423355D01*
X1165151Y423681D01*
X1163850Y423934D01*
X1162350Y424115D01*
X1160650Y424224D01*
X1158751Y424260D01*
Y434260D01*
X1160655Y434310D01*
X1162359Y434460D01*
X1163863Y434710D01*
X1165166Y435060D01*
X1166269Y435510D01*
X1167172Y436060D01*
X1167875Y436710D01*
X1168377Y437460D01*
X1168679Y438310D01*
X1168781Y439260D01*
X1168751Y420640D01*
D02*
G37*
G36*
X769314Y425175D02*
X770051Y424770D01*
X770415Y424606D01*
X770776Y424466D01*
X771134Y424352D01*
X771489Y424264D01*
X771841Y424201D01*
X772190Y424163D01*
X772536Y424150D01*
X773074Y421650D01*
X772702Y421633D01*
X772345Y421581D01*
X772004Y421495D01*
X771679Y421375D01*
X771369Y421220D01*
X771075Y421030D01*
X770797Y420806D01*
X770535Y420548D01*
X770288Y420255D01*
X770058Y419928D01*
X768941Y425416D01*
X769314Y425175D01*
D02*
G37*
G36*
X844662Y423308D02*
X844450Y423233D01*
X844262Y423108D01*
X844100Y422933D01*
X843962Y422708D01*
X843850Y422433D01*
X843763Y422108D01*
X843700Y421733D01*
X843662Y421308D01*
X843654Y420991D01*
X843670Y419022D01*
X841130D01*
X841134Y419047D01*
X841137Y419122D01*
X841147Y420947D01*
X841137Y421308D01*
X841100Y421733D01*
X841038Y422108D01*
X840950Y422433D01*
X840837Y422708D01*
X840700Y422933D01*
X840537Y423108D01*
X840350Y423233D01*
X840137Y423308D01*
X839900Y423333D01*
X844900D01*
X844662Y423308D01*
D02*
G37*
G36*
X1357373Y420332D02*
X1357052Y420008D01*
X1355707Y418500D01*
X1355692Y418446D01*
X1351955Y422192D01*
X1352009Y422206D01*
X1352093Y422255D01*
X1352207Y422338D01*
X1352350Y422455D01*
X1352962Y423010D01*
X1353843Y423872D01*
X1357373Y420332D01*
D02*
G37*
G36*
X736263Y420786D02*
X736050Y420710D01*
X735863Y420583D01*
X735700Y420406D01*
X735563Y420178D01*
X735450Y419900D01*
X735362Y419571D01*
X735300Y419192D01*
X735263Y418761D01*
X735250Y418280D01*
X732750D01*
X732738Y418761D01*
X732700Y419192D01*
X732637Y419571D01*
X732550Y419900D01*
X732438Y420178D01*
X732300Y420406D01*
X732138Y420583D01*
X731950Y420710D01*
X731738Y420786D01*
X731500Y420811D01*
X736500D01*
X736263Y420786D01*
D02*
G37*
G36*
X857812Y420538D02*
X857600Y420462D01*
X857412Y420336D01*
X857250Y420159D01*
X857113Y419931D01*
X857000Y419652D01*
X856913Y419324D01*
X856850Y418944D01*
X856813Y418514D01*
X856800Y418033D01*
X854300D01*
X854287Y418514D01*
X854250Y418944D01*
X854187Y419324D01*
X854100Y419652D01*
X853988Y419931D01*
X853850Y420159D01*
X853688Y420336D01*
X853500Y420462D01*
X853288Y420538D01*
X853050Y420563D01*
X858050D01*
X857812Y420538D01*
D02*
G37*
G36*
X748947Y420819D02*
X748949Y420780D01*
X749414D01*
X749324Y420731D01*
X749245Y420580D01*
X749174Y420331D01*
X749113Y419981D01*
X749061Y419530D01*
X749047Y419250D01*
X749052Y419174D01*
X749091Y418970D01*
X749136Y418807D01*
X749187Y418686D01*
X749244Y418607D01*
X749015D01*
X748963Y417580D01*
X748944Y415780D01*
X743944D01*
X743939Y416730D01*
X743822Y418607D01*
X743644D01*
X743701Y418686D01*
X743752Y418807D01*
X743797Y418970D01*
X743799Y418978D01*
X743714Y420331D01*
X743643Y420580D01*
X743564Y420731D01*
X743475Y420780D01*
X743933D01*
X743944Y421273D01*
X748944D01*
X748947Y420819D01*
D02*
G37*
G36*
X846161Y414903D02*
X846170Y414902D01*
Y412402D01*
X846161Y412402D01*
Y411152D01*
X846136Y411390D01*
X846060Y411603D01*
X845933Y411790D01*
X845756Y411953D01*
X845528Y412090D01*
X845250Y412202D01*
X844921Y412290D01*
X844900Y412293D01*
X844879Y412290D01*
X844550Y412202D01*
X844272Y412090D01*
X844044Y411953D01*
X843867Y411790D01*
X843740Y411603D01*
X843664Y411390D01*
X843639Y411152D01*
Y412402D01*
X843631Y412402D01*
Y414902D01*
X843639Y414903D01*
Y416152D01*
X843664Y415915D01*
X843740Y415703D01*
X843867Y415515D01*
X844044Y415353D01*
X844272Y415215D01*
X844550Y415103D01*
X844879Y415015D01*
X844900Y415011D01*
X844921Y415015D01*
X845250Y415103D01*
X845528Y415215D01*
X845756Y415353D01*
X845933Y415515D01*
X846060Y415703D01*
X846136Y415915D01*
X846161Y416152D01*
Y414903D01*
D02*
G37*
G36*
X900161Y418046D02*
X900234Y417848D01*
X900354Y417673D01*
X900524Y417522D01*
X900741Y417393D01*
X901007Y417289D01*
X901321Y417207D01*
X901683Y417149D01*
X902094Y417114D01*
X902553Y417102D01*
Y414602D01*
X902094Y414594D01*
X901321Y414533D01*
X901007Y414478D01*
X900741Y414409D01*
X900524Y414324D01*
X900354Y414224D01*
X900234Y414108D01*
X900161Y413977D01*
X900137Y413830D01*
Y418268D01*
X900161Y418046D01*
D02*
G37*
G36*
X806161Y410000D02*
X806136Y410238D01*
X806060Y410450D01*
X805933Y410638D01*
X805756Y410800D01*
X805528Y410938D01*
X805250Y411050D01*
X804921Y411138D01*
X804541Y411200D01*
X804111Y411237D01*
X803630Y411250D01*
Y413750D01*
X804111Y413763D01*
X804541Y413800D01*
X804921Y413862D01*
X805250Y413950D01*
X805528Y414062D01*
X805756Y414200D01*
X805933Y414362D01*
X806060Y414550D01*
X806136Y414762D01*
X806161Y415000D01*
Y410000D01*
D02*
G37*
G36*
X799164Y415005D02*
X799476Y414742D01*
X799796Y414510D01*
X800121Y414308D01*
X800452Y414137D01*
X800789Y413998D01*
X801133Y413890D01*
X801482Y413812D01*
X801838Y413765D01*
X802200Y413750D01*
Y411250D01*
X801838Y411235D01*
X801482Y411188D01*
X801133Y411110D01*
X800789Y411002D01*
X800452Y410863D01*
X800121Y410692D01*
X799796Y410490D01*
X799476Y410258D01*
X799164Y409995D01*
X798857Y409700D01*
Y415300D01*
X799164Y415005D01*
D02*
G37*
G36*
X852529Y418727D02*
X852542Y418576D01*
Y416350D01*
X852771Y415199D01*
X853423Y414223D01*
X855542Y412104D01*
Y402874D01*
X855461Y401043D01*
X855434Y400800D01*
X852850D01*
Y388484D01*
Y373900D01*
X851784Y373408D01*
X848090D01*
Y386560D01*
Y398811D01*
X842964Y393686D01*
X841550Y395100D01*
X840136Y393686D01*
X835010Y398811D01*
Y386560D01*
Y373408D01*
X805185D01*
X792326Y386268D01*
X793216Y387169D01*
X795311Y386301D01*
X797579D01*
X799673Y387169D01*
X800373Y387868D01*
X800501Y387950D01*
X800768Y388206D01*
X800991Y388394D01*
X801209Y388553D01*
X801420Y388683D01*
X801626Y388789D01*
X801827Y388873D01*
X802027Y388936D01*
X802228Y388980D01*
X802327Y388993D01*
X809301D01*
X810452Y389222D01*
X811428Y389874D01*
X819527Y397973D01*
X820179Y398949D01*
X820408Y400100D01*
X820408Y400100D01*
Y406553D01*
X838560D01*
Y405713D01*
X848411D01*
X845986Y408138D01*
X848814Y410967D01*
X851240Y408541D01*
Y418802D01*
X852517D01*
X852529Y418727D01*
D02*
G37*
G36*
X1283404Y414349D02*
X1286482Y410853D01*
X1286852Y410291D01*
X1287062Y409854D01*
X1287113Y409541D01*
X1287003Y409354D01*
X1286734Y409291D01*
X1276022D01*
X1275991Y409291D01*
X1275164Y408465D01*
X1275024Y408622D01*
X1274934Y408762D01*
X1274894Y408886D01*
X1274905Y408994D01*
X1274965Y409085D01*
X1275076Y409159D01*
X1275237Y409217D01*
X1275449Y409258D01*
X1275710Y409283D01*
X1275991Y409291D01*
X1282236Y415536D01*
X1283404Y414349D01*
D02*
G37*
G36*
X892811Y402400D02*
X892504Y402694D01*
X892191Y402958D01*
X891872Y403190D01*
X891728Y403279D01*
Y402700D01*
X891703Y402937D01*
X891627Y403150D01*
X891501Y403337D01*
X891324Y403500D01*
X891246Y403546D01*
X891216Y403562D01*
X890878Y403702D01*
X890535Y403810D01*
X890195Y403885D01*
X890169Y403890D01*
X890062Y403904D01*
X889679Y403937D01*
X889198Y403950D01*
Y406450D01*
X889679Y406462D01*
X890062Y406496D01*
X890169Y406510D01*
X890195Y406514D01*
X890535Y406589D01*
X890878Y406698D01*
X891216Y406837D01*
X891246Y406853D01*
X891324Y406900D01*
X891501Y407062D01*
X891627Y407250D01*
X891703Y407462D01*
X891728Y407700D01*
Y407120D01*
X891872Y407209D01*
X892191Y407442D01*
X892504Y407705D01*
X892811Y408000D01*
Y402400D01*
D02*
G37*
G36*
X1194598Y413622D02*
X1194630Y413621D01*
X1207671D01*
X1207713Y413553D01*
X1207607Y413348D01*
X1207353Y413007D01*
X1206951Y412529D01*
X1203860Y409252D01*
X1201426Y406795D01*
X1194598Y413622D01*
X1194533Y413623D01*
X1194452Y413631D01*
X1194387Y413643D01*
X1194336Y413660D01*
X1194301Y413682D01*
X1194281Y413709D01*
X1194277Y413741D01*
X1194287Y413778D01*
X1194313Y413819D01*
X1194354Y413866D01*
X1194598Y413622D01*
D02*
G37*
G36*
X843666Y408258D02*
X843662Y408183D01*
X843650Y405783D01*
X841150D01*
X841130Y408283D01*
X843670D01*
X843666Y408258D01*
D02*
G37*
G36*
X818666D02*
X818662Y408183D01*
X818650Y405783D01*
X816150D01*
X816130Y408283D01*
X818670D01*
X818666Y408258D01*
D02*
G37*
G36*
X813666D02*
X813662Y408183D01*
X813650Y405783D01*
X811150D01*
X811131Y408283D01*
X813670D01*
X813666Y408258D01*
D02*
G37*
G36*
X976051Y408390D02*
X976554Y408108D01*
X977160Y407860D01*
X977868Y407645D01*
X977869Y407645D01*
Y408300D01*
X977895Y408062D01*
X977970Y407850D01*
X978094Y407662D01*
X978191Y407573D01*
X978679Y407463D01*
X979593Y407314D01*
X981727Y407116D01*
X984271Y407050D01*
Y404550D01*
X982948Y404533D01*
X979593Y404285D01*
X978679Y404136D01*
X978191Y404026D01*
X978094Y403937D01*
X977970Y403750D01*
X977895Y403537D01*
X977869Y403300D01*
Y403954D01*
X977868Y403954D01*
X977160Y403739D01*
X976554Y403491D01*
X976051Y403210D01*
X975650Y402895D01*
Y408704D01*
X976051Y408390D01*
D02*
G37*
G36*
X799464Y404206D02*
X799777Y403942D01*
X800096Y403709D01*
X800421Y403508D01*
X800752Y403338D01*
X801089Y403198D01*
X801433Y403089D01*
X801782Y403012D01*
X802138Y402966D01*
X802500Y402950D01*
Y400450D01*
X802138Y400434D01*
X801782Y400388D01*
X801433Y400311D01*
X801089Y400202D01*
X800752Y400062D01*
X800421Y399892D01*
X800096Y399691D01*
X799777Y399458D01*
X799464Y399194D01*
X799157Y398900D01*
Y404500D01*
X799464Y404206D01*
D02*
G37*
G36*
X889210Y438046D02*
Y433753D01*
X889116D01*
X887021Y432886D01*
X885418Y431282D01*
X884550Y429187D01*
Y426920D01*
X885418Y424825D01*
X887021Y423221D01*
X889116Y422353D01*
X891384D01*
X891468Y422298D01*
Y412740D01*
X889128D01*
Y406061D01*
Y399022D01*
X887858Y398496D01*
X878008Y408346D01*
Y413500D01*
X877779Y414651D01*
X877127Y415627D01*
X874927Y417827D01*
X874973Y418012D01*
X875550Y419000D01*
X877484D01*
X879579Y419868D01*
X881182Y421471D01*
X882050Y423566D01*
Y425834D01*
X881182Y427929D01*
X879579Y429532D01*
X877484Y430400D01*
X875216D01*
X874808Y430231D01*
X874697Y430207D01*
X874484Y430182D01*
X874297Y430178D01*
X874134Y430192D01*
X873987Y430222D01*
X873849Y430266D01*
X873713Y430327D01*
X873574Y430409D01*
X873499Y430465D01*
X871343Y432621D01*
X871829Y433795D01*
X878802D01*
X879954Y434024D01*
X880929Y434676D01*
X884017Y437764D01*
X884097Y437825D01*
X884270Y437935D01*
X884456Y438032D01*
X884657Y438115D01*
X884878Y438186D01*
X885120Y438243D01*
X885386Y438285D01*
X885677Y438310D01*
X886046Y438317D01*
X886194Y438350D01*
X887184D01*
X888154Y438752D01*
X889210Y438046D01*
D02*
G37*
G36*
X991162Y399589D02*
X991200Y399159D01*
X991262Y398779D01*
X991350Y398450D01*
X991462Y398172D01*
X991600Y397944D01*
X991762Y397767D01*
X991950Y397640D01*
X992162Y397564D01*
X992400Y397539D01*
X987400D01*
X987637Y397564D01*
X987850Y397640D01*
X988037Y397767D01*
X988200Y397944D01*
X988337Y398172D01*
X988450Y398450D01*
X988537Y398779D01*
X988600Y399159D01*
X988637Y399589D01*
X988650Y400070D01*
X991150D01*
X991162Y399589D01*
D02*
G37*
G36*
X859812Y403109D02*
X860055Y399836D01*
X860113Y399695D01*
X860250Y399469D01*
X860413Y399295D01*
X860600Y399170D01*
X860813Y399095D01*
X861050Y399070D01*
X860119D01*
X860241Y398410D01*
X860401Y397791D01*
X860585Y397278D01*
X860793Y396872D01*
X861026Y396573D01*
X856074D01*
X856307Y396872D01*
X856515Y397278D01*
X856699Y397791D01*
X856859Y398410D01*
X856981Y399070D01*
X856050D01*
X856288Y399095D01*
X856500Y399170D01*
X856687Y399295D01*
X856850Y399469D01*
X856988Y399695D01*
X857080Y399921D01*
X857190Y400909D01*
X857288Y403109D01*
X857300Y404369D01*
X859800D01*
X859812Y403109D01*
D02*
G37*
G36*
X956861Y388350D02*
X956809Y388825D01*
X956657Y389250D01*
X956405Y389625D01*
X956052Y389950D01*
X955599Y390225D01*
X955046Y390450D01*
X954393Y390625D01*
X953639Y390750D01*
X953283Y390781D01*
X952420Y390718D01*
X951769Y390615D01*
X951219Y390483D01*
X950770Y390321D01*
X950419Y390130D01*
X950170Y389910D01*
X950020Y389660D01*
X949969Y389380D01*
Y397320D01*
X950020Y397040D01*
X950170Y396791D01*
X950419Y396570D01*
X950770Y396379D01*
X951219Y396217D01*
X951769Y396085D01*
X952420Y395982D01*
X953169Y395909D01*
X953224Y395907D01*
X953631Y395939D01*
X954380Y396050D01*
X955031Y396205D01*
X955581Y396405D01*
X956031Y396649D01*
X956380Y396938D01*
X956630Y397271D01*
X956780Y397648D01*
X956831Y398069D01*
X956861Y388350D01*
D02*
G37*
G36*
X1230203Y400341D02*
X1229814Y399681D01*
X1229471Y398887D01*
X1229174Y397958D01*
X1228922Y396894D01*
X1228716Y395696D01*
X1228441Y392897D01*
X1228373Y391295D01*
X1228350Y389559D01*
X1225850D01*
X1225827Y391295D01*
X1225484Y395696D01*
X1225278Y396894D01*
X1225026Y397958D01*
X1224729Y398887D01*
X1224386Y399681D01*
X1223997Y400341D01*
X1223562Y400867D01*
X1230638D01*
X1230203Y400341D01*
D02*
G37*
G36*
X1241964Y394706D02*
X1242277Y394442D01*
X1242596Y394210D01*
X1242921Y394008D01*
X1243252Y393838D01*
X1243589Y393698D01*
X1243933Y393590D01*
X1244282Y393512D01*
X1244638Y393465D01*
X1245000Y393450D01*
Y390950D01*
X1244638Y390934D01*
X1244282Y390888D01*
X1243933Y390811D01*
X1243589Y390702D01*
X1243252Y390563D01*
X1242921Y390392D01*
X1242596Y390191D01*
X1242277Y389958D01*
X1241964Y389695D01*
X1241657Y389400D01*
Y395000D01*
X1241964Y394706D01*
D02*
G37*
G36*
X927030Y389380D02*
X926981Y389650D01*
X926831Y389892D01*
X926581Y390104D01*
X926230Y390289D01*
X925780Y390445D01*
X925230Y390573D01*
X924581Y390672D01*
X923830Y390743D01*
X922030Y390800D01*
Y395800D01*
X922980Y395815D01*
X924581Y395937D01*
X925230Y396043D01*
X925780Y396180D01*
X926230Y396347D01*
X926581Y396545D01*
X926831Y396772D01*
X926981Y397031D01*
X927030Y397320D01*
Y389380D01*
D02*
G37*
G36*
X893229Y389300D02*
X893203Y389538D01*
X893127Y389750D01*
X893001Y389938D01*
X892824Y390100D01*
X892596Y390238D01*
X892318Y390350D01*
X891989Y390438D01*
X891609Y390500D01*
X891179Y390537D01*
X890698Y390550D01*
Y393050D01*
X891179Y393063D01*
X891609Y393100D01*
X891989Y393162D01*
X892318Y393250D01*
X892596Y393363D01*
X892824Y393500D01*
X893001Y393662D01*
X893127Y393850D01*
X893203Y394062D01*
X893229Y394300D01*
Y389300D01*
D02*
G37*
G36*
X799608Y394507D02*
X799921Y394243D01*
X800240Y394011D01*
X800565Y393809D01*
X800897Y393639D01*
X801234Y393499D01*
X801578Y393391D01*
X801927Y393313D01*
X802283Y393267D01*
X802644Y393251D01*
Y390751D01*
X802283Y390736D01*
X801927Y390689D01*
X801578Y390612D01*
X801234Y390503D01*
X800897Y390364D01*
X800565Y390193D01*
X800240Y389992D01*
X799921Y389759D01*
X799608Y389496D01*
X799301Y389201D01*
Y394801D01*
X799608Y394507D01*
D02*
G37*
G36*
X767243Y389100D02*
X766936Y389394D01*
X766624Y389658D01*
X766304Y389891D01*
X765979Y390092D01*
X765648Y390262D01*
X765311Y390402D01*
X764967Y390510D01*
X764618Y390588D01*
X764262Y390634D01*
X763900Y390650D01*
Y393150D01*
X764262Y393166D01*
X764618Y393212D01*
X764967Y393289D01*
X765311Y393398D01*
X765648Y393537D01*
X765979Y393708D01*
X766304Y393909D01*
X766624Y394142D01*
X766936Y394406D01*
X767243Y394700D01*
Y389100D01*
D02*
G37*
G36*
X915187Y396180D02*
X915337Y396101D01*
X915587Y396030D01*
X915937Y395969D01*
X916387Y395917D01*
X918337Y395819D01*
X920137Y395800D01*
Y390800D01*
X919187Y390775D01*
X918337Y390700D01*
X917587Y390575D01*
X916937Y390400D01*
X916387Y390175D01*
X915937Y389900D01*
X915587Y389575D01*
X915337Y389200D01*
X915187Y388775D01*
X915137Y388300D01*
Y396269D01*
X915187Y396180D01*
D02*
G37*
G36*
X1015872Y389389D02*
X1014089Y386655D01*
X1013897Y386264D01*
X1013760Y385924D01*
X1013677Y385636D01*
X1013650Y385400D01*
X1011150D01*
X1011123Y385636D01*
X1011040Y385924D01*
X1010903Y386264D01*
X1010711Y386655D01*
X1010163Y387593D01*
X1009395Y388738D01*
X1008407Y390091D01*
X1016393D01*
X1015872Y389389D01*
D02*
G37*
G36*
X981769Y388130D02*
X980962Y388081D01*
X980135Y387933D01*
X979289Y387685D01*
X978424Y387338D01*
X977540Y386893D01*
X976637Y386349D01*
X975714Y385705D01*
X974772Y384963D01*
X972831Y383181D01*
X966406Y386656D01*
X967816Y388106D01*
X971158Y392046D01*
X971974Y393221D01*
X972643Y394328D01*
X973162Y395367D01*
X973533Y396336D01*
X973756Y397237D01*
X973830Y398069D01*
X981769Y388130D01*
D02*
G37*
G36*
X845055Y391240D02*
X845196Y389131D01*
X845519D01*
X845430Y389061D01*
X845350Y388851D01*
X845280Y388501D01*
X845253Y388283D01*
X845430Y385639D01*
X845519Y385569D01*
X845108D01*
X845050Y382131D01*
X838050D01*
X838045Y383461D01*
X837904Y385569D01*
X837580D01*
X837670Y385639D01*
X837749Y385849D01*
X837820Y386199D01*
X837847Y386417D01*
X837670Y389061D01*
X837580Y389131D01*
X837992D01*
X838050Y392570D01*
X845050D01*
X845055Y391240D01*
D02*
G37*
G36*
X1251925Y385521D02*
X1252150Y384713D01*
X1252288Y384339D01*
X1252441Y383984D01*
X1252612Y383650D01*
X1252799Y383335D01*
X1253002Y383041D01*
X1253222Y382766D01*
X1253459Y382511D01*
X1252045Y380390D01*
X1251770Y380640D01*
X1251481Y380856D01*
X1251179Y381037D01*
X1250863Y381184D01*
X1250534Y381295D01*
X1250191Y381371D01*
X1249835Y381413D01*
X1249464Y381419D01*
X1249081Y381391D01*
X1248683Y381328D01*
X1251837Y385955D01*
X1251925Y385521D01*
D02*
G37*
G36*
X905366Y383188D02*
X905412Y382832D01*
X905490Y382483D01*
X905598Y382139D01*
X905738Y381802D01*
X905908Y381471D01*
X906109Y381146D01*
X906342Y380826D01*
X906606Y380513D01*
X906900Y380207D01*
X901300D01*
X901594Y380513D01*
X901858Y380826D01*
X902091Y381146D01*
X902292Y381471D01*
X902462Y381802D01*
X902602Y382139D01*
X902710Y382483D01*
X902788Y382832D01*
X902834Y383188D01*
X902850Y383550D01*
X905350D01*
X905366Y383188D01*
D02*
G37*
%LPC*%
G36*
X809777Y511540D02*
X802354D01*
X806065Y507828D01*
X809777Y511540D01*
D02*
G37*
G36*
X826677Y506027D02*
X824823D01*
X823033Y505548D01*
X822390Y505176D01*
X825750Y501816D01*
X829110Y505177D01*
X828467Y505548D01*
X826677Y506027D01*
D02*
G37*
G36*
X769305Y508712D02*
X765094Y504500D01*
X769305Y500288D01*
Y508712D01*
D02*
G37*
G36*
X819561Y502348D02*
X819190Y501705D01*
X818710Y499914D01*
Y498061D01*
X819190Y496270D01*
X819561Y495627D01*
X822922Y498988D01*
X819561Y502348D01*
D02*
G37*
G36*
X825750Y496159D02*
X822390Y492799D01*
X823033Y492427D01*
X824823Y491948D01*
X826677D01*
X828467Y492427D01*
X829110Y492799D01*
X825750Y496159D01*
D02*
G37*
G36*
X758984Y493312D02*
X755022Y489350D01*
X758984Y485388D01*
Y493312D01*
D02*
G37*
G36*
X1166482Y480210D02*
X1160059D01*
X1163270Y476998D01*
X1166482Y480210D01*
D02*
G37*
G36*
X1163270Y474170D02*
X1162270Y473170D01*
X1163270Y472170D01*
X1164270Y473170D01*
X1163270Y474170D01*
D02*
G37*
G36*
X1249360Y472472D02*
Y472168D01*
X1249512Y472320D01*
X1249360Y472472D01*
D02*
G37*
G36*
X1238848Y474699D02*
X1236469Y472320D01*
X1238848Y469941D01*
Y474699D01*
D02*
G37*
G36*
X1221220Y475211D02*
Y469429D01*
X1224112Y472320D01*
X1221220Y475211D01*
D02*
G37*
G36*
X1169310Y477381D02*
X1165098Y473170D01*
X1169310Y468958D01*
Y477381D01*
D02*
G37*
G36*
X1241930Y467729D02*
X1241860Y467724D01*
X1241187Y467601D01*
X1241930Y466859D01*
Y467729D01*
D02*
G37*
G36*
X1244050Y467823D02*
Y466858D01*
X1244871Y467679D01*
X1244677Y467724D01*
X1244050Y467823D01*
D02*
G37*
G36*
X1218650Y467787D02*
Y466858D01*
X1219433Y467641D01*
X1218720Y467778D01*
X1218650Y467787D01*
D02*
G37*
G36*
X1163270Y469342D02*
X1160059Y466130D01*
X1166482D01*
X1163270Y469342D01*
D02*
G37*
G36*
X1239102Y480610D02*
X1221479D01*
X1228354Y473734D01*
X1226940Y472320D01*
X1228354Y470906D01*
X1221479Y464030D01*
X1239102D01*
X1232226Y470906D01*
X1233640Y472320D01*
X1232226Y473734D01*
X1239102Y480610D01*
D02*
G37*
G36*
X1387906Y515500D02*
X1384694D01*
X1381591Y514669D01*
X1378809Y513062D01*
X1376538Y510791D01*
X1374931Y508009D01*
X1374100Y504906D01*
Y501694D01*
X1374931Y498591D01*
X1376538Y495809D01*
X1378809Y493538D01*
X1381591Y491931D01*
X1384694Y491100D01*
X1387906D01*
X1391009Y491931D01*
X1393791Y493538D01*
X1396062Y495809D01*
X1397669Y498591D01*
X1398500Y501694D01*
Y504906D01*
X1397669Y508009D01*
X1396062Y510791D01*
X1393791Y513062D01*
X1391009Y514669D01*
X1387906Y515500D01*
D02*
G37*
G36*
X718006Y515402D02*
X714794D01*
X711691Y514570D01*
X708909Y512964D01*
X706638Y510693D01*
X705031Y507911D01*
X704200Y504808D01*
Y501595D01*
X705031Y498493D01*
X706638Y495711D01*
X708909Y493439D01*
X711691Y491833D01*
X714794Y491002D01*
X718006D01*
X721109Y491833D01*
X723891Y493439D01*
X726162Y495711D01*
X727769Y498493D01*
X728600Y501595D01*
Y504808D01*
X727769Y507911D01*
X726162Y510693D01*
X723891Y512964D01*
X721109Y514570D01*
X718006Y515402D01*
D02*
G37*
G36*
X707134Y479900D02*
X704866D01*
X702771Y479032D01*
X702269Y478530D01*
X701865Y478363D01*
X700152Y477048D01*
X698837Y475335D01*
X698011Y473341D01*
X697729Y471200D01*
Y433300D01*
X698011Y431159D01*
X698837Y429165D01*
X700152Y427452D01*
X701865Y426137D01*
X703859Y425311D01*
X706000Y425029D01*
X708141Y425311D01*
X710135Y426137D01*
X711848Y427452D01*
X713163Y429165D01*
X713989Y431159D01*
X714271Y433300D01*
Y471200D01*
X713989Y473341D01*
X713163Y475335D01*
X711848Y477048D01*
X710135Y478363D01*
X709731Y478530D01*
X709229Y479032D01*
X707134Y479900D01*
D02*
G37*
G36*
X718006Y398806D02*
X714794D01*
X711691Y397974D01*
X708909Y396368D01*
X706638Y394096D01*
X705031Y391315D01*
X704200Y388212D01*
Y384999D01*
X705031Y381897D01*
X706638Y379114D01*
X708909Y376843D01*
X711691Y375237D01*
X714794Y374406D01*
X718006D01*
X721109Y375237D01*
X723891Y376843D01*
X726162Y379114D01*
X727769Y381897D01*
X728600Y384999D01*
Y388212D01*
X727769Y391315D01*
X726162Y394096D01*
X723891Y396368D01*
X721109Y397974D01*
X718006Y398806D01*
D02*
G37*
G36*
X1387906Y398698D02*
X1384694D01*
X1381591Y397867D01*
X1378809Y396261D01*
X1376538Y393989D01*
X1374931Y391207D01*
X1374100Y388105D01*
Y384892D01*
X1374931Y381789D01*
X1376538Y379007D01*
X1378809Y376736D01*
X1381591Y375130D01*
X1384694Y374298D01*
X1387906D01*
X1391009Y375130D01*
X1393791Y376736D01*
X1396062Y379007D01*
X1397669Y381789D01*
X1398500Y384892D01*
Y388105D01*
X1397669Y391207D01*
X1396062Y393989D01*
X1393791Y396261D01*
X1391009Y397867D01*
X1387906Y398698D01*
D02*
G37*
G36*
X1046070Y477382D02*
Y455959D01*
X1056782Y466670D01*
X1046070Y477382D01*
D02*
G37*
G36*
X1060110Y464342D02*
X1048898Y453130D01*
X1071322D01*
X1060110Y464342D01*
D02*
G37*
G36*
X976500Y449426D02*
X969889Y442815D01*
X972251Y440453D01*
X973990Y442090D01*
X974100Y442200D01*
X972686Y443614D01*
X977094Y448023D01*
X976624Y448294D01*
X976500Y448328D01*
Y449426D01*
D02*
G37*
G36*
X1056913Y446659D02*
X1056242Y445496D01*
X1055660Y443324D01*
Y441076D01*
X1056242Y438904D01*
X1056913Y437742D01*
X1061372Y442200D01*
X1056913Y446659D01*
D02*
G37*
G36*
X949830Y449426D02*
X943219Y442815D01*
X949830Y436203D01*
Y449426D01*
D02*
G37*
G36*
X953220Y449427D02*
Y436203D01*
X959832Y442815D01*
X953220Y449427D01*
D02*
G37*
G36*
X973672Y452255D02*
X956049D01*
X964074Y444229D01*
X962660Y442815D01*
X964074Y441401D01*
X956049Y433375D01*
X964730D01*
X969336Y437710D01*
X965646Y441401D01*
X967060Y442815D01*
X965646Y444229D01*
X973672Y452255D01*
D02*
G37*
G36*
X1091630Y431987D02*
X1091230D01*
X1091430Y431787D01*
X1091630Y431987D01*
D02*
G37*
G36*
X1048641Y430373D02*
X1048626Y430370D01*
X1048550D01*
X1048548Y430370D01*
X1048541Y430370D01*
X1046910D01*
Y430283D01*
X1029859Y429371D01*
X1009310D01*
X1006256Y428969D01*
X1006071Y428893D01*
X990340D01*
Y406442D01*
X1005601D01*
X1006256Y406171D01*
X1009310Y405769D01*
X1033297D01*
X1043572Y405620D01*
X1046672Y405418D01*
X1046910Y405387D01*
Y404970D01*
X1048626D01*
X1048641Y404967D01*
X1048655Y404970D01*
X1057930D01*
X1057937Y404969D01*
Y404970D01*
X1073310D01*
Y430370D01*
X1048655D01*
X1048641Y430373D01*
D02*
G37*
G36*
X1098420Y434988D02*
X1098362Y434922D01*
X1097026Y433261D01*
X1096812Y432935D01*
X1096645Y432644D01*
X1096525Y432389D01*
X1096454Y432170D01*
X1096430Y431987D01*
X1094058D01*
X1098420Y427625D01*
Y434988D01*
D02*
G37*
G36*
X1084440D02*
Y427625D01*
X1088802Y431987D01*
X1086430D01*
X1086406Y432170D01*
X1086335Y432389D01*
X1086215Y432644D01*
X1086049Y432935D01*
X1085834Y433261D01*
X1085262Y434021D01*
X1084499Y434922D01*
X1084440Y434988D01*
D02*
G37*
G36*
X1091430Y428958D02*
X1087268Y424797D01*
X1095592D01*
X1091430Y428958D01*
D02*
G37*
G36*
X942320Y428192D02*
X925712D01*
Y419204D01*
X942320D01*
Y428192D01*
D02*
G37*
G36*
X980440Y426511D02*
X976729Y422800D01*
X980440Y419088D01*
Y426511D01*
D02*
G37*
G36*
X974783Y419088D02*
X974365Y419012D01*
X973627Y418729D01*
X972791Y418279D01*
X971859Y417662D01*
X970830Y416879D01*
X970127Y416260D01*
X977612D01*
X974783Y419088D01*
D02*
G37*
G36*
X1096680Y418370D02*
X1085280D01*
Y413993D01*
X1084800Y412834D01*
Y410566D01*
X1085280Y409408D01*
Y404970D01*
X1096680D01*
Y418370D01*
D02*
G37*
G36*
X1038111Y400140D02*
X1031688D01*
X1034900Y396928D01*
X1038111Y400140D01*
D02*
G37*
G36*
X1034900Y394100D02*
X1033900Y393100D01*
X1034900Y392100D01*
X1035900Y393100D01*
X1034900Y394100D01*
D02*
G37*
G36*
X1040940Y397312D02*
X1036728Y393100D01*
X1040940Y388889D01*
Y397312D01*
D02*
G37*
G36*
X1028860Y397312D02*
Y388889D01*
X1033072Y393100D01*
X1032042Y394129D01*
X1031430Y393034D01*
X1031518Y393282D01*
X1031527Y393574D01*
X1031458Y393908D01*
X1031310Y394285D01*
X1031085Y394706D01*
X1030780Y395169D01*
X1030397Y395676D01*
X1029701Y396470D01*
X1028860Y397312D01*
D02*
G37*
G36*
X1034900Y389272D02*
X1031688Y386060D01*
X1038111D01*
X1034900Y389272D01*
D02*
G37*
%LPD*%
G36*
X1048641Y406701D02*
X1048440Y406866D01*
X1047840Y407014D01*
X1046841Y407144D01*
X1043641Y407353D01*
X1028641Y407570D01*
Y427570D01*
X1048641Y428639D01*
Y406701D01*
D02*
G37*
%LPC*%
G36*
X1322395Y409632D02*
Y400209D01*
X1327106Y404920D01*
X1322395Y409632D01*
D02*
G37*
G36*
X845262Y401640D02*
X837838D01*
X840320Y399159D01*
X840350Y399170D01*
X840537Y399295D01*
X840700Y399469D01*
X840837Y399695D01*
X840950Y399969D01*
X841038Y400294D01*
X841100Y400670D01*
X841137Y401095D01*
X841150Y401570D01*
X843650D01*
X843662Y401095D01*
X843700Y400670D01*
X843763Y400294D01*
X843795Y400173D01*
X845262Y401640D01*
D02*
G37*
G36*
X842691Y399070D02*
X840409D01*
X841550Y397928D01*
X842691Y399070D01*
D02*
G37*
%LPD*%
D10*
X753444Y504500D02*
Y504750D01*
Y489350D02*
Y504500D01*
X732045Y477104D02*
X732819Y477878D01*
Y495338D01*
X763265Y504500D02*
Y505500D01*
X799115Y511950D02*
X803315Y507750D01*
X803315D01*
X806065Y504000D02*
Y505000D01*
X769715Y511950D02*
X799115D01*
X763265Y505500D02*
X769715Y511950D01*
X803315Y507750D02*
X806065Y505000D01*
X753694Y504500D02*
X763265D01*
X1361585Y379925D02*
Y481485D01*
X1368300Y488200D01*
X1368535Y461800D02*
X1368535Y461800D01*
X1368535Y380935D02*
Y461800D01*
X883300Y410713D02*
Y431471D01*
X886832Y435003D01*
X897201D01*
X920536Y455264D02*
X920700Y455100D01*
X913914Y455264D02*
X920536D01*
X782000Y386400D02*
X802200Y366200D01*
X803940Y370400D02*
X997400D01*
X786626Y387713D02*
X803940Y370400D01*
X997400D02*
X1012400Y385400D01*
X904100Y377350D02*
Y414305D01*
X802200Y366200D02*
X1206200D01*
X1227100Y387100D01*
X782000Y386400D02*
Y422092D01*
X786626Y387713D02*
Y420779D01*
X1248952Y385250D02*
X1269002Y365200D01*
X1252100Y392200D02*
X1274900Y369400D01*
X1351060D01*
X1361585Y379925D01*
X1352800Y365200D02*
X1368535Y380935D01*
X1269002Y365200D02*
X1352800D01*
X753444Y504750D02*
X753694Y504500D01*
X732819Y495338D02*
X739230Y501750D01*
X739250D02*
X741000Y503500D01*
X739230Y501750D02*
X739250D01*
X741000Y503500D02*
Y504750D01*
X725400Y464800D02*
X733700D01*
X779165Y504500D02*
X779365Y504300D01*
X778265Y504500D02*
X779165D01*
X878802Y436802D02*
X886050Y444050D01*
X855550Y436802D02*
X878802D01*
X897201Y435003D02*
X904000Y441802D01*
X855550D02*
X873974D01*
X887027Y454855D01*
X894000D01*
X886278Y461549D02*
Y461999D01*
X855550Y446802D02*
X871531D01*
X866702Y451802D02*
X876500Y461600D01*
X871531Y446802D02*
X886278Y461549D01*
X894250Y455105D02*
Y455428D01*
X894000Y454855D02*
X894250Y455105D01*
X796445Y392001D02*
X809301D01*
X796300Y401700D02*
X810300D01*
X734000Y417700D02*
X759800Y391900D01*
X734000Y417700D02*
Y422000D01*
X759800Y391900D02*
X770100D01*
X734000Y444825D02*
Y451333D01*
Y438317D02*
Y444825D01*
X737825D01*
X734000Y451333D02*
Y451483D01*
X737825Y444825D02*
X740100Y447100D01*
X733700Y464800D02*
X734000Y464500D01*
X740100Y447100D02*
Y469800D01*
X1238800Y392200D02*
X1252100D01*
X1059964Y498127D02*
X1062427D01*
X1058100Y497800D02*
X1060100D01*
X809301Y392001D02*
X817400Y400100D01*
Y413652D01*
X810300Y401700D02*
X812400Y403800D01*
Y413652D01*
X782000Y422092D02*
X791711Y431802D01*
X786626Y420779D02*
X792644Y426797D01*
X796000Y412500D02*
X806247D01*
X740100Y469800D02*
X743800Y473500D01*
X758265D01*
X806247Y412500D02*
X807400Y413652D01*
X766700Y422103D02*
X767497Y422900D01*
X776868D01*
X1126000Y495300D02*
X1126385Y494915D01*
Y488014D02*
X1130500Y483900D01*
X1126385Y488014D02*
Y494915D01*
X1036192Y499800D02*
X1050600D01*
X1056850Y499050D02*
X1058100Y497800D01*
X1026292Y489900D02*
X1036192Y499800D01*
X1037132Y494800D02*
X1050600D01*
X1028031Y485700D02*
X1037132Y494800D01*
X1038071Y489800D02*
X1050600D01*
X1029771Y481500D02*
X1038071Y489800D01*
X855600Y461852D02*
X865853D01*
X855550Y461802D02*
X855600Y461852D01*
X865853D02*
X866000Y462000D01*
X855550Y451802D02*
X866702D01*
X832450Y477754D02*
X841399Y486702D01*
X837450Y476814D02*
X843138Y482503D01*
X841399Y486702D02*
X853401D01*
X842450Y475874D02*
X844878Y478302D01*
X843138Y482503D02*
X851662D01*
X849922Y478302D02*
X849924Y478300D01*
X883552Y471498D02*
X883700Y471350D01*
X851664Y482500D02*
X899560D01*
X851662Y482503D02*
X851664Y482500D01*
X844878Y478302D02*
X849922D01*
X849924Y478300D02*
X901300D01*
X897821Y486700D02*
X901021Y489900D01*
X880409Y471498D02*
X883552D01*
X899560Y482500D02*
X902760Y485700D01*
X853404Y486700D02*
X897821D01*
X853401Y486702D02*
X853404Y486700D01*
X901300Y478300D02*
X904500Y481500D01*
X901021Y489900D02*
X1026292D01*
X902760Y485700D02*
X1028031D01*
X880264Y471353D02*
X880409Y471498D01*
X847450Y471353D02*
X880264D01*
X904500Y481500D02*
X1029771D01*
X1130500Y483900D02*
X1152540D01*
X1160020Y476420D01*
X1161020D02*
X1163270Y474170D01*
X1160020Y476420D02*
X1161020D01*
X1247900Y385250D02*
X1248952D01*
X1227100Y387100D02*
Y404400D01*
X902553Y415852D02*
X904100Y414305D01*
X1038100Y480000D02*
X1042900Y484800D01*
X1038100Y479200D02*
Y480000D01*
X1042900Y484800D02*
X1050600D01*
X847400Y469953D02*
Y471302D01*
X842450Y470003D02*
Y475874D01*
X847400Y471302D02*
X847450Y471353D01*
X842400Y469953D02*
X842450Y470003D01*
X883300Y410713D02*
X888814Y405200D01*
X867908Y431802D02*
X875010Y424700D01*
X855550Y431802D02*
X867908D01*
X875010Y424700D02*
X876350D01*
X875000Y407100D02*
X890300Y391800D01*
X855600Y426753D02*
X861748D01*
X875000Y413500D01*
X855550Y426802D02*
X855600Y426753D01*
X875000Y407100D02*
Y413500D01*
X1163270Y473170D02*
Y474170D01*
X1064100Y499800D02*
X1069600D01*
X1062427Y498127D02*
X1064100Y499800D01*
X832450Y470003D02*
Y477754D01*
X832400Y469953D02*
X832450Y470003D01*
X837450D02*
Y476814D01*
X837400Y469953D02*
X837450Y470003D01*
X890300Y391800D02*
X896667D01*
X888814Y405200D02*
X895667D01*
X815700Y483025D02*
Y484513D01*
X812400Y479725D02*
X815700Y483025D01*
X812400Y469953D02*
Y479725D01*
X1012400Y385400D02*
Y393100D01*
X898917Y415852D02*
X902553D01*
X896667Y418102D02*
X898917Y415852D01*
X896667Y418102D02*
Y418300D01*
X913750Y455428D02*
X913914Y455264D01*
X827400Y441802D02*
X827400D01*
X799250D02*
X827400D01*
X984271Y405800D02*
X989900Y400171D01*
Y393100D02*
Y400171D01*
X992911Y403100D02*
X1024900D01*
X972900Y405800D02*
X984271D01*
X984700Y411311D02*
Y442170D01*
Y411311D02*
X992911Y403100D01*
X1024900D02*
X1031650Y396350D01*
X1034900Y393100D02*
Y394100D01*
X1032650Y396350D02*
X1034900Y394100D01*
X1031650Y396350D02*
X1032650D01*
X776868Y422900D02*
X790721Y436753D01*
X791711Y431802D02*
X799250D01*
X792644Y426797D02*
X794665D01*
X799200Y426753D02*
X799250Y426802D01*
X785931Y437902D02*
X789831Y441802D01*
X777800Y437902D02*
X785931D01*
X790721Y436753D02*
X799200D01*
X786491Y446802D02*
X799250D01*
X784541Y444852D02*
X786491Y446802D01*
X789831Y441802D02*
X799250D01*
X783053Y444852D02*
X784541D01*
X773900Y441802D02*
X777800Y437902D01*
X799200Y436753D02*
X799250Y436802D01*
X780174Y451802D02*
X799250D01*
X775971Y447600D02*
X780174Y451802D01*
X754800Y447600D02*
X775971D01*
X765900Y441802D02*
X773900D01*
X807400Y469953D02*
Y488470D01*
Y469953D02*
X807450Y469902D01*
X789030Y484670D02*
Y490100D01*
Y484670D02*
X799250Y474450D01*
X807450Y464474D02*
Y469902D01*
X811585Y457617D02*
X827400Y441802D01*
X807600Y461603D02*
Y464324D01*
Y461603D02*
X810150Y459053D01*
X811585Y457617D02*
Y457617D01*
X807450Y464474D02*
X807600Y464324D01*
X810150Y459053D02*
X810150D01*
X811585Y457617D01*
X799250Y461802D02*
Y474450D01*
X758265Y472500D02*
X768963Y461802D01*
X799250D01*
X758265Y472500D02*
Y473500D01*
X752500Y445300D02*
X754800Y447600D01*
X752500Y435600D02*
Y445300D01*
X855550Y416350D02*
X858550Y413350D01*
Y394100D02*
Y413350D01*
X855550Y416350D02*
Y421802D01*
X842400Y394950D02*
Y413652D01*
X841550Y394100D02*
X842400Y394950D01*
X827400Y441802D02*
X842400Y426802D01*
Y413652D02*
Y426802D01*
Y413652D02*
X847400D01*
X827400Y441802D02*
X842400Y456802D01*
X855550D01*
X774650Y454650D02*
X776803Y456802D01*
X773900Y453802D02*
X774650Y454552D01*
Y454650D01*
X776803Y456802D02*
X799250D01*
X765900Y453802D02*
X773900D01*
X752500Y435600D02*
X757150Y430950D01*
X757900Y429803D02*
X765900D01*
X757150Y430552D02*
X757900Y429803D01*
X757150Y430552D02*
Y430950D01*
D11*
X1075900Y484800D02*
X1078400Y482300D01*
X1013800Y499900D02*
X1013900Y499800D01*
X1013800Y499900D02*
Y500700D01*
X1069600Y484800D02*
X1075900D01*
X1069600Y489800D02*
X1091200D01*
X1070600Y494800D02*
X1083100D01*
X1083800Y495500D01*
X911667Y418300D02*
Y419300D01*
X899900Y469000D02*
X906400Y475500D01*
X932885D01*
X938190Y470195D01*
X896400Y466500D02*
X898900Y469000D01*
X896400Y465500D02*
Y466500D01*
X898900Y469000D02*
X899900D01*
X896400Y464500D02*
Y465500D01*
X909007Y421300D02*
X909668D01*
X907250Y423057D02*
X909007Y421300D01*
X909668D02*
X911667Y419300D01*
X908750Y441721D02*
X913750Y436721D01*
Y428177D02*
Y436721D01*
X900750Y423057D02*
Y428177D01*
X896667Y418300D02*
Y419300D01*
X898668Y421300D01*
X898993D01*
X900750Y423057D01*
X907250D02*
Y428177D01*
X900750Y455428D02*
Y460243D01*
X898993Y462000D02*
X900750Y460243D01*
X898900Y462000D02*
X898993D01*
X896400Y464500D02*
X898900Y462000D01*
X907250Y459350D02*
X909900Y462000D01*
X913400Y464500D02*
Y465500D01*
X910900Y462000D02*
X913400Y464500D01*
X909900Y462000D02*
X910900D01*
X907250Y455428D02*
Y459350D01*
Y443221D02*
X908750Y441721D01*
X907250Y443221D02*
Y455428D01*
D16*
X1171870Y435610D02*
D03*
X1186870D02*
D03*
Y420610D02*
D03*
X1171870D02*
D03*
Y450610D02*
D03*
X1186870D02*
D03*
D18*
X1050600Y484800D02*
D03*
Y489800D02*
D03*
Y494800D02*
D03*
Y499800D02*
D03*
X1069600D02*
D03*
Y494800D02*
D03*
Y489800D02*
D03*
Y484800D02*
D03*
D19*
X938190Y442815D02*
D03*
Y470195D02*
D03*
X964860Y442815D02*
D03*
Y470195D02*
D03*
D20*
X789065Y504000D02*
D03*
X806065D02*
D03*
X912667Y405200D02*
D03*
X895667D02*
D03*
X977800Y393100D02*
D03*
X960800D02*
D03*
X996900Y499800D02*
D03*
X1013900D02*
D03*
X1090980Y411670D02*
D03*
X1107980D02*
D03*
X983100Y499800D02*
D03*
X966100D02*
D03*
X789030Y490100D02*
D03*
X806030D02*
D03*
X896400Y465500D02*
D03*
X913400D02*
D03*
X858550Y394100D02*
D03*
X841550D02*
D03*
X858550Y380600D02*
D03*
X841550D02*
D03*
D21*
X765900Y429803D02*
D03*
Y441802D02*
D03*
Y453802D02*
D03*
D22*
X972900Y405800D02*
D03*
Y422800D02*
D03*
D23*
X1227100Y404400D02*
D03*
X1239544D02*
D03*
X741000Y489350D02*
D03*
X753444D02*
D03*
X1239544Y420700D02*
D03*
X1227100D02*
D03*
X746444Y464500D02*
D03*
X734000D02*
D03*
X746444Y438167D02*
D03*
X734000D02*
D03*
Y425000D02*
D03*
X746444D02*
D03*
X741000Y504750D02*
D03*
X753444D02*
D03*
X746444Y451333D02*
D03*
X734000D02*
D03*
D24*
X1148270Y473170D02*
D03*
X1163270D02*
D03*
X763265Y504500D02*
D03*
X778265D02*
D03*
X1034900Y393100D02*
D03*
X1019900D02*
D03*
X1105480Y473170D02*
D03*
X1090480D02*
D03*
X896667Y418300D02*
D03*
X911667D02*
D03*
X758265Y473500D02*
D03*
X773265D02*
D03*
X1105480Y452503D02*
D03*
X1090480D02*
D03*
X1004900Y393100D02*
D03*
X989900D02*
D03*
X896667Y391800D02*
D03*
X911667D02*
D03*
D25*
X957384Y404902D02*
D03*
Y414300D02*
D03*
Y423698D02*
D03*
X934016D02*
D03*
Y404902D02*
D03*
D26*
X799250Y461802D02*
D03*
Y456802D02*
D03*
Y451802D02*
D03*
Y446802D02*
D03*
Y441802D02*
D03*
Y436802D02*
D03*
Y431802D02*
D03*
Y426802D02*
D03*
Y421802D02*
D03*
X855550D02*
D03*
Y426802D02*
D03*
Y431802D02*
D03*
Y436802D02*
D03*
Y441802D02*
D03*
Y446802D02*
D03*
Y451802D02*
D03*
Y456802D02*
D03*
Y461802D02*
D03*
D27*
X812400Y413652D02*
D03*
X817400D02*
D03*
X822400D02*
D03*
X827400D02*
D03*
X832400D02*
D03*
X837400D02*
D03*
X842400D02*
D03*
X847400D02*
D03*
Y469953D02*
D03*
X842400D02*
D03*
X837400D02*
D03*
X832400D02*
D03*
X827400D02*
D03*
X822400D02*
D03*
X817400D02*
D03*
X812400D02*
D03*
X807400Y413652D02*
D03*
Y469953D02*
D03*
D28*
X827400Y441802D02*
D03*
D29*
X1006010Y468467D02*
D03*
Y417668D02*
D03*
D30*
X1204120Y416560D02*
D03*
Y429260D02*
D03*
Y441960D02*
D03*
Y454660D02*
D03*
X1154620D02*
D03*
Y441960D02*
D03*
Y429260D02*
D03*
Y416560D02*
D03*
D31*
X1179370Y435610D02*
D03*
D32*
X931000Y393350D02*
D03*
X946000D02*
D03*
D33*
X1230290Y442620D02*
D03*
Y472320D02*
D03*
X1255690Y442620D02*
D03*
Y472320D02*
D03*
D34*
X1116500Y495300D02*
D03*
X1126000D02*
D03*
X1135500D02*
D03*
X1116500Y469300D02*
D03*
X1135500D02*
D03*
D35*
X894250Y455428D02*
D03*
X900750D02*
D03*
X907250D02*
D03*
X913750D02*
D03*
X894250Y428177D02*
D03*
X913750D02*
D03*
X900750D02*
D03*
X907250D02*
D03*
D36*
X1106830Y431987D02*
D03*
X1091430D02*
D03*
D37*
X1329700Y501852D02*
D03*
Y381852D02*
D03*
D38*
X1282700Y479352D02*
D03*
Y464352D02*
D03*
Y449352D02*
D03*
Y434352D02*
D03*
Y419352D02*
D03*
Y404352D02*
D03*
D39*
X1060110Y417670D02*
D03*
Y466670D02*
D03*
D40*
X1338435Y479420D02*
D03*
Y404920D02*
D03*
D41*
X1306435Y460920D02*
D03*
Y448420D02*
D03*
Y423420D02*
D03*
Y435920D02*
D03*
D42*
X1060100Y492300D02*
D03*
D70*
X1057937Y416770D02*
G03*
X1060110Y417670I0J3073D01*
G01*
X942500Y466800D02*
X957384D01*
X958800D02*
X1000847D01*
X1077900Y442200D02*
X1091400D01*
X1179100Y440200D02*
Y468286D01*
X1060110Y442200D02*
Y465670D01*
X941035Y442170D02*
X984700D01*
X1002040Y467993D02*
X1006793D01*
X1000847Y466800D02*
X1002040Y467993D01*
X1064200Y442200D02*
X1077900D01*
X1091400D02*
X1091430Y442170D01*
X984700D02*
X1058840D01*
X1009310Y417570D02*
X1057937D01*
X1230290Y442620D02*
X1255616D01*
X1179090Y468296D02*
X1179100Y468286D01*
D71*
X904000Y441802D02*
D03*
D72*
X1109800Y508400D02*
X1278700D01*
X1339000Y435400D02*
Y448100D01*
X1278700Y508400D02*
X1339000Y448100D01*
X946000Y517400D02*
X954600Y508800D01*
X754112Y517400D02*
X946000D01*
X751412Y514700D02*
X754112Y517400D01*
X750600Y514700D02*
X751412D01*
X746444Y415750D02*
Y425000D01*
Y438167D01*
X746747Y456503D02*
Y464197D01*
X746444Y464500D02*
X746747Y464197D01*
Y456503D02*
X747050Y456200D01*
X1356135Y422629D02*
Y510665D01*
X1351700Y418200D02*
X1351706D01*
X1356135Y422629D01*
X945706Y393350D02*
Y414594D01*
X1106300Y490500D02*
X1111400Y495600D01*
X1116000D01*
X1116500Y495300D02*
Y495400D01*
X1116000Y495900D02*
X1116500Y495400D01*
X1116000Y495600D02*
Y495900D01*
X1105400Y517100D02*
X1349700D01*
X1091200Y489800D02*
X1109800Y508400D01*
X1083800Y495500D02*
X1105400Y517100D01*
X1349700D02*
X1356135Y510665D01*
X911667Y418300D02*
X913400D01*
X945706Y414594D02*
Y435299D01*
X944790Y436215D02*
Y438415D01*
X941035Y442170D02*
X944790Y438415D01*
Y436215D02*
X945706Y435299D01*
X938190Y442815D02*
X940390D01*
X941035Y442170D01*
X945706Y414594D02*
X957090D01*
X957384Y414300D01*
X911667Y391800D02*
Y392300D01*
X912667Y393300D02*
X929500D01*
X911667Y392300D02*
X912667Y393300D01*
X929550Y393350D02*
X931000D01*
X929500Y393300D02*
X929550Y393350D01*
X946000D02*
X960550D01*
X960800Y393100D01*
X970400Y420300D02*
Y421300D01*
X964694Y414594D02*
X970400Y420300D01*
X957678Y414594D02*
X964694D01*
X957384Y414300D02*
X957678Y414594D01*
X970400Y421300D02*
X971900Y422800D01*
X972900D01*
D73*
X706000Y433300D02*
Y471200D01*
X1135200Y467944D02*
Y471000D01*
D74*
X858550Y387350D02*
Y394100D01*
X1090400Y463100D02*
Y473090D01*
X806048Y495988D02*
X822209D01*
X807135Y498988D02*
X825750D01*
X966100Y499600D02*
Y499800D01*
X1116600Y469400D02*
Y477300D01*
X1116500Y469300D02*
X1116600Y469400D01*
Y477300D02*
X1116700Y477400D01*
X917496Y382098D02*
X966797D01*
X977300Y391600D02*
X977800Y392100D01*
Y393100D01*
X976300Y391600D02*
X977300D01*
X966797Y382098D02*
X976300Y391600D01*
X806048Y499246D02*
Y503983D01*
X806876Y499246D02*
X807135Y498988D01*
X806048Y490118D02*
Y495988D01*
X863463Y499200D02*
X966000D01*
X863250Y498988D02*
X863463Y499200D01*
X806030Y490100D02*
X806048Y490118D01*
Y503983D02*
X806065Y504000D01*
X841550Y380600D02*
Y394100D01*
D75*
X1090400Y473090D02*
X1090480Y473170D01*
X1241292Y404352D02*
X1282700D01*
X1304157Y408943D02*
X1306700Y406400D01*
X1281757Y408943D02*
X1304157D01*
X1258252Y419352D02*
X1282700D01*
X1278700Y412000D02*
X1281757Y408943D01*
X1282700Y419352D02*
X1288700D01*
X1282700Y404352D02*
X1288700D01*
X1291200Y470853D02*
Y479352D01*
X1196500Y473170D02*
X1230290D01*
Y473070D02*
X1238819D01*
X1154620Y429260D02*
X1173720D01*
X983100Y499800D02*
X996900D01*
X1163270Y473170D02*
X1196500D01*
X1288700Y434352D02*
X1309282D01*
X1284102D02*
X1288700D01*
X1291200Y470853D02*
X1301000Y461053D01*
X1282700Y479352D02*
X1291200D01*
X1306302Y461053D02*
X1306435Y460920D01*
X1301000Y461053D02*
X1306302D01*
X1288700Y449352D02*
X1302935D01*
X1282383Y473170D02*
X1282700Y472853D01*
Y479352D01*
X1255690Y472320D02*
X1256440Y473070D01*
X1264219D01*
X1264319Y473170D01*
X1264322Y473167D01*
X1273770Y473170D02*
X1282383D01*
X1264322Y473167D02*
X1273770D01*
X1283452Y434352D02*
X1284102D01*
Y434373D01*
X1227100Y414700D02*
Y420700D01*
Y404400D02*
Y414700D01*
X1203760Y416200D02*
X1208900D01*
X957384Y468384D02*
X958800Y469800D01*
X1060100Y492300D02*
Y497800D01*
Y486800D02*
Y492300D01*
Y466680D02*
Y486800D01*
X1288548Y449200D02*
X1288700Y449352D01*
X1285100Y449200D02*
X1288548D01*
X1203980Y454800D02*
X1204120Y454660D01*
X1199400Y454800D02*
X1203980D01*
X1012400Y393100D02*
X1019900D01*
X1004900D02*
X1012400D01*
X1197890Y410330D02*
X1203760Y416200D01*
X1091430Y431987D02*
Y442170D01*
X912667Y405200D02*
X933400D01*
X1135900Y416560D02*
X1154620D01*
X1112870D02*
X1122800D01*
X1122900Y416800D02*
X1135900D01*
X1122800Y416900D02*
X1122900Y416800D01*
X1154620Y416560D02*
X1159400D01*
X1150000Y429260D02*
X1154620D01*
Y454660D02*
X1159500D01*
X1107637D02*
X1154620D01*
X1116868Y442024D02*
X1159400D01*
X1203980Y454800D02*
X1208800D01*
X1238819Y473070D02*
X1238848Y473099D01*
X1185503Y462173D02*
X1196500Y473170D01*
X1238848Y473099D02*
X1251561D01*
X1198683Y429245D02*
X1204103D01*
X1216930Y429260D02*
X1230290Y442620D01*
X1204120Y429260D02*
X1216930D01*
X1258000Y407200D02*
Y419100D01*
X1258252Y419352D01*
X1255895Y442341D02*
X1257529D01*
X1258000Y441870D01*
Y426400D02*
Y441870D01*
X1180961Y462173D02*
X1185503D01*
X1107980Y411670D02*
X1112870Y416560D01*
X1106830Y431987D02*
X1116868Y442024D01*
X1105480Y452503D02*
X1107637Y454660D01*
X1105480Y452503D02*
Y473170D01*
D76*
X954300Y423800D02*
X961397D01*
X955300Y405800D02*
X972900D01*
X961331Y423733D02*
X961397Y423800D01*
X957384Y423698D02*
X961295D01*
D77*
X936096Y441721D02*
X936590Y442215D01*
X937590D01*
X938190Y442815D01*
X908750Y441721D02*
X936096D01*
D78*
X858600Y387500D02*
D03*
D79*
X1256150Y426500D02*
D03*
D80*
X1275900Y410476D02*
D03*
D81*
X863250Y498988D02*
D03*
X850750D02*
D03*
X838250D02*
D03*
X825750D02*
D03*
D82*
X1386300Y503300D02*
D03*
Y386498D02*
D03*
X716400Y386605D02*
D03*
Y503202D02*
D03*
X1135200Y471000D02*
D03*
X827400Y441802D02*
D03*
X1179100Y440200D02*
D03*
X1064200Y442200D02*
D03*
X1077900D02*
D03*
X1091430Y442170D02*
D03*
X1060110Y417670D02*
D03*
X1122800Y416900D02*
D03*
X1135900Y416800D02*
D03*
D83*
X1060100Y497800D02*
D03*
Y486800D02*
D03*
X728000Y518000D02*
D03*
X700000Y378000D02*
D03*
X1379000Y476000D02*
D03*
X1407000Y420000D02*
D03*
X1302000Y378000D02*
D03*
X1323000Y448000D02*
D03*
X1267000Y392000D02*
D03*
X1092000Y518000D02*
D03*
X1001000Y448000D02*
D03*
X1400000Y378000D02*
D03*
X1393000Y476000D02*
D03*
X1379000Y448000D02*
D03*
X749000Y392000D02*
D03*
X1407000Y504000D02*
D03*
X812000Y378000D02*
D03*
X1386000Y462000D02*
D03*
X1323000Y420000D02*
D03*
X700000Y490000D02*
D03*
X1379000Y420000D02*
D03*
X1407000Y448000D02*
D03*
X1400000Y490000D02*
D03*
X819000Y392000D02*
D03*
X1400000Y434000D02*
D03*
X1407000Y476000D02*
D03*
Y392000D02*
D03*
X1400000Y406000D02*
D03*
X756000Y378000D02*
D03*
X826000D02*
D03*
X1393000Y420000D02*
D03*
X1078000Y406000D02*
D03*
X1015000Y448000D02*
D03*
X987000D02*
D03*
X1400000Y462000D02*
D03*
X770000Y378000D02*
D03*
X735000Y392000D02*
D03*
X1176000Y462000D02*
D03*
X1386000Y434000D02*
D03*
X742000Y378000D02*
D03*
X1295000Y504000D02*
D03*
X1393000Y448000D02*
D03*
X1386000Y406000D02*
D03*
D84*
X744138Y489197D02*
D03*
X732045Y477104D02*
D03*
X1368300Y488200D02*
D03*
X1368535Y461800D02*
D03*
X920700Y455100D02*
D03*
X904100Y377350D02*
D03*
X1339000Y435400D02*
D03*
X966100Y499600D02*
D03*
X954600Y508800D02*
D03*
X750600Y514700D02*
D03*
X753444Y504750D02*
D03*
X725400Y464800D02*
D03*
X779365Y504300D02*
D03*
X886050Y444050D02*
D03*
X876500Y461600D02*
D03*
X886278Y461999D02*
D03*
X796445Y392001D02*
D03*
X796300Y401700D02*
D03*
X858550Y387350D02*
D03*
X746444Y415750D02*
D03*
X770100Y391900D02*
D03*
X747050Y456200D02*
D03*
X706000Y474200D02*
D03*
Y433300D02*
D03*
X1306700Y406400D02*
D03*
X1351700Y418200D02*
D03*
X796000Y412500D02*
D03*
X766700Y422103D02*
D03*
X1106300Y490500D02*
D03*
X974100Y442200D02*
D03*
X957384Y468384D02*
D03*
X983100Y499800D02*
D03*
X1013800Y500700D02*
D03*
X1080375Y480800D02*
D03*
X1116700Y477400D02*
D03*
X1090400Y463100D02*
D03*
X866000Y462000D02*
D03*
X883700Y471350D02*
D03*
X1306435Y423500D02*
D03*
X1247900Y385250D02*
D03*
X1238800Y392200D02*
D03*
X1284102Y434373D02*
D03*
X917496Y382098D02*
D03*
X1038100Y479200D02*
D03*
X876350Y424700D02*
D03*
X890250Y428053D02*
D03*
X1150304Y473100D02*
D03*
X773800Y473400D02*
D03*
X957384Y404902D02*
D03*
X815700Y484513D02*
D03*
X1285100Y449200D02*
D03*
X1273770Y462984D02*
D03*
X895667Y405200D02*
D03*
X1204120Y454660D02*
D03*
X913400Y418300D02*
D03*
X1197890Y410330D02*
D03*
X912667Y405200D02*
D03*
X783053Y444852D02*
D03*
X789048Y497050D02*
D03*
X957384Y423698D02*
D03*
X1239600Y420800D02*
D03*
X1204120Y416560D02*
D03*
X1090500Y411700D02*
D03*
M02*
