G04*
G04 #@! TF.GenerationSoftware,Altium Limited,Altium Designer,21.6.1 (37)*
G04*
G04 Layer_Color=8421504*
%FSLAX44Y44*%
%MOMM*%
G71*
G04*
G04 #@! TF.SameCoordinates,3F17BC7F-6D44-4E06-9127-94DCD14E2BF1*
G04*
G04*
G04 #@! TF.FilePolarity,Positive*
G04*
G01*
G75*
G04:AMPARAMS|DCode=18|XSize=0.5mm|YSize=0.25mm|CornerRadius=0.05mm|HoleSize=0mm|Usage=FLASHONLY|Rotation=180.000|XOffset=0mm|YOffset=0mm|HoleType=Round|Shape=RoundedRectangle|*
%AMROUNDEDRECTD18*
21,1,0.5000,0.1500,0,0,180.0*
21,1,0.4000,0.2500,0,0,180.0*
1,1,0.1000,-0.2000,0.0750*
1,1,0.1000,0.2000,0.0750*
1,1,0.1000,0.2000,-0.0750*
1,1,0.1000,-0.2000,-0.0750*
%
%ADD18ROUNDEDRECTD18*%
%ADD19R,1.8200X1.3800*%
%ADD20R,0.8000X1.0000*%
%ADD21R,2.0000X0.4000*%
%ADD22R,1.0000X0.8000*%
%ADD23R,0.6000X0.8500*%
%ADD24R,0.7000X0.9000*%
%ADD25R,1.3208X0.5588*%
%ADD26R,1.0800X0.2600*%
%ADD27R,0.2600X1.0800*%
%ADD28R,3.7000X3.7000*%
%ADD29R,2.7940X1.9050*%
%ADD30R,1.9700X0.6000*%
%ADD31R,2.1300X3.0000*%
%ADD32R,0.8000X0.8000*%
%ADD33R,1.8200X1.1500*%
%ADD34R,0.6000X1.0000*%
%ADD35R,0.3000X0.5250*%
%ADD36R,0.8900X0.9300*%
%ADD37R,3.8000X1.8000*%
%ADD38R,2.7000X1.0000*%
%ADD39R,2.3000X2.2000*%
%ADD40R,2.7000X1.0000*%
%ADD41R,1.7000X0.6000*%
G36*
X815130Y453503D02*
X839100D01*
Y429533D01*
X815130D01*
Y453503D01*
D02*
G37*
G36*
X898500Y445052D02*
X909500D01*
Y438553D01*
X898500D01*
Y445052D01*
D02*
G37*
G36*
X1064600Y484800D02*
Y484701D01*
X1064524Y484517D01*
X1064383Y484376D01*
X1064199Y484300D01*
X1064100D01*
D01*
X1056100D01*
X1056001D01*
X1055817Y484376D01*
X1055676Y484517D01*
X1055600Y484701D01*
Y484800D01*
D01*
Y490800D01*
Y490899D01*
X1055676Y491083D01*
X1055817Y491224D01*
X1056001Y491300D01*
X1056100D01*
D01*
X1064100D01*
X1064199D01*
X1064383Y491224D01*
X1064524Y491083D01*
X1064600Y490899D01*
Y490800D01*
D01*
Y484800D01*
D02*
G37*
G36*
Y493800D02*
Y493700D01*
X1064524Y493517D01*
X1064383Y493376D01*
X1064199Y493300D01*
X1064100D01*
D01*
X1056100D01*
X1056001D01*
X1055817Y493376D01*
X1055676Y493517D01*
X1055600Y493700D01*
Y493800D01*
D01*
Y499800D01*
Y499899D01*
X1055676Y500083D01*
X1055817Y500224D01*
X1056001Y500300D01*
X1056100D01*
D01*
X1064100D01*
X1064199D01*
X1064383Y500224D01*
X1064524Y500083D01*
X1064600Y499899D01*
Y499800D01*
D01*
Y493800D01*
D02*
G37*
G36*
X1178170Y423010D02*
X1171170D01*
Y434410D01*
X1178170D01*
Y423010D01*
D02*
G37*
G36*
X1187570D02*
X1180570D01*
Y434410D01*
X1187570D01*
Y423010D01*
D02*
G37*
G36*
X1178170Y436810D02*
X1171170D01*
Y448210D01*
X1178170D01*
Y436810D01*
D02*
G37*
G36*
X1187570D02*
X1180570D01*
Y448210D01*
X1187570D01*
Y436810D01*
D02*
G37*
D18*
X1050600Y484800D02*
D03*
Y489800D02*
D03*
Y494800D02*
D03*
Y499800D02*
D03*
X1069600D02*
D03*
Y494800D02*
D03*
Y489800D02*
D03*
Y484800D02*
D03*
D19*
X938190Y442815D02*
D03*
Y470195D02*
D03*
X964860Y442815D02*
D03*
Y470195D02*
D03*
D20*
X789065Y504000D02*
D03*
X806065D02*
D03*
X912667Y405200D02*
D03*
X895667D02*
D03*
X977800Y393100D02*
D03*
X960800D02*
D03*
X996900Y499800D02*
D03*
X1013900D02*
D03*
X1090980Y411670D02*
D03*
X1107980D02*
D03*
X983100Y499800D02*
D03*
X966100D02*
D03*
X789030Y490100D02*
D03*
X806030D02*
D03*
X896400Y465500D02*
D03*
X913400D02*
D03*
X858550Y394100D02*
D03*
X841550D02*
D03*
X858550Y380600D02*
D03*
X841550D02*
D03*
D21*
X765900Y429803D02*
D03*
Y441802D02*
D03*
Y453802D02*
D03*
D22*
X972900Y405800D02*
D03*
Y422800D02*
D03*
D23*
X1227100Y404400D02*
D03*
X1239544D02*
D03*
X741000Y489350D02*
D03*
X753444D02*
D03*
X1239544Y420700D02*
D03*
X1227100D02*
D03*
X746444Y464500D02*
D03*
X734000D02*
D03*
X746444Y438167D02*
D03*
X734000D02*
D03*
Y425000D02*
D03*
X746444D02*
D03*
X741000Y504750D02*
D03*
X753444D02*
D03*
X746444Y451333D02*
D03*
X734000D02*
D03*
D24*
X1148270Y473170D02*
D03*
X1163270D02*
D03*
X763265Y504500D02*
D03*
X778265D02*
D03*
X1034900Y393100D02*
D03*
X1019900D02*
D03*
X1105480Y473170D02*
D03*
X1090480D02*
D03*
X896667Y418300D02*
D03*
X911667D02*
D03*
X758265Y473500D02*
D03*
X773265D02*
D03*
X1105480Y452503D02*
D03*
X1090480D02*
D03*
X1004900Y393100D02*
D03*
X989900D02*
D03*
X896667Y391800D02*
D03*
X911667D02*
D03*
D25*
X957384Y404902D02*
D03*
Y414300D02*
D03*
Y423698D02*
D03*
X934016D02*
D03*
Y404902D02*
D03*
D26*
X799250Y461802D02*
D03*
Y456802D02*
D03*
Y451802D02*
D03*
Y446802D02*
D03*
Y441802D02*
D03*
Y436802D02*
D03*
Y431802D02*
D03*
Y426802D02*
D03*
Y421802D02*
D03*
X855550D02*
D03*
Y426802D02*
D03*
Y431802D02*
D03*
Y436802D02*
D03*
Y441802D02*
D03*
Y446802D02*
D03*
Y451802D02*
D03*
Y456802D02*
D03*
Y461802D02*
D03*
D27*
X812400Y413652D02*
D03*
X817400D02*
D03*
X822400D02*
D03*
X827400D02*
D03*
X832400D02*
D03*
X837400D02*
D03*
X842400D02*
D03*
X847400D02*
D03*
Y469953D02*
D03*
X842400D02*
D03*
X837400D02*
D03*
X832400D02*
D03*
X827400D02*
D03*
X822400D02*
D03*
X817400D02*
D03*
X812400D02*
D03*
X807400Y413652D02*
D03*
Y469953D02*
D03*
D28*
X827400Y441802D02*
D03*
D29*
X1006010Y468467D02*
D03*
Y417668D02*
D03*
D30*
X1204120Y416560D02*
D03*
Y429260D02*
D03*
Y441960D02*
D03*
Y454660D02*
D03*
X1154620D02*
D03*
Y441960D02*
D03*
Y429260D02*
D03*
Y416560D02*
D03*
D31*
X1179370Y435610D02*
D03*
D32*
X931000Y393350D02*
D03*
X946000D02*
D03*
D33*
X1230290Y442620D02*
D03*
Y472320D02*
D03*
X1255690Y442620D02*
D03*
Y472320D02*
D03*
D34*
X1116500Y495300D02*
D03*
X1126000D02*
D03*
X1135500D02*
D03*
X1116500Y469300D02*
D03*
X1135500D02*
D03*
D35*
X894250Y455428D02*
D03*
X900750D02*
D03*
X907250D02*
D03*
X913750D02*
D03*
X894250Y428177D02*
D03*
X913750D02*
D03*
X900750D02*
D03*
X907250D02*
D03*
D36*
X1106830Y431987D02*
D03*
X1091430D02*
D03*
D37*
X1329700Y501852D02*
D03*
Y381852D02*
D03*
D38*
X1282700Y479352D02*
D03*
Y464352D02*
D03*
Y449352D02*
D03*
Y434352D02*
D03*
Y419352D02*
D03*
Y404352D02*
D03*
D39*
X1060110Y417670D02*
D03*
Y466670D02*
D03*
D40*
X1338435Y479420D02*
D03*
Y404920D02*
D03*
D41*
X1306435Y460920D02*
D03*
Y448420D02*
D03*
Y423420D02*
D03*
Y435920D02*
D03*
M02*
