G04*
G04 #@! TF.GenerationSoftware,Altium Limited,Altium Designer,21.6.1 (37)*
G04*
G04 Layer_Color=8388736*
%FSLAX44Y44*%
%MOMM*%
G71*
G04*
G04 #@! TF.SameCoordinates,3F17BC7F-6D44-4E06-9127-94DCD14E2BF1*
G04*
G04*
G04 #@! TF.FilePolarity,Negative*
G04*
G01*
G75*
G04:AMPARAMS|DCode=18|XSize=0.5mm|YSize=0.25mm|CornerRadius=0.05mm|HoleSize=0mm|Usage=FLASHONLY|Rotation=180.000|XOffset=0mm|YOffset=0mm|HoleType=Round|Shape=RoundedRectangle|*
%AMROUNDEDRECTD18*
21,1,0.5000,0.1500,0,0,180.0*
21,1,0.4000,0.2500,0,0,180.0*
1,1,0.1000,-0.2000,0.0750*
1,1,0.1000,0.2000,0.0750*
1,1,0.1000,0.2000,-0.0750*
1,1,0.1000,-0.2000,-0.0750*
%
%ADD18ROUNDEDRECTD18*%
G04:AMPARAMS|DCode=42|XSize=0.9mm|YSize=1.6mm|CornerRadius=0.0495mm|HoleSize=0mm|Usage=FLASHONLY|Rotation=180.000|XOffset=0mm|YOffset=0mm|HoleType=Round|Shape=RoundedRectangle|*
%AMROUNDEDRECTD42*
21,1,0.9000,1.5010,0,0,180.0*
21,1,0.8010,1.6000,0,0,180.0*
1,1,0.0990,-0.4005,0.7505*
1,1,0.0990,0.4005,0.7505*
1,1,0.0990,0.4005,-0.7505*
1,1,0.0990,-0.4005,-0.7505*
%
%ADD42ROUNDEDRECTD42*%
%ADD43R,2.0200X1.5800*%
%ADD44R,1.0000X1.2000*%
%ADD45R,2.2000X0.6000*%
%ADD46R,1.2000X1.0000*%
%ADD47R,0.8000X1.0500*%
%ADD48R,0.9000X1.1000*%
%ADD49R,1.5208X0.7588*%
%ADD50R,1.2800X0.4600*%
%ADD51R,0.4600X1.2800*%
%ADD52R,3.9000X3.9000*%
%ADD53R,2.9940X2.1050*%
%ADD54R,2.1700X0.8000*%
%ADD55R,2.3300X3.2000*%
%ADD56R,1.0000X1.0000*%
%ADD57R,2.0200X1.3500*%
%ADD58R,0.8000X1.2000*%
%ADD59R,2.6500X1.8500*%
%ADD60R,0.5000X0.7250*%
%ADD61R,1.0900X1.1300*%
%ADD62R,4.0000X2.0000*%
%ADD63R,2.9000X1.2000*%
%ADD64R,2.5000X2.4000*%
%ADD65R,2.9000X1.2000*%
%ADD66R,1.9000X0.8000*%
%ADD67C,1.1000*%
%ADD68C,0.6000*%
%ADD69C,1.4000*%
G36*
X1189870Y411160D02*
X1168870D01*
Y458610D01*
X1189870D01*
Y411160D01*
D02*
G37*
D18*
X1050600Y484800D02*
D03*
Y489800D02*
D03*
Y494800D02*
D03*
Y499800D02*
D03*
X1069600D02*
D03*
Y494800D02*
D03*
Y489800D02*
D03*
Y484800D02*
D03*
D42*
X1060100Y492300D02*
D03*
D43*
X938190Y442815D02*
D03*
Y470195D02*
D03*
X964860Y442815D02*
D03*
Y470195D02*
D03*
D44*
X789065Y504000D02*
D03*
X806065D02*
D03*
X912667Y405200D02*
D03*
X895667D02*
D03*
X977800Y393100D02*
D03*
X960800D02*
D03*
X996900Y499800D02*
D03*
X1013900D02*
D03*
X1090980Y411670D02*
D03*
X1107980D02*
D03*
X983100Y499800D02*
D03*
X966100D02*
D03*
X789030Y490100D02*
D03*
X806030D02*
D03*
X896400Y465500D02*
D03*
X913400D02*
D03*
X858550Y394100D02*
D03*
X841550D02*
D03*
X858550Y380600D02*
D03*
X841550D02*
D03*
D45*
X765900Y429803D02*
D03*
Y441802D02*
D03*
Y453802D02*
D03*
D46*
X972900Y405800D02*
D03*
Y422800D02*
D03*
D47*
X1227100Y404400D02*
D03*
X1239544D02*
D03*
X741000Y489350D02*
D03*
X753444D02*
D03*
X1239544Y420700D02*
D03*
X1227100D02*
D03*
X746444Y464500D02*
D03*
X734000D02*
D03*
X746444Y438167D02*
D03*
X734000D02*
D03*
Y425000D02*
D03*
X746444D02*
D03*
X741000Y504750D02*
D03*
X753444D02*
D03*
X746444Y451333D02*
D03*
X734000D02*
D03*
D48*
X1148270Y473170D02*
D03*
X1163270D02*
D03*
X763265Y504500D02*
D03*
X778265D02*
D03*
X1034900Y393100D02*
D03*
X1019900D02*
D03*
X1105480Y473170D02*
D03*
X1090480D02*
D03*
X896667Y418300D02*
D03*
X911667D02*
D03*
X758265Y473500D02*
D03*
X773265D02*
D03*
X1105480Y452503D02*
D03*
X1090480D02*
D03*
X1004900Y393100D02*
D03*
X989900D02*
D03*
X896667Y391800D02*
D03*
X911667D02*
D03*
D49*
X957384Y404902D02*
D03*
Y414300D02*
D03*
Y423698D02*
D03*
X934016D02*
D03*
Y404902D02*
D03*
D50*
X799250Y461802D02*
D03*
Y456802D02*
D03*
Y451802D02*
D03*
Y446802D02*
D03*
Y441802D02*
D03*
Y436802D02*
D03*
Y431802D02*
D03*
Y426802D02*
D03*
Y421802D02*
D03*
X855550D02*
D03*
Y426802D02*
D03*
Y431802D02*
D03*
Y436802D02*
D03*
Y441802D02*
D03*
Y446802D02*
D03*
Y451802D02*
D03*
Y456802D02*
D03*
Y461802D02*
D03*
D51*
X812400Y413652D02*
D03*
X817400D02*
D03*
X822400D02*
D03*
X827400D02*
D03*
X832400D02*
D03*
X837400D02*
D03*
X842400D02*
D03*
X847400D02*
D03*
Y469953D02*
D03*
X842400D02*
D03*
X837400D02*
D03*
X832400D02*
D03*
X827400D02*
D03*
X822400D02*
D03*
X817400D02*
D03*
X812400D02*
D03*
X807400Y413652D02*
D03*
Y469953D02*
D03*
D52*
X827400Y441802D02*
D03*
D53*
X1006010Y468467D02*
D03*
Y417668D02*
D03*
D54*
X1204120Y416560D02*
D03*
Y429260D02*
D03*
Y441960D02*
D03*
Y454660D02*
D03*
X1154620D02*
D03*
Y441960D02*
D03*
Y429260D02*
D03*
Y416560D02*
D03*
D55*
X1179370Y435610D02*
D03*
D56*
X931000Y393350D02*
D03*
X946000D02*
D03*
D57*
X1230290Y442620D02*
D03*
Y472320D02*
D03*
X1255690Y442620D02*
D03*
Y472320D02*
D03*
D58*
X1116500Y495300D02*
D03*
X1126000D02*
D03*
X1135500D02*
D03*
X1116500Y469300D02*
D03*
X1135500D02*
D03*
D59*
X904000Y441802D02*
D03*
D60*
X894250Y455428D02*
D03*
X900750D02*
D03*
X907250D02*
D03*
X913750D02*
D03*
X894250Y428177D02*
D03*
X913750D02*
D03*
X900750D02*
D03*
X907250D02*
D03*
D61*
X1106830Y431987D02*
D03*
X1091430D02*
D03*
D62*
X1329700Y501852D02*
D03*
Y381852D02*
D03*
D63*
X1282700Y479352D02*
D03*
Y464352D02*
D03*
Y449352D02*
D03*
Y434352D02*
D03*
Y419352D02*
D03*
Y404352D02*
D03*
D64*
X1060110Y417670D02*
D03*
Y466670D02*
D03*
D65*
X1338435Y479420D02*
D03*
Y404920D02*
D03*
D66*
X1306435Y460920D02*
D03*
Y448420D02*
D03*
Y423420D02*
D03*
Y435920D02*
D03*
D67*
X863250Y498988D02*
D03*
X850750D02*
D03*
X838250D02*
D03*
X825750D02*
D03*
D68*
X1171870Y435610D02*
D03*
X1186870D02*
D03*
Y420610D02*
D03*
X1171870D02*
D03*
Y450610D02*
D03*
X1186870D02*
D03*
D69*
X1386300Y503300D02*
D03*
Y386498D02*
D03*
X716400Y386605D02*
D03*
Y503202D02*
D03*
M02*
