G04*
G04 #@! TF.GenerationSoftware,Altium Limited,Altium Designer,21.6.1 (37)*
G04*
G04 Layer_Physical_Order=2*
G04 Layer_Color=16711680*
%FSLAX44Y44*%
%MOMM*%
G71*
G04*
G04 #@! TF.SameCoordinates,3F17BC7F-6D44-4E06-9127-94DCD14E2BF1*
G04*
G04*
G04 #@! TF.FilePolarity,Positive*
G04*
G01*
G75*
%ADD10C,0.2500*%
%ADD16C,0.4000*%
%ADD70C,2.0000*%
%ADD72C,0.5000*%
%ADD74C,0.7000*%
%ADD75C,1.0000*%
%ADD82C,1.2000*%
%ADD83C,0.7000*%
%ADD84C,0.8000*%
%ADD85R,4.0000X1.5240*%
G04:AMPARAMS|DCode=86|XSize=1.524mm|YSize=4mm|CornerRadius=0.381mm|HoleSize=0mm|Usage=FLASHONLY|Rotation=270.000|XOffset=0mm|YOffset=0mm|HoleType=Round|Shape=RoundedRectangle|*
%AMROUNDEDRECTD86*
21,1,1.5240,3.2380,0,0,270.0*
21,1,0.7620,4.0000,0,0,270.0*
1,1,0.7620,-1.6190,-0.3810*
1,1,0.7620,-1.6190,0.3810*
1,1,0.7620,1.6190,0.3810*
1,1,0.7620,1.6190,-0.3810*
%
%ADD86ROUNDEDRECTD86*%
%ADD87R,4.0000X1.5240*%
G04:AMPARAMS|DCode=88|XSize=2mm|YSize=4mm|CornerRadius=0.07mm|HoleSize=0mm|Usage=FLASHONLY|Rotation=90.000|XOffset=0mm|YOffset=0mm|HoleType=Round|Shape=RoundedRectangle|*
%AMROUNDEDRECTD88*
21,1,2.0000,3.8600,0,0,90.0*
21,1,1.8600,4.0000,0,0,90.0*
1,1,0.1400,1.9300,0.9300*
1,1,0.1400,1.9300,-0.9300*
1,1,0.1400,-1.9300,-0.9300*
1,1,0.1400,-1.9300,0.9300*
%
%ADD88ROUNDEDRECTD88*%
%ADD89R,1.6510X0.7874*%
%ADD90R,0.7000X1.7000*%
G36*
X1387643Y527188D02*
X1391752Y526087D01*
X1395681Y524460D01*
X1399365Y522333D01*
X1402740Y519744D01*
X1405748Y516737D01*
X1408337Y513363D01*
X1410464Y509680D01*
X1412093Y505751D01*
X1413194Y501643D01*
X1413751Y497426D01*
X1413751Y495299D01*
X1413848Y494814D01*
X1413898Y494560D01*
Y395280D01*
X1413836Y394967D01*
X1413743Y394498D01*
X1413743Y392372D01*
X1413188Y388155D01*
X1412087Y384046D01*
X1410460Y380117D01*
X1408333Y376433D01*
X1405744Y373059D01*
X1402737Y370051D01*
X1399363Y367461D01*
X1395680Y365334D01*
X1391751Y363705D01*
X1387643Y362604D01*
X1383482Y362055D01*
X1381412Y362146D01*
X1381356Y362138D01*
X1381300Y362149D01*
X721400Y362163D01*
X719273D01*
X715057Y362718D01*
X710948Y363818D01*
X707018Y365446D01*
X703335Y367572D01*
X699960Y370161D01*
X696952Y373168D01*
X694363Y376542D01*
X692235Y380225D01*
X690607Y384154D01*
X689505Y388263D01*
X688949Y392480D01*
X688949Y394606D01*
X688957Y495201D01*
X688957Y495202D01*
X688957Y495202D01*
Y497328D01*
X689512Y501545D01*
X690613Y505654D01*
X692240Y509583D01*
X694367Y513267D01*
X696956Y516642D01*
X699963Y519649D01*
X703337Y522239D01*
X707020Y524366D01*
X710949Y525995D01*
X715057Y527096D01*
X719274Y527652D01*
X721401Y527653D01*
X1381300Y527743D01*
X1383427Y527743D01*
X1387643Y527188D01*
D02*
G37*
%LPC*%
G36*
X1329399Y518633D02*
X1329128Y518228D01*
X1328636Y515750D01*
Y508130D01*
X1329128Y505652D01*
X1329399Y505247D01*
X1336092Y511940D01*
X1329399Y518633D01*
D02*
G37*
G36*
X751734Y520400D02*
X749466D01*
X747371Y519532D01*
X745768Y517929D01*
X745093Y516300D01*
X729680Y500887D01*
X728824Y501381D01*
X728600Y501603D01*
Y504808D01*
X727769Y507911D01*
X726162Y510693D01*
X723891Y512964D01*
X721109Y514570D01*
X718006Y515402D01*
X714794D01*
X711691Y514570D01*
X708909Y512964D01*
X706638Y510693D01*
X705031Y507911D01*
X704200Y504808D01*
Y501595D01*
X705031Y498493D01*
X706638Y495711D01*
X708909Y493439D01*
X711691Y491833D01*
X714794Y491002D01*
X717999D01*
X718220Y490777D01*
X718714Y489921D01*
X708727Y479934D01*
X708662Y479837D01*
X707286D01*
X707134Y479900D01*
X704866D01*
X704714Y479837D01*
X696045D01*
Y468563D01*
X704714D01*
X704866Y468500D01*
X707134D01*
X707286Y468563D01*
X715955D01*
Y475050D01*
X745634Y504729D01*
X746904Y504203D01*
Y503889D01*
X747350Y502226D01*
X747621Y501755D01*
X752030Y506164D01*
X756438Y510573D01*
X756351Y510623D01*
X755943Y511000D01*
X755742Y512220D01*
X756300Y513566D01*
Y515834D01*
X755432Y517929D01*
X753829Y519532D01*
X751734Y520400D01*
D02*
G37*
G36*
X1061103Y502840D02*
X1059098D01*
X1058243Y502486D01*
X1060100Y500628D01*
X1061957Y502486D01*
X1061103Y502840D01*
D02*
G37*
G36*
X1064786Y499657D02*
X1062928Y497800D01*
X1064786Y495943D01*
X1065140Y496797D01*
Y498802D01*
X1064786Y499657D01*
D02*
G37*
G36*
X1055414Y499657D02*
X1055060Y498802D01*
Y496797D01*
X1055414Y495943D01*
X1057271Y497800D01*
X1055414Y499657D01*
D02*
G37*
G36*
X1367490Y522224D02*
X1335110D01*
X1332632Y521731D01*
X1332227Y521461D01*
X1340334Y513354D01*
X1338920Y511940D01*
X1340334Y510526D01*
X1332227Y502419D01*
X1332632Y502148D01*
X1335110Y501656D01*
X1367490D01*
X1369968Y502148D01*
X1372068Y503552D01*
X1372830Y504692D01*
X1374100Y504307D01*
Y501694D01*
X1374931Y498591D01*
X1376538Y495809D01*
X1378809Y493538D01*
X1381591Y491931D01*
X1384694Y491100D01*
X1387906D01*
X1391009Y491931D01*
X1393791Y493538D01*
X1396062Y495809D01*
X1397669Y498591D01*
X1398500Y501694D01*
Y504906D01*
X1397669Y508009D01*
X1396062Y510791D01*
X1393791Y513062D01*
X1391009Y514669D01*
X1387906Y515500D01*
X1384694D01*
X1381591Y514669D01*
X1378809Y513062D01*
X1376538Y510791D01*
X1375234Y508534D01*
X1373964Y508874D01*
Y515750D01*
X1373472Y518228D01*
X1373201Y518633D01*
X1365094Y510526D01*
X1362266Y513354D01*
X1370373Y521461D01*
X1369968Y521731D01*
X1367490Y522224D01*
D02*
G37*
G36*
X1060100Y494972D02*
X1058243Y493114D01*
X1058549Y492987D01*
Y491613D01*
X1058243Y491486D01*
X1060100Y489628D01*
X1061957Y491486D01*
X1061651Y491613D01*
Y492987D01*
X1061957Y493114D01*
X1060100Y494972D01*
D02*
G37*
G36*
X1076200Y524482D02*
X781500D01*
X779861Y524156D01*
X778472Y523228D01*
X761205Y505961D01*
X759788Y506341D01*
X759538Y507274D01*
X759267Y507744D01*
X754858Y503336D01*
X750450Y498927D01*
X750920Y498656D01*
X752583Y498210D01*
X753124D01*
X754218Y497200D01*
Y479837D01*
X747173D01*
X747159Y479925D01*
X747146Y480072D01*
Y483315D01*
X747159Y483414D01*
X747203Y483615D01*
X747266Y483815D01*
X747350Y484016D01*
X747455Y484222D01*
X747587Y484434D01*
X747745Y484651D01*
X747933Y484874D01*
X748189Y485141D01*
X748270Y485269D01*
X748970Y485969D01*
X749838Y488064D01*
Y490331D01*
X748970Y492426D01*
X747367Y494030D01*
X745272Y494897D01*
X743004D01*
X740909Y494030D01*
X739306Y492426D01*
X738438Y490331D01*
Y488064D01*
X739306Y485969D01*
X740005Y485269D01*
X740087Y485141D01*
X740343Y484875D01*
X740531Y484651D01*
X740689Y484434D01*
X740820Y484222D01*
X740926Y484016D01*
X741010Y483815D01*
X741073Y483615D01*
X741117Y483414D01*
X741130Y483315D01*
Y480072D01*
X741117Y479925D01*
X741103Y479837D01*
X737083D01*
X736877Y480333D01*
X735274Y481937D01*
X733179Y482804D01*
X730911D01*
X728816Y481937D01*
X727213Y480333D01*
X726345Y478238D01*
Y475971D01*
X727213Y473876D01*
X728816Y472272D01*
X729129Y472143D01*
X729284Y472011D01*
X729426Y471866D01*
X729539Y471724D01*
X729629Y471583D01*
X729700Y471441D01*
X729756Y471290D01*
X729797Y471126D01*
X729811Y471031D01*
Y470110D01*
X728637Y469624D01*
X728629Y469632D01*
X726534Y470500D01*
X724266D01*
X722171Y469632D01*
X720568Y468029D01*
X719700Y465934D01*
Y463666D01*
X720568Y461571D01*
X721267Y460872D01*
X721349Y460743D01*
X721605Y460477D01*
X721793Y460254D01*
X721951Y460036D01*
X722082Y459825D01*
X722188Y459619D01*
X722272Y459417D01*
X722335Y459217D01*
X722379Y459017D01*
X722392Y458918D01*
Y413500D01*
X722621Y412349D01*
X723273Y411373D01*
X735073Y399573D01*
X736049Y398921D01*
X737200Y398692D01*
X768284D01*
X768537Y397422D01*
X766871Y396732D01*
X765268Y395129D01*
X764400Y393034D01*
Y390766D01*
X765268Y388671D01*
X766871Y387068D01*
X768966Y386200D01*
X771234D01*
X773329Y387068D01*
X774123Y387862D01*
X774256Y387952D01*
X774513Y388210D01*
X774726Y388398D01*
X774935Y388556D01*
X775137Y388686D01*
X775335Y388791D01*
X775529Y388873D01*
X775722Y388936D01*
X775918Y388980D01*
X776018Y388993D01*
X790563D01*
X790662Y388980D01*
X790862Y388936D01*
X791062Y388873D01*
X791264Y388789D01*
X791469Y388684D01*
X791681Y388552D01*
X791898Y388394D01*
X792122Y388206D01*
X792388Y387950D01*
X792516Y387868D01*
X793216Y387169D01*
X795311Y386301D01*
X797579D01*
X799673Y387169D01*
X801277Y388772D01*
X802145Y390867D01*
Y393135D01*
X801277Y395230D01*
X800457Y396050D01*
X800445Y397784D01*
X801132Y398471D01*
X802000Y400566D01*
Y402834D01*
X801132Y404929D01*
X799610Y406451D01*
X799523Y406730D01*
X799486Y407925D01*
X800832Y409271D01*
X801700Y411366D01*
Y413634D01*
X800832Y415729D01*
X800736Y415825D01*
X801222Y416998D01*
X821404D01*
X853320Y385082D01*
X853718Y384121D01*
X855321Y382518D01*
X857416Y381650D01*
X858205D01*
X859471Y381398D01*
X898428D01*
X899081Y380128D01*
X898400Y378484D01*
Y376216D01*
X899268Y374121D01*
X900871Y372518D01*
X902966Y371650D01*
X903638D01*
X904121Y371223D01*
X908472Y366872D01*
X909861Y365944D01*
X911500Y365618D01*
X1270200D01*
X1271839Y365944D01*
X1273228Y366872D01*
X1295330Y388974D01*
X1296258Y390363D01*
X1296584Y392002D01*
Y441186D01*
X1296258Y442825D01*
X1295330Y444215D01*
X1291036Y448508D01*
X1290931Y448630D01*
X1290817Y448781D01*
X1290800Y448805D01*
Y450334D01*
X1290225Y451722D01*
X1291302Y452441D01*
X1299677Y444066D01*
Y423500D01*
X1299908Y421751D01*
X1300583Y420121D01*
X1301657Y418722D01*
X1303056Y417648D01*
X1304686Y416973D01*
X1306435Y416742D01*
X1308184Y416973D01*
X1309814Y417648D01*
X1311214Y418722D01*
X1312287Y420121D01*
X1312963Y421751D01*
X1313193Y423500D01*
Y446865D01*
X1312963Y448614D01*
X1312287Y450244D01*
X1311214Y451643D01*
X1276140Y486717D01*
X1273211Y489646D01*
X1271812Y490719D01*
X1270182Y491395D01*
X1268433Y491625D01*
X1144667D01*
X1142918Y491395D01*
X1141288Y490719D01*
X1139889Y489646D01*
X1120101Y469858D01*
X1091601D01*
X1091115Y471031D01*
X1092182Y472098D01*
X1114605D01*
X1115566Y471700D01*
X1117834D01*
X1119929Y472568D01*
X1121532Y474171D01*
X1122400Y476266D01*
Y478534D01*
X1121532Y480629D01*
X1119929Y482232D01*
X1117834Y483100D01*
X1115566D01*
X1114605Y482702D01*
X1089986D01*
X1087957Y482298D01*
X1087345Y481889D01*
X1087081Y481899D01*
X1085870Y482431D01*
X1085208Y484029D01*
X1083604Y485632D01*
X1081509Y486500D01*
X1079242D01*
X1077147Y485632D01*
X1075916Y484402D01*
X1065705D01*
X1064999Y485458D01*
X1065140Y485798D01*
Y487803D01*
X1064786Y488657D01*
X1061514Y485386D01*
X1060100Y486800D01*
X1058686Y485386D01*
X1055414Y488657D01*
X1055060Y487803D01*
Y485798D01*
X1055201Y485458D01*
X1054495Y484402D01*
X1052416D01*
X1050387Y483998D01*
X1048667Y482849D01*
X1045070Y479252D01*
X1043800Y479778D01*
Y480334D01*
X1043402Y481295D01*
Y496000D01*
X1042998Y498029D01*
X1041849Y499749D01*
X1027849Y513749D01*
X1026504Y514648D01*
X1026889Y515918D01*
X1074426D01*
X1100530Y489814D01*
X1100600Y489732D01*
Y489366D01*
X1101468Y487271D01*
X1103071Y485668D01*
X1105166Y484800D01*
X1107434D01*
X1109529Y485668D01*
X1111132Y487271D01*
X1112000Y489366D01*
Y491634D01*
X1111132Y493729D01*
X1109529Y495332D01*
X1107434Y496200D01*
X1106320D01*
X1106272Y496234D01*
X1105856Y496600D01*
X1079228Y523228D01*
X1077839Y524156D01*
X1076200Y524482D01*
D02*
G37*
G36*
X1373000Y495860D02*
X1329600D01*
Y477220D01*
X1373000D01*
Y484839D01*
X1373132Y484971D01*
X1374000Y487066D01*
Y489334D01*
X1373132Y491429D01*
X1373000Y491561D01*
Y495860D01*
D02*
G37*
G36*
X716795Y459848D02*
X713147Y456200D01*
X716795Y452551D01*
Y459848D01*
D02*
G37*
G36*
X695205Y459849D02*
Y452551D01*
X698854Y456200D01*
X695205Y459849D01*
D02*
G37*
G36*
X1373000Y470460D02*
X1329600D01*
Y451820D01*
X1373000D01*
Y458204D01*
X1373367Y458571D01*
X1374235Y460666D01*
Y462934D01*
X1373367Y465029D01*
X1373000Y465396D01*
Y470460D01*
D02*
G37*
G36*
X713967Y462677D02*
X698033D01*
X703096Y457614D01*
X701682Y456200D01*
X703096Y454786D01*
X698034Y449723D01*
X713967D01*
X708904Y454786D01*
X710318Y456200D01*
X708904Y457614D01*
X713967Y462677D01*
D02*
G37*
G36*
X707134Y439000D02*
X704866D01*
X704714Y438937D01*
X696045D01*
Y427663D01*
X704714D01*
X704866Y427600D01*
X707134D01*
X707286Y427663D01*
X715955D01*
Y438937D01*
X707286D01*
X707134Y439000D01*
D02*
G37*
G36*
X713967Y421777D02*
X698034D01*
X703096Y416714D01*
X701682Y415300D01*
X703096Y413886D01*
X698034Y408823D01*
X713967D01*
X708904Y413886D01*
X710318Y415300D01*
X708904Y416714D01*
X710816Y418627D01*
X709906Y419207D01*
X710145Y419109D01*
X710429Y419092D01*
X710758Y419156D01*
X711132Y419300D01*
X711551Y419525D01*
X712016Y419831D01*
X712035Y419846D01*
X713967Y421777D01*
D02*
G37*
G36*
X716795Y418949D02*
X713147Y415300D01*
X716795Y411651D01*
Y418949D01*
D02*
G37*
G36*
X695205Y418949D02*
Y411651D01*
X698854Y415300D01*
X695205Y418949D01*
D02*
G37*
G36*
X1373000Y445060D02*
X1329600D01*
Y426420D01*
X1345525D01*
X1346521Y425121D01*
X1347075Y424697D01*
X1347075Y423096D01*
X1346922Y422979D01*
X1345848Y421579D01*
X1345172Y419949D01*
X1345134Y419660D01*
X1329600D01*
Y401020D01*
X1373000D01*
Y419660D01*
X1358266D01*
X1358228Y419949D01*
X1357552Y421579D01*
X1356478Y422979D01*
X1355925Y423403D01*
Y425004D01*
X1356078Y425121D01*
X1357075Y426420D01*
X1373000D01*
Y445060D01*
D02*
G37*
G36*
X718006Y398806D02*
X714794D01*
X711691Y397974D01*
X708909Y396368D01*
X706638Y394096D01*
X705031Y391315D01*
X704200Y388212D01*
Y384999D01*
X705031Y381897D01*
X706638Y379114D01*
X708909Y376843D01*
X711691Y375237D01*
X714794Y374406D01*
X718006D01*
X721109Y375237D01*
X723891Y376843D01*
X726162Y379114D01*
X727769Y381897D01*
X728600Y384999D01*
Y388212D01*
X727769Y391315D01*
X726162Y394096D01*
X723891Y396368D01*
X721109Y397974D01*
X718006Y398806D01*
D02*
G37*
G36*
X1306700Y413158D02*
X1304951Y412928D01*
X1303321Y412252D01*
X1301922Y411179D01*
X1300848Y409779D01*
X1300172Y408149D01*
X1299942Y406400D01*
X1300172Y404651D01*
X1300848Y403021D01*
X1301922Y401622D01*
X1320762Y382781D01*
X1322161Y381707D01*
X1323791Y381032D01*
X1325540Y380802D01*
X1327151D01*
X1327571Y380796D01*
X1329118Y380706D01*
X1329600Y380652D01*
Y375620D01*
X1373000D01*
Y384090D01*
X1374270Y384258D01*
X1374931Y381789D01*
X1376538Y379007D01*
X1378809Y376736D01*
X1381591Y375130D01*
X1384694Y374298D01*
X1387906D01*
X1391009Y375130D01*
X1393791Y376736D01*
X1396062Y379007D01*
X1397669Y381789D01*
X1398500Y384892D01*
Y388105D01*
X1397669Y391207D01*
X1396062Y393989D01*
X1393791Y396261D01*
X1391009Y397867D01*
X1387906Y398698D01*
X1384694D01*
X1381591Y397867D01*
X1378809Y396261D01*
X1376538Y393989D01*
X1374931Y391207D01*
X1374270Y388739D01*
X1373000Y388906D01*
Y394260D01*
X1349119D01*
X1348680Y394318D01*
X1328339D01*
X1311478Y411179D01*
X1310079Y412252D01*
X1308449Y412928D01*
X1306700Y413158D01*
D02*
G37*
%LPD*%
G36*
X844991Y514744D02*
X840248Y510002D01*
X839807Y509591D01*
X839450Y509303D01*
X839286Y509188D01*
X833050D01*
Y509188D01*
X831790Y509212D01*
Y510028D01*
X822538D01*
X827164Y505402D01*
X824336Y502573D01*
X819710Y507199D01*
Y490223D01*
X818440Y489548D01*
X816834Y490213D01*
X814566D01*
X814144Y490038D01*
X814008Y490009D01*
X813798Y489982D01*
X813615Y489978D01*
X813454Y489991D01*
X813309Y490019D01*
X813174Y490062D01*
X813040Y490122D01*
X812902Y490204D01*
X812827Y490259D01*
X796460Y506627D01*
X795484Y507279D01*
X794333Y507508D01*
X785167D01*
X785069Y507520D01*
X784859Y507565D01*
X784647Y507628D01*
X784431Y507713D01*
X784209Y507820D01*
X783981Y507951D01*
X783745Y508110D01*
X783502Y508297D01*
X783217Y508546D01*
X783130Y508595D01*
X782594Y509132D01*
X780499Y510000D01*
X779152D01*
X778626Y511270D01*
X783274Y515918D01*
X844505D01*
X844991Y514744D01*
D02*
G37*
G36*
X843487Y507220D02*
X843000Y506715D01*
X842230Y505806D01*
X841948Y505402D01*
X841734Y505032D01*
X841588Y504695D01*
X841511Y504392D01*
X841502Y504122D01*
X841561Y503886D01*
X841689Y503684D01*
X838421Y507426D01*
X838603Y507278D01*
X838822Y507202D01*
X839080Y507199D01*
X839376Y507269D01*
X839710Y507412D01*
X840083Y507629D01*
X840494Y507918D01*
X840943Y508281D01*
X841957Y509225D01*
X843487Y507220D01*
D02*
G37*
G36*
X855989Y507121D02*
X855506Y506621D01*
X854741Y505717D01*
X854460Y505315D01*
X854247Y504944D01*
X854100Y504607D01*
X854021Y504302D01*
X854010Y504030D01*
X854066Y503791D01*
X854189Y503584D01*
X851021Y507426D01*
X851198Y507273D01*
X851414Y507194D01*
X851669Y507188D01*
X851964Y507257D01*
X852298Y507400D01*
X852671Y507617D01*
X853084Y507908D01*
X853535Y508273D01*
X854557Y509225D01*
X855989Y507121D01*
D02*
G37*
G36*
X974096Y514648D02*
X972751Y513749D01*
X963832Y504830D01*
X962871Y504432D01*
X962840Y504401D01*
X961666Y504887D01*
Y505204D01*
X961340Y506843D01*
X960412Y508232D01*
X960300Y508344D01*
Y509934D01*
X959432Y512029D01*
X957829Y513632D01*
X955734Y514500D01*
X953466D01*
X951371Y513632D01*
X949768Y512029D01*
X948900Y509934D01*
Y507666D01*
X949768Y505571D01*
X951371Y503968D01*
X953102Y503251D01*
Y479752D01*
X952988Y476416D01*
X952791Y474368D01*
X952676Y473671D01*
X952560Y473192D01*
X952495Y473018D01*
X951532Y471763D01*
X950856Y470133D01*
X950626Y468384D01*
Y423698D01*
Y404902D01*
X950856Y403153D01*
X951532Y401523D01*
X952606Y400123D01*
X954005Y399050D01*
X955635Y398374D01*
X957384Y398144D01*
X1023402D01*
X1025151Y398374D01*
X1026781Y399050D01*
X1028180Y400123D01*
X1054578Y426521D01*
X1055652Y427921D01*
X1056328Y429551D01*
X1056558Y431300D01*
Y435969D01*
X1057828Y436495D01*
X1058956Y435366D01*
X1060904Y434242D01*
X1063076Y433660D01*
X1065324D01*
X1067496Y434242D01*
X1069444Y435366D01*
X1070211Y436134D01*
X1071050Y436941D01*
X1071889Y436134D01*
X1072656Y435366D01*
X1074604Y434242D01*
X1076776Y433660D01*
X1079024D01*
X1081196Y434242D01*
X1083144Y435366D01*
X1084650Y436873D01*
X1086186Y435336D01*
X1088134Y434212D01*
X1090306Y433630D01*
X1092554D01*
X1094726Y434212D01*
X1095889Y434883D01*
X1090016Y440756D01*
X1091430Y442170D01*
X1090016Y443584D01*
X1095889Y449457D01*
X1094726Y450128D01*
X1092554Y450710D01*
X1090306D01*
X1088134Y450128D01*
X1086186Y449004D01*
X1084680Y447497D01*
X1083144Y449034D01*
X1081196Y450158D01*
X1079024Y450740D01*
X1076776D01*
X1074604Y450158D01*
X1072656Y449034D01*
X1071889Y448266D01*
X1071050Y447459D01*
X1070211Y448266D01*
X1069444Y449034D01*
X1067496Y450158D01*
X1065324Y450740D01*
X1063916D01*
X1063183Y452010D01*
X1063259Y452142D01*
X1085729D01*
X1087478Y452373D01*
X1089108Y453048D01*
X1090507Y454122D01*
X1092728Y456342D01*
X1122900D01*
X1124649Y456572D01*
X1126279Y457248D01*
X1127679Y458321D01*
X1132980Y463623D01*
X1134186Y463300D01*
X1136214D01*
X1138172Y463825D01*
X1139928Y464838D01*
X1141361Y466272D01*
X1142375Y468028D01*
X1142900Y469986D01*
Y470149D01*
X1144170Y470402D01*
X1144452Y469721D01*
X1145526Y468321D01*
X1146926Y467248D01*
X1148555Y466572D01*
X1150304Y466342D01*
X1182881D01*
X1199342Y449882D01*
X1200741Y448808D01*
X1202371Y448133D01*
X1204120Y447902D01*
X1205869Y448133D01*
X1207499Y448808D01*
X1208898Y449882D01*
X1209972Y451281D01*
X1210648Y452911D01*
X1210878Y454660D01*
X1210648Y456409D01*
X1209972Y458039D01*
X1208898Y459439D01*
X1191498Y476839D01*
X1192024Y478109D01*
X1265634D01*
X1266583Y477160D01*
X1266583Y477160D01*
X1273055Y470688D01*
X1272526Y469421D01*
X1271246Y469078D01*
X1270776Y468807D01*
X1275184Y464398D01*
X1279593Y459989D01*
X1279864Y460459D01*
X1280207Y461740D01*
X1281474Y462269D01*
X1288341Y455402D01*
X1287622Y454325D01*
X1286234Y454900D01*
X1283966D01*
X1281871Y454032D01*
X1280268Y452429D01*
X1279400Y450334D01*
Y448066D01*
X1280268Y445971D01*
X1281871Y444368D01*
X1283833Y443555D01*
X1284378Y443054D01*
X1286514Y440918D01*
X1285795Y439842D01*
X1285235Y440073D01*
X1282968D01*
X1280873Y439205D01*
X1279269Y437602D01*
X1278402Y435507D01*
Y433239D01*
X1279269Y431144D01*
X1279777Y430637D01*
X1279819Y429969D01*
Y397375D01*
X1263726Y381282D01*
X1253653D01*
X1252952Y382552D01*
X1253600Y384116D01*
Y386384D01*
X1252732Y388479D01*
X1251129Y390082D01*
X1249034Y390950D01*
X1246766D01*
X1245632Y390480D01*
X1245235Y390686D01*
X1244500Y391386D01*
Y393334D01*
X1243632Y395429D01*
X1242029Y397032D01*
X1239934Y397900D01*
X1237666D01*
X1235571Y397032D01*
X1233968Y395429D01*
X1233100Y393334D01*
Y392508D01*
X1233070Y392392D01*
X1233050Y392016D01*
X1233016Y391716D01*
X1232965Y391441D01*
X1232900Y391190D01*
X1232822Y390961D01*
X1232732Y390752D01*
X1232655Y390608D01*
X945446D01*
X935408Y400646D01*
Y418500D01*
X935179Y419651D01*
X934527Y420627D01*
X904827Y450327D01*
X903851Y450979D01*
X902700Y451208D01*
X890265D01*
X889113Y450979D01*
X888138Y450327D01*
X887808Y449997D01*
X887774Y449969D01*
X887614Y449851D01*
X887478Y449767D01*
X887371Y449713D01*
X887319Y449694D01*
X887184Y449750D01*
X884916D01*
X882821Y448882D01*
X881218Y447279D01*
X880350Y445184D01*
Y442916D01*
X881218Y440821D01*
X882821Y439218D01*
X884233Y438633D01*
X884573Y437177D01*
X878382Y430986D01*
X878303Y430925D01*
X878130Y430815D01*
X877944Y430718D01*
X877743Y430634D01*
X877522Y430564D01*
X877280Y430507D01*
X877014Y430465D01*
X876723Y430440D01*
X876354Y430433D01*
X876206Y430400D01*
X875216D01*
X873121Y429532D01*
X871518Y427929D01*
X870650Y425834D01*
Y423566D01*
X871518Y421471D01*
X873121Y419868D01*
X875216Y419000D01*
X877484D01*
X879579Y419868D01*
X881182Y421471D01*
X882050Y423566D01*
Y424556D01*
X882083Y424704D01*
X882090Y425073D01*
X882115Y425364D01*
X882157Y425630D01*
X882214Y425872D01*
X882284Y426092D01*
X882368Y426294D01*
X882465Y426480D01*
X882575Y426653D01*
X882636Y426732D01*
X883377Y427473D01*
X884550Y426987D01*
Y426920D01*
X885418Y424825D01*
X887021Y423221D01*
X887610Y422977D01*
X897900Y412687D01*
X897243Y411548D01*
X896528Y411740D01*
X894807D01*
X893143Y411294D01*
X892673Y411023D01*
X897082Y406614D01*
X901490Y402205D01*
X901762Y402675D01*
X902207Y404339D01*
Y406061D01*
X902016Y406775D01*
X903155Y407433D01*
X907283Y403304D01*
X907366Y403105D01*
Y392002D01*
X861959D01*
X861779Y392182D01*
X860818Y392580D01*
X827349Y426049D01*
X825629Y427198D01*
X823600Y427602D01*
X797554D01*
Y470011D01*
X853936D01*
X854855Y469854D01*
X855647Y469598D01*
X856281Y469266D01*
X856786Y468865D01*
X857196Y468379D01*
X857530Y467777D01*
X857788Y467027D01*
X857948Y466147D01*
Y465021D01*
X858352Y462992D01*
X859501Y461272D01*
X860578Y460194D01*
X861168Y458771D01*
X862771Y457168D01*
X864866Y456300D01*
X867134D01*
X869229Y457168D01*
X870334Y458273D01*
X871534Y458361D01*
X871880Y458159D01*
X873271Y456768D01*
X875366Y455900D01*
X877634D01*
X879729Y456768D01*
X881332Y458371D01*
X881760Y458456D01*
X883049Y457167D01*
X885144Y456299D01*
X887412D01*
X889507Y457167D01*
X890206Y457866D01*
X890335Y457948D01*
X890601Y458204D01*
X890824Y458392D01*
X891042Y458550D01*
X891253Y458681D01*
X891459Y458787D01*
X891661Y458871D01*
X891861Y458934D01*
X892061Y458978D01*
X892160Y458991D01*
X912555D01*
X914414Y457132D01*
X914475Y457053D01*
X914585Y456880D01*
X914682Y456694D01*
X914765Y456493D01*
X914836Y456272D01*
X914893Y456030D01*
X914935Y455764D01*
X914960Y455473D01*
X914967Y455104D01*
X915000Y454956D01*
Y453966D01*
X915868Y451871D01*
X917471Y450268D01*
X919566Y449400D01*
X921834D01*
X923929Y450268D01*
X925532Y451871D01*
X926400Y453966D01*
Y456234D01*
X925532Y458329D01*
X923929Y459932D01*
X921834Y460800D01*
X920844D01*
X920696Y460833D01*
X920327Y460840D01*
X920036Y460865D01*
X919770Y460907D01*
X919528Y460964D01*
X919308Y461035D01*
X919106Y461118D01*
X918920Y461215D01*
X918747Y461325D01*
X918668Y461386D01*
X915928Y464126D01*
X914952Y464778D01*
X913801Y465007D01*
X892160D01*
X892061Y465020D01*
X891860Y465064D01*
X891661Y465127D01*
X891459Y465211D01*
X891253Y465316D01*
X891042Y465447D01*
X890824Y465606D01*
X890601Y465794D01*
X890335Y466049D01*
X890206Y466132D01*
X889507Y466831D01*
X889079Y467008D01*
X888705Y468538D01*
X889400Y470216D01*
Y472484D01*
X888532Y474579D01*
X887833Y475278D01*
X887751Y475407D01*
X887495Y475673D01*
X887307Y475896D01*
X887149Y476114D01*
X887018Y476325D01*
X886912Y476531D01*
X886828Y476733D01*
X886765Y476932D01*
X886721Y477133D01*
X886708Y477232D01*
Y503000D01*
X886479Y504151D01*
X885827Y505127D01*
X876209Y514744D01*
X876695Y515918D01*
X973711D01*
X974096Y514648D01*
D02*
G37*
G36*
X782402Y506956D02*
X782731Y506703D01*
X783063Y506480D01*
X783399Y506286D01*
X783738Y506122D01*
X784082Y505988D01*
X784429Y505884D01*
X784780Y505810D01*
X785135Y505765D01*
X785493Y505750D01*
X785625Y503250D01*
X785260Y503234D01*
X784904Y503186D01*
X784556Y503106D01*
X784216Y502993D01*
X783886Y502849D01*
X783563Y502673D01*
X783249Y502464D01*
X782944Y502224D01*
X782646Y501951D01*
X782358Y501646D01*
X782078Y507239D01*
X782402Y506956D01*
D02*
G37*
G36*
X1008760Y503428D02*
X1008100Y501834D01*
Y499566D01*
X1008898Y497639D01*
Y495641D01*
X1008839Y494970D01*
X1008689Y494064D01*
X1008494Y493337D01*
X1008272Y492792D01*
X1008049Y492426D01*
X1007851Y492211D01*
X1007676Y492094D01*
X1007542Y492047D01*
X984700D01*
X983764Y491861D01*
X982970Y491330D01*
X982439Y490536D01*
X982253Y489600D01*
Y471000D01*
X982439Y470064D01*
X982970Y469270D01*
X983764Y468739D01*
X984700Y468553D01*
X1018249D01*
X1020551Y466251D01*
X1022271Y465102D01*
X1024300Y464698D01*
X1041160D01*
X1041646Y463525D01*
X1021740Y443618D01*
X1018934Y441148D01*
X1017587Y440123D01*
X1016396Y439335D01*
X1015487Y438847D01*
X984700D01*
X983764Y438661D01*
X982970Y438130D01*
X982439Y437336D01*
X982253Y436400D01*
Y417800D01*
X982439Y416864D01*
X982970Y416070D01*
X983764Y415539D01*
X984700Y415353D01*
X1022500D01*
X1023026Y414083D01*
X1020603Y411660D01*
X964142D01*
Y423698D01*
Y468384D01*
X963912Y470133D01*
X963236Y471763D01*
X962274Y473018D01*
X962208Y473192D01*
X962112Y473588D01*
X961666Y480324D01*
Y494313D01*
X962840Y494799D01*
X962871Y494768D01*
X964966Y493900D01*
X967234D01*
X969329Y494768D01*
X970932Y496371D01*
X971330Y497332D01*
X975460Y501462D01*
X976598Y500804D01*
X976560Y500661D01*
Y498939D01*
X977006Y497276D01*
X977277Y496806D01*
X981686Y501214D01*
X983100Y499800D01*
X984514Y501214D01*
X988923Y496806D01*
X989194Y497276D01*
X989640Y498939D01*
Y500661D01*
X989194Y502324D01*
X988557Y503428D01*
X989111Y504698D01*
X1008078D01*
X1008760Y503428D01*
D02*
G37*
G36*
X1104139Y495802D02*
X1105192Y494875D01*
X1105397Y494729D01*
X1105577Y494617D01*
X1105734Y494540D01*
X1105868Y494496D01*
X1105977Y494487D01*
X1102307Y490257D01*
X1102287Y490335D01*
X1102233Y490439D01*
X1102146Y490572D01*
X1102025Y490731D01*
X1101685Y491132D01*
X1100603Y492261D01*
X1103817Y496119D01*
X1104139Y495802D01*
D02*
G37*
G36*
X1017735Y495947D02*
X1017840Y494752D01*
X1018015Y493697D01*
X1018260Y492783D01*
X1018575Y492010D01*
X1018960Y491377D01*
X1019415Y490885D01*
X1019940Y490533D01*
X1020535Y490322D01*
X1021200Y490252D01*
X1007200D01*
X1007865Y490322D01*
X1008460Y490533D01*
X1008985Y490885D01*
X1009440Y491377D01*
X1009825Y492010D01*
X1010140Y492783D01*
X1010385Y493697D01*
X1010560Y494752D01*
X1010665Y495947D01*
X1010700Y497283D01*
X1017700D01*
X1017735Y495947D01*
D02*
G37*
G36*
X811652Y488973D02*
X811941Y488758D01*
X812242Y488580D01*
X812555Y488440D01*
X812880Y488337D01*
X813217Y488271D01*
X813566Y488243D01*
X813927Y488252D01*
X814300Y488298D01*
X814685Y488382D01*
X811811Y483576D01*
X811698Y484008D01*
X811432Y484811D01*
X811278Y485183D01*
X810932Y485865D01*
X810739Y486175D01*
X810532Y486466D01*
X810312Y486736D01*
X810079Y486986D01*
X811375Y489226D01*
X811652Y488973D01*
D02*
G37*
G36*
X746643Y486034D02*
X746380Y485721D01*
X746147Y485402D01*
X745946Y485077D01*
X745775Y484745D01*
X745636Y484408D01*
X745527Y484065D01*
X745450Y483715D01*
X745403Y483359D01*
X745388Y482998D01*
X742888D01*
X742872Y483359D01*
X742826Y483715D01*
X742748Y484065D01*
X742640Y484408D01*
X742500Y484745D01*
X742330Y485077D01*
X742128Y485402D01*
X741896Y485721D01*
X741632Y486034D01*
X741338Y486341D01*
X746938D01*
X746643Y486034D01*
D02*
G37*
G36*
X745400Y480131D02*
X745438Y479706D01*
X745500Y479332D01*
X745588Y479007D01*
X745700Y478731D01*
X745838Y478507D01*
X746000Y478331D01*
X746188Y478206D01*
X746400Y478131D01*
X746638Y478106D01*
X741638D01*
X741875Y478131D01*
X742088Y478206D01*
X742275Y478331D01*
X742438Y478507D01*
X742575Y478731D01*
X742688Y479007D01*
X742775Y479332D01*
X742838Y479706D01*
X742875Y480131D01*
X742888Y480606D01*
X745388D01*
X745400Y480131D01*
D02*
G37*
G36*
X884966Y477188D02*
X885012Y476832D01*
X885089Y476483D01*
X885198Y476139D01*
X885338Y475802D01*
X885508Y475471D01*
X885710Y475146D01*
X885942Y474827D01*
X886206Y474514D01*
X886500Y474207D01*
X880900D01*
X881195Y474514D01*
X881458Y474827D01*
X881691Y475146D01*
X881892Y475471D01*
X882063Y475802D01*
X882202Y476139D01*
X882310Y476483D01*
X882388Y476832D01*
X882434Y477188D01*
X882450Y477550D01*
X884950D01*
X884966Y477188D01*
D02*
G37*
G36*
X959894Y480850D02*
X960393Y473326D01*
X960548Y472682D01*
X960725Y472212D01*
X960922Y471917D01*
X959985D01*
X959992Y471808D01*
X960031Y471604D01*
X960076Y471441D01*
X960127Y471320D01*
X960184Y471241D01*
X954584D01*
X954641Y471320D01*
X954692Y471441D01*
X954737Y471604D01*
X954776Y471808D01*
X954791Y471917D01*
X953846D01*
X954043Y472212D01*
X954220Y472682D01*
X954376Y473326D01*
X954510Y474144D01*
X954718Y476303D01*
X954874Y480850D01*
X954884Y482714D01*
X959884D01*
X959894Y480850D01*
D02*
G37*
G36*
X735102Y474472D02*
X734694Y473738D01*
X734528Y473375D01*
X734388Y473015D01*
X734273Y472657D01*
X734183Y472303D01*
X734119Y471950D01*
X734081Y471601D01*
X734069Y471254D01*
X731569Y470733D01*
X731551Y471105D01*
X731500Y471462D01*
X731414Y471803D01*
X731294Y472129D01*
X731139Y472440D01*
X730950Y472735D01*
X730726Y473014D01*
X730469Y473279D01*
X730177Y473527D01*
X729850Y473760D01*
X735344Y474843D01*
X735102Y474472D01*
D02*
G37*
G36*
X866750Y475313D02*
X859750Y465021D01*
X859680Y466311D01*
X859470Y467466D01*
X859120Y468485D01*
X858630Y469368D01*
X858000Y470115D01*
X857230Y470726D01*
X856320Y471202D01*
X855270Y471541D01*
X854080Y471745D01*
X852750Y471813D01*
Y478813D01*
X854080Y478883D01*
X855270Y479093D01*
X856320Y479443D01*
X857230Y479933D01*
X858000Y480563D01*
X858630Y481333D01*
X859120Y482243D01*
X859470Y483293D01*
X859680Y484483D01*
X859750Y485813D01*
X866750Y475313D01*
D02*
G37*
G36*
X877766Y467438D02*
X877812Y467082D01*
X877889Y466733D01*
X877998Y466389D01*
X878138Y466052D01*
X878308Y465721D01*
X878510Y465396D01*
X878742Y465076D01*
X879006Y464763D01*
X879300Y464457D01*
X873700D01*
X873995Y464763D01*
X874258Y465076D01*
X874491Y465396D01*
X874692Y465721D01*
X874863Y466052D01*
X875002Y466389D01*
X875110Y466733D01*
X875188Y467082D01*
X875235Y467438D01*
X875250Y467800D01*
X877750D01*
X877766Y467438D01*
D02*
G37*
G36*
X889441Y464504D02*
X889754Y464241D01*
X890073Y464008D01*
X890399Y463807D01*
X890730Y463636D01*
X891067Y463497D01*
X891411Y463388D01*
X891760Y463311D01*
X892116Y463264D01*
X892478Y463249D01*
Y460749D01*
X892116Y460733D01*
X891760Y460687D01*
X891411Y460609D01*
X891067Y460501D01*
X890730Y460361D01*
X890399Y460191D01*
X890073Y459989D01*
X889754Y459757D01*
X889442Y459493D01*
X889135Y459199D01*
X889135Y464799D01*
X889441Y464504D01*
D02*
G37*
G36*
X727906Y461637D02*
X727642Y461324D01*
X727410Y461004D01*
X727208Y460679D01*
X727038Y460348D01*
X726898Y460011D01*
X726789Y459667D01*
X726712Y459318D01*
X726665Y458962D01*
X726650Y458600D01*
X724150D01*
X724135Y458962D01*
X724088Y459318D01*
X724010Y459667D01*
X723902Y460011D01*
X723763Y460348D01*
X723592Y460679D01*
X723391Y461004D01*
X723158Y461324D01*
X722895Y461637D01*
X722600Y461943D01*
X728200D01*
X727906Y461637D01*
D02*
G37*
G36*
X917467Y460123D02*
X917751Y459904D01*
X918053Y459712D01*
X918373Y459546D01*
X918710Y459406D01*
X919065Y459292D01*
X919437Y459205D01*
X919827Y459144D01*
X920235Y459109D01*
X920660Y459100D01*
X916700Y455140D01*
X916691Y455565D01*
X916656Y455973D01*
X916595Y456363D01*
X916508Y456735D01*
X916394Y457090D01*
X916254Y457427D01*
X916088Y457747D01*
X915896Y458049D01*
X915677Y458333D01*
X915432Y458600D01*
X917200Y460368D01*
X917467Y460123D01*
D02*
G37*
G36*
X891148Y447316D02*
X890889Y447043D01*
X890661Y446773D01*
X890465Y446508D01*
X890301Y446248D01*
X890168Y445991D01*
X890068Y445739D01*
X889999Y445491D01*
X889962Y445247D01*
X889958Y445007D01*
X889984Y444772D01*
X886861Y447967D01*
X887095Y447935D01*
X887334Y447934D01*
X887576Y447966D01*
X887822Y448030D01*
X888072Y448126D01*
X888326Y448254D01*
X888584Y448413D01*
X888845Y448605D01*
X889111Y448828D01*
X889381Y449084D01*
X891148Y447316D01*
D02*
G37*
G36*
X1289054Y448469D02*
X1289090Y448328D01*
X1289161Y448165D01*
X1289267Y447979D01*
X1289408Y447770D01*
X1289584Y447538D01*
X1290041Y447008D01*
X1290638Y446386D01*
X1286433Y443520D01*
X1284566Y445236D01*
X1289053Y448586D01*
X1289054Y448469D01*
D02*
G37*
G36*
X737806Y431025D02*
X737783Y431227D01*
X737712Y431408D01*
X737595Y431568D01*
X737430Y431707D01*
X737219Y431824D01*
X736961Y431920D01*
X736656Y431995D01*
X736304Y432048D01*
X735905Y432080D01*
X735460Y432090D01*
Y434590D01*
X735905Y434601D01*
X736304Y434633D01*
X736656Y434686D01*
X736961Y434761D01*
X737219Y434857D01*
X737430Y434974D01*
X737595Y435113D01*
X737712Y435273D01*
X737783Y435454D01*
X737806Y435657D01*
Y431025D01*
D02*
G37*
G36*
X1286845Y431437D02*
X1286794Y431316D01*
X1286749Y431153D01*
X1286710Y430949D01*
X1286677Y430703D01*
X1286629Y430087D01*
X1286602Y428851D01*
X1281602D01*
X1281599Y429304D01*
X1281494Y430949D01*
X1281455Y431153D01*
X1281410Y431316D01*
X1281359Y431437D01*
X1281302Y431517D01*
X1286902D01*
X1286845Y431437D01*
D02*
G37*
G36*
X881618Y428200D02*
X881373Y427933D01*
X881154Y427649D01*
X880962Y427347D01*
X880796Y427027D01*
X880656Y426690D01*
X880542Y426335D01*
X880455Y425963D01*
X880394Y425573D01*
X880359Y425165D01*
X880350Y424740D01*
X876390Y428700D01*
X876815Y428709D01*
X877223Y428744D01*
X877613Y428805D01*
X877985Y428892D01*
X878340Y429006D01*
X878677Y429146D01*
X878997Y429312D01*
X879299Y429504D01*
X879583Y429723D01*
X879850Y429968D01*
X881618Y428200D01*
D02*
G37*
G36*
X917416Y418163D02*
X917465Y418042D01*
X917549Y417895D01*
X917665Y417723D01*
X917816Y417526D01*
X918218Y417056D01*
X919073Y416163D01*
X915537Y412627D01*
X915214Y412946D01*
X913977Y414035D01*
X913805Y414151D01*
X913658Y414235D01*
X913537Y414284D01*
X913440Y414300D01*
X917400Y418260D01*
X917416Y418163D01*
D02*
G37*
G36*
X793143Y409700D02*
X793064Y409757D01*
X792943Y409808D01*
X792780Y409853D01*
X792576Y409892D01*
X792330Y409925D01*
X791714Y409973D01*
X790478Y410000D01*
Y415000D01*
X790931Y415003D01*
X792576Y415108D01*
X792780Y415147D01*
X792943Y415192D01*
X793064Y415243D01*
X793143Y415300D01*
Y409700D01*
D02*
G37*
G36*
X793443Y398900D02*
X793137Y399194D01*
X792823Y399458D01*
X792504Y399691D01*
X792179Y399892D01*
X791848Y400062D01*
X791511Y400202D01*
X791167Y400311D01*
X790818Y400388D01*
X790462Y400434D01*
X790100Y400450D01*
Y402950D01*
X790462Y402966D01*
X790818Y403012D01*
X791167Y403089D01*
X791511Y403198D01*
X791848Y403338D01*
X792179Y403508D01*
X792504Y403709D01*
X792823Y403942D01*
X793137Y404206D01*
X793443Y404500D01*
Y398900D01*
D02*
G37*
G36*
X793588Y389201D02*
X793281Y389496D01*
X792968Y389759D01*
X792649Y389992D01*
X792324Y390193D01*
X791993Y390364D01*
X791655Y390503D01*
X791312Y390612D01*
X790962Y390689D01*
X790607Y390736D01*
X790245Y390751D01*
Y393251D01*
X790607Y393267D01*
X790962Y393313D01*
X791312Y393391D01*
X791655Y393499D01*
X791993Y393639D01*
X792324Y393809D01*
X792649Y394011D01*
X792968Y394243D01*
X793281Y394507D01*
X793588Y394801D01*
Y389201D01*
D02*
G37*
G36*
X773201Y394482D02*
X773522Y394224D01*
X773847Y393996D01*
X774178Y393798D01*
X774514Y393631D01*
X774854Y393494D01*
X775199Y393388D01*
X775550Y393312D01*
X775905Y393266D01*
X776265Y393251D01*
X776331Y390751D01*
X775968Y390735D01*
X775612Y390688D01*
X775264Y390609D01*
X774922Y390499D01*
X774588Y390357D01*
X774261Y390183D01*
X773941Y389978D01*
X773629Y389741D01*
X773324Y389473D01*
X773026Y389173D01*
X772885Y394771D01*
X773201Y394482D01*
D02*
G37*
G36*
X1238622Y388204D02*
X1238200Y388209D01*
X1237796Y388186D01*
X1237408Y388136D01*
X1237038Y388057D01*
X1236684Y387951D01*
X1236348Y387817D01*
X1236028Y387654D01*
X1235726Y387464D01*
X1235440Y387246D01*
X1235172Y387000D01*
X1233469Y388832D01*
X1233712Y389097D01*
X1233931Y389380D01*
X1234126Y389681D01*
X1234296Y390001D01*
X1234441Y390338D01*
X1234562Y390694D01*
X1234659Y391068D01*
X1234731Y391460D01*
X1234778Y391870D01*
X1234801Y392299D01*
X1238622Y388204D01*
D02*
G37*
G36*
X1245297Y382213D02*
X1245274Y382219D01*
X1245238Y382210D01*
X1245190Y382185D01*
X1245129Y382144D01*
X1245055Y382087D01*
X1244869Y381926D01*
X1244496Y381566D01*
X1242728Y383334D01*
X1243962Y384549D01*
X1245297Y382213D01*
D02*
G37*
G36*
X908114Y377176D02*
X908163Y377053D01*
X908246Y376904D01*
X908362Y376731D01*
X908512Y376533D01*
X908913Y376062D01*
X909768Y375168D01*
X906192Y371673D01*
X905869Y371991D01*
X904635Y373082D01*
X904464Y373199D01*
X904319Y373283D01*
X904199Y373333D01*
X904105Y373350D01*
X908099Y377275D01*
X908114Y377176D01*
D02*
G37*
%LPC*%
G36*
X1267947Y465978D02*
X1267676Y465508D01*
X1267230Y463845D01*
Y462123D01*
X1267676Y460459D01*
X1267947Y459989D01*
X1270941Y462984D01*
X1267947Y465978D01*
D02*
G37*
G36*
X1273770Y460155D02*
X1270776Y457161D01*
X1271246Y456889D01*
X1272909Y456444D01*
X1274631D01*
X1276294Y456889D01*
X1276764Y457161D01*
X1273770Y460155D01*
D02*
G37*
G36*
X1187773Y455150D02*
X1185967D01*
X1185395Y454913D01*
X1186870Y453438D01*
X1188345Y454913D01*
X1187773Y455150D01*
D02*
G37*
G36*
X1172773D02*
X1170967D01*
X1170395Y454913D01*
X1171870Y453438D01*
X1173345Y454913D01*
X1172773Y455150D01*
D02*
G37*
G36*
X1167567Y452085D02*
X1167330Y451513D01*
Y449707D01*
X1167567Y449135D01*
X1169042Y450610D01*
X1167567Y452085D01*
D02*
G37*
G36*
X1191173Y452085D02*
X1189698Y450610D01*
X1191173Y449135D01*
X1191410Y449707D01*
Y451513D01*
X1191173Y452085D01*
D02*
G37*
G36*
X828524Y450342D02*
X826276D01*
X824104Y449761D01*
X822941Y449090D01*
X827400Y444631D01*
X831859Y449090D01*
X830696Y449761D01*
X828524Y450342D01*
D02*
G37*
G36*
X1098717Y446628D02*
X1094258Y442170D01*
X1098717Y437711D01*
X1099388Y438874D01*
X1099970Y441046D01*
Y443294D01*
X1099388Y445466D01*
X1098717Y446628D01*
D02*
G37*
G36*
X834687Y446261D02*
X830228Y441802D01*
X834687Y437344D01*
X835358Y438506D01*
X835940Y440678D01*
Y442927D01*
X835358Y445099D01*
X834687Y446261D01*
D02*
G37*
G36*
X820113Y446261D02*
X819442Y445099D01*
X818860Y442927D01*
Y440678D01*
X819442Y438506D01*
X820113Y437344D01*
X824572Y441802D01*
X820113Y446261D01*
D02*
G37*
G36*
X1167567Y437085D02*
X1167330Y436513D01*
Y434707D01*
X1167567Y434135D01*
X1169042Y435610D01*
X1167567Y437085D01*
D02*
G37*
G36*
X1191173Y437085D02*
X1189698Y435610D01*
X1191173Y434135D01*
X1191410Y434707D01*
Y436513D01*
X1191173Y437085D01*
D02*
G37*
G36*
X827400Y438974D02*
X822941Y434515D01*
X824104Y433844D01*
X826276Y433262D01*
X828524D01*
X830696Y433844D01*
X831859Y434515D01*
X827400Y438974D01*
D02*
G37*
G36*
X1176173Y452085D02*
X1173284Y449196D01*
X1170395Y446307D01*
X1170967Y446070D01*
X1171161D01*
X1171895Y444800D01*
X1171142Y443496D01*
X1170560Y441324D01*
Y439981D01*
X1170395Y439913D01*
X1173284Y437024D01*
X1171870Y435610D01*
X1173284Y434196D01*
X1170395Y431307D01*
X1170967Y431070D01*
X1172773D01*
X1174442Y431761D01*
X1175245Y432565D01*
X1175804Y432242D01*
X1177976Y431660D01*
X1180224D01*
X1182396Y432242D01*
X1183297Y432762D01*
X1184298Y431761D01*
X1185967Y431070D01*
X1187773D01*
X1188345Y431307D01*
X1185456Y434196D01*
X1186870Y435610D01*
X1185456Y437024D01*
X1188345Y439913D01*
X1187773Y440150D01*
X1187640D01*
Y441324D01*
X1187058Y443496D01*
X1186305Y444800D01*
X1187039Y446070D01*
X1187773D01*
X1188345Y446307D01*
X1185456Y449196D01*
X1182567Y452085D01*
X1182330Y451513D01*
Y449707D01*
X1182431Y449464D01*
X1181497Y448399D01*
X1180224Y448740D01*
X1177976D01*
X1177310Y448562D01*
X1176377Y449626D01*
X1176410Y449707D01*
Y451513D01*
X1176173Y452085D01*
D02*
G37*
G36*
X1240461Y427340D02*
X1238739D01*
X1237076Y426894D01*
X1236606Y426623D01*
X1239600Y423628D01*
X1242594Y426623D01*
X1242124Y426894D01*
X1240461Y427340D01*
D02*
G37*
G36*
X1187773Y425150D02*
X1185967D01*
X1185395Y424913D01*
X1186870Y423438D01*
X1188345Y424913D01*
X1187773Y425150D01*
D02*
G37*
G36*
X1172773D02*
X1170967D01*
X1170395Y424913D01*
X1171870Y423438D01*
X1173345Y424913D01*
X1172773Y425150D01*
D02*
G37*
G36*
X1182567Y422085D02*
X1182330Y421513D01*
Y419707D01*
X1182567Y419135D01*
X1184042Y420610D01*
X1182567Y422085D01*
D02*
G37*
G36*
X1167567D02*
X1167330Y421513D01*
Y419707D01*
X1167567Y419135D01*
X1169042Y420610D01*
X1167567Y422085D01*
D02*
G37*
G36*
X1191173Y422085D02*
X1189698Y420610D01*
X1191173Y419135D01*
X1191410Y419707D01*
Y421513D01*
X1191173Y422085D01*
D02*
G37*
G36*
X1176173D02*
X1174698Y420610D01*
X1176173Y419135D01*
X1176410Y419707D01*
Y421513D01*
X1176173Y422085D01*
D02*
G37*
G36*
X1245423Y423795D02*
X1242428Y420800D01*
X1245423Y417806D01*
X1245694Y418276D01*
X1246140Y419939D01*
Y421661D01*
X1245694Y423324D01*
X1245423Y423795D01*
D02*
G37*
G36*
X1233777D02*
X1233506Y423324D01*
X1233060Y421661D01*
Y419939D01*
X1233506Y418276D01*
X1233777Y417805D01*
X1236771Y420800D01*
X1233777Y423795D01*
D02*
G37*
G36*
X1186870Y417782D02*
X1185395Y416307D01*
X1185967Y416070D01*
X1187773D01*
X1188345Y416307D01*
X1186870Y417782D01*
D02*
G37*
G36*
X1171870D02*
X1170395Y416307D01*
X1170967Y416070D01*
X1172773D01*
X1173345Y416307D01*
X1171870Y417782D01*
D02*
G37*
G36*
X1239600Y417972D02*
X1236606Y414977D01*
X1237076Y414706D01*
X1238739Y414260D01*
X1240461D01*
X1242124Y414706D01*
X1242594Y414977D01*
X1239600Y417972D01*
D02*
G37*
G36*
X889845Y408194D02*
X889573Y407724D01*
X889128Y406061D01*
Y404339D01*
X889573Y402675D01*
X889845Y402205D01*
X892839Y405200D01*
X889845Y408194D01*
D02*
G37*
G36*
X895667Y402371D02*
X892673Y399377D01*
X893143Y399105D01*
X894807Y398660D01*
X896528D01*
X898192Y399105D01*
X898662Y399377D01*
X895667Y402371D01*
D02*
G37*
G36*
X1115759Y430158D02*
X1066381D01*
X1064632Y429928D01*
X1063002Y429252D01*
X1061603Y428178D01*
X1058684Y425259D01*
X1057138Y424845D01*
X1055382Y423831D01*
X1053948Y422398D01*
X1052935Y420642D01*
X1052410Y418684D01*
Y416656D01*
X1052935Y414698D01*
X1053948Y412942D01*
X1055382Y411508D01*
X1057138Y410495D01*
X1059096Y409970D01*
X1061124D01*
X1063082Y410495D01*
X1064838Y411508D01*
X1066272Y412942D01*
X1067285Y414698D01*
X1067303Y414765D01*
X1069180Y416642D01*
X1084246D01*
X1084873Y415372D01*
X1084648Y415079D01*
X1083972Y413449D01*
X1083742Y411700D01*
X1083972Y409951D01*
X1084648Y408321D01*
X1085722Y406922D01*
X1085722Y406922D01*
X1093321Y399322D01*
X1094721Y398248D01*
X1096351Y397573D01*
X1098100Y397342D01*
X1191660D01*
X1193409Y397573D01*
X1195039Y398248D01*
X1196439Y399322D01*
X1202669Y405552D01*
X1203742Y406951D01*
X1204418Y408581D01*
X1204648Y410330D01*
X1205113Y410860D01*
X1205254D01*
X1207349Y411728D01*
X1208952Y413331D01*
X1209820Y415426D01*
Y417694D01*
X1208952Y419789D01*
X1207349Y421392D01*
X1205254Y422260D01*
X1202986D01*
X1200891Y421392D01*
X1199288Y419789D01*
X1198420Y417694D01*
Y417553D01*
X1197890Y417088D01*
X1196141Y416858D01*
X1194511Y416183D01*
X1193112Y415108D01*
X1188861Y410858D01*
X1142507D01*
X1142260Y411454D01*
X1142094Y412128D01*
X1143075Y413828D01*
X1143600Y415786D01*
Y417814D01*
X1143075Y419772D01*
X1142061Y421528D01*
X1140628Y422962D01*
X1138872Y423975D01*
X1136914Y424500D01*
X1134886D01*
X1132928Y423975D01*
X1132291Y423608D01*
X1126582D01*
X1125772Y424075D01*
X1124226Y424489D01*
X1120537Y428178D01*
X1119138Y429252D01*
X1117508Y429927D01*
X1115759Y430158D01*
D02*
G37*
G36*
X983100Y496972D02*
X980106Y493977D01*
X980576Y493706D01*
X982239Y493260D01*
X983961D01*
X985624Y493706D01*
X986095Y493977D01*
X983100Y496972D01*
D02*
G37*
G36*
X974961Y448740D02*
X973239D01*
X971576Y448294D01*
X971106Y448023D01*
X974100Y445028D01*
X977094Y448023D01*
X976624Y448294D01*
X974961Y448740D01*
D02*
G37*
G36*
X979923Y445195D02*
X976928Y442200D01*
X979923Y439206D01*
X980194Y439676D01*
X980640Y441339D01*
Y443061D01*
X980194Y444724D01*
X979923Y445195D01*
D02*
G37*
G36*
X968277D02*
X968006Y444724D01*
X967560Y443061D01*
Y441339D01*
X968006Y439676D01*
X968277Y439206D01*
X971272Y442200D01*
X968277Y445195D01*
D02*
G37*
G36*
X974100Y439372D02*
X971106Y436377D01*
X971576Y436106D01*
X973239Y435660D01*
X974961D01*
X976624Y436106D01*
X977094Y436377D01*
X974100Y439372D01*
D02*
G37*
%LPD*%
G36*
X1331331Y392529D02*
X1331361Y381769D01*
X1331302Y381920D01*
X1331127Y382054D01*
X1330836Y382173D01*
X1330428Y382275D01*
X1329905Y382362D01*
X1329264Y382434D01*
X1327635Y382528D01*
X1325540Y382560D01*
Y392560D01*
X1331331Y392529D01*
D02*
G37*
D10*
X773800Y452617D02*
X781564Y444852D01*
X773800Y452617D02*
Y473400D01*
X744138Y476062D02*
X746000Y474200D01*
X752392Y503698D02*
X753444Y504750D01*
X717205Y457000D02*
Y472093D01*
X732045Y477104D02*
X732819Y476331D01*
X744138Y476062D02*
Y489197D01*
X717205Y472093D02*
X748809Y503698D01*
X732819Y435981D02*
Y476331D01*
X748809Y503698D02*
X752392D01*
X1356300Y454900D02*
X1363200Y461800D01*
X1368535D01*
X886278Y461999D02*
X913801D01*
X920700Y455100D01*
X849250Y514750D02*
X871950D01*
X840738Y506237D02*
X849250Y514750D01*
X840500Y506237D02*
X840738D01*
X838250Y503988D02*
X840500Y506237D01*
X735460Y433340D02*
X742960D01*
X732819Y435981D02*
X735460Y433340D01*
X725400Y413500D02*
Y461800D01*
Y413500D02*
X737200Y401700D01*
X779565Y504500D02*
X794333D01*
X779365Y504300D02*
X779565Y504500D01*
X890265Y448200D02*
X902700D01*
X886114Y444050D02*
X890265Y448200D01*
X886050Y444050D02*
X886114D01*
X902700Y448200D02*
X932400Y418500D01*
X876500Y461600D02*
Y501909D01*
X770201Y392001D02*
X796445D01*
X770100Y391900D02*
X770201Y392001D01*
X737200Y401700D02*
X796300D01*
X713005Y418769D02*
X717205Y422970D01*
Y457000D01*
X713005Y417987D02*
Y418769D01*
X710318Y415300D02*
X713005Y417987D01*
X706000Y415300D02*
X710318D01*
X706000Y456200D02*
X710318D01*
Y457000D02*
X717205D01*
X871950Y514750D02*
X883700Y503000D01*
X867972Y510438D02*
X876500Y501909D01*
X857538Y510438D02*
X867972D01*
X853337Y506237D02*
X857538Y510438D01*
X853000Y506237D02*
X853337D01*
X850750Y503988D02*
X853000Y506237D01*
X794333Y504500D02*
X814320Y484513D01*
X815700D01*
X883700Y471350D02*
Y503000D01*
X939050Y382450D02*
X1243612D01*
X1246412Y385250D02*
X1247900D01*
X1243612Y382450D02*
X1246412Y385250D01*
X944200Y387600D02*
X1234004D01*
X1238604Y392200D02*
X1238800D01*
X1234004Y387600D02*
X1238604Y392200D01*
X926318Y395182D02*
X939050Y382450D01*
X932400Y399400D02*
X944200Y387600D01*
X932400Y399400D02*
Y418500D01*
X876350Y424700D02*
X887450Y435800D01*
X905925D01*
X926318Y395182D02*
Y415407D01*
X905925Y435800D02*
X926318Y415407D01*
X850750Y495988D02*
Y503988D01*
X781564Y444852D02*
X783053D01*
D16*
X1171870Y435610D02*
D03*
X1186870D02*
D03*
Y420610D02*
D03*
X1171870D02*
D03*
Y450610D02*
D03*
X1186870D02*
D03*
D70*
X1077900Y442200D02*
X1179500D01*
X827400Y441802D02*
X863902Y405300D01*
X890934D01*
X1066500Y442200D02*
X1077900D01*
D72*
X711755Y475637D02*
Y476906D01*
X748975Y514126D02*
X750026D01*
X711755Y476906D02*
X748975Y514126D01*
X904100Y377300D02*
Y377350D01*
X954600Y507988D02*
X957384Y505204D01*
Y468384D02*
Y505204D01*
X954600Y507988D02*
Y508800D01*
X781500Y520200D02*
X1076200D01*
X1105900Y490500D01*
X758500Y497200D02*
X781500Y520200D01*
X750026Y514126D02*
X750600Y514700D01*
X758500Y418706D02*
Y497200D01*
X706000Y474200D02*
X710318D01*
X711755Y475637D01*
X764706Y412500D02*
X796000D01*
X758500Y418706D02*
X764706Y412500D01*
X1105900Y490500D02*
X1106300D01*
X1292302Y392002D02*
Y441186D01*
X1270200Y369900D02*
X1292302Y392002D01*
X1285100Y448388D02*
X1292302Y441186D01*
X904100Y377300D02*
X911500Y369900D01*
X1270200D01*
X1285100Y448388D02*
Y449200D01*
X935200Y377000D02*
X1265500D01*
X1284102Y395602D01*
Y434373D01*
X920867Y391333D02*
X935200Y377000D01*
X920867Y391333D02*
Y410832D01*
X913400Y418300D02*
X920867Y410832D01*
D74*
X1051416Y478100D02*
X1077405D01*
X1055020Y469400D02*
X1081804D01*
X1020500Y434880D02*
X1055020Y469400D01*
X1077405Y478100D02*
X1080105Y480800D01*
X1043316Y470000D02*
X1051416Y478100D01*
X1081804Y469400D02*
X1085704Y473300D01*
X1004000Y480300D02*
X1006900D01*
X1008007D02*
X1014000D01*
X1006900D02*
X1008007D01*
X1080105Y480800D02*
X1080375D01*
X976500Y510000D02*
X1024100D01*
X966100Y499600D02*
X976500Y510000D01*
X823600Y422300D02*
X858550Y387350D01*
X792197Y422300D02*
X823600D01*
X792253Y422355D02*
Y474100D01*
X766700Y422103D02*
X792000D01*
X792197Y422300D01*
X792253Y422355D01*
X1024100Y510000D02*
X1038100Y496000D01*
Y479200D02*
Y496000D01*
X1014200Y486493D02*
Y500029D01*
X1013800Y500429D02*
X1014200Y500029D01*
X1013800Y500429D02*
Y500700D01*
X1008007Y480300D02*
X1014200Y486493D01*
X1024300Y470000D02*
X1043316D01*
X1014000Y480300D02*
X1024300Y470000D01*
X1085704Y473300D02*
X1085886D01*
X1089986Y477400D02*
X1116700D01*
X1085886Y473300D02*
X1089986Y477400D01*
X1020500Y433600D02*
Y434880D01*
X1014000Y427100D02*
X1020500Y433600D01*
X1004000Y427100D02*
X1014000D01*
X863250Y465021D02*
X866000Y462271D01*
Y462000D02*
Y462271D01*
X863250Y465021D02*
Y475313D01*
X912667Y387300D02*
Y405200D01*
X858821Y387350D02*
X859471Y386700D01*
X917496Y382098D02*
Y382368D01*
X916996Y382868D02*
Y382971D01*
X913267Y386700D02*
X916996Y382971D01*
X912667Y387300D02*
X913267Y386700D01*
X858550Y387350D02*
X858821D01*
X916996Y382868D02*
X917496Y382368D01*
X859471Y386700D02*
X913267D01*
X912667Y405200D02*
Y405418D01*
X890250Y427835D02*
X912667Y405418D01*
X890250Y427835D02*
Y428053D01*
X793465Y475313D02*
X863250D01*
X792253Y474100D02*
Y493575D01*
Y474100D02*
X793465Y475313D01*
X789048Y496780D02*
X792253Y493575D01*
X789048Y496780D02*
Y497050D01*
X863250Y475313D02*
Y495988D01*
D75*
X1350960Y435400D02*
X1351300Y435740D01*
X1339000Y435400D02*
X1350960D01*
X1349020D02*
X1351300Y433120D01*
X1339000Y435400D02*
X1349020D01*
X1351300Y429900D02*
Y433120D01*
X1090400Y463100D02*
X1122900D01*
X1089929D02*
X1090400D01*
X1306700Y406400D02*
X1325540Y387560D01*
X1348680D01*
X1351300Y384940D01*
X1351700Y412960D02*
Y418200D01*
X1349340Y410600D02*
X1351700Y412960D01*
X1344600Y410600D02*
X1349340D01*
X974100Y442200D02*
Y490800D01*
X983100Y499800D01*
X957384Y404902D02*
Y423698D01*
Y468384D01*
X1059583Y458900D02*
X1085729D01*
X1089929Y463100D01*
X1049800Y431300D02*
Y449117D01*
X1059583Y458900D01*
X1306435Y423500D02*
Y446865D01*
X1271362Y481938D02*
X1306435Y446865D01*
X1268433Y484867D02*
X1271362Y481938D01*
X1144667Y484867D02*
X1268433D01*
X1023402Y404902D02*
X1049800Y431300D01*
X957384Y404902D02*
X1023402D01*
X1257414Y420800D02*
X1273770Y437156D01*
Y462984D01*
X1122900Y463100D02*
X1144667Y484867D01*
X1150304Y473100D02*
X1185680D01*
X1204120Y454660D01*
X1060651Y417670D02*
X1066381Y423400D01*
X1060110Y417670D02*
X1060651D01*
X1066381Y423400D02*
X1115759D01*
X1090500Y411700D02*
X1098100Y404100D01*
X1090500Y411700D02*
X1090500D01*
X1098100Y404100D02*
X1191660D01*
X1122800Y416850D02*
X1135850D01*
X1191660Y404100D02*
X1197890Y410330D01*
X1239600Y420800D02*
X1257414D01*
X1115759Y423400D02*
X1122309Y416850D01*
X1135850D02*
X1135900Y416800D01*
D82*
X1386300Y503300D02*
D03*
Y386498D02*
D03*
X716400Y386605D02*
D03*
Y503202D02*
D03*
X1135200Y471000D02*
D03*
X827400Y441802D02*
D03*
X1179100Y440200D02*
D03*
X1064200Y442200D02*
D03*
X1077900D02*
D03*
X1091430Y442170D02*
D03*
X1060110Y417670D02*
D03*
X1122800Y416900D02*
D03*
X1135900Y416800D02*
D03*
D83*
X1060100Y497800D02*
D03*
Y486800D02*
D03*
X728000Y518000D02*
D03*
X700000Y378000D02*
D03*
X1379000Y476000D02*
D03*
X1407000Y420000D02*
D03*
X1302000Y378000D02*
D03*
X1323000Y448000D02*
D03*
X1267000Y392000D02*
D03*
X1092000Y518000D02*
D03*
X1001000Y448000D02*
D03*
X1400000Y378000D02*
D03*
X1393000Y476000D02*
D03*
X1379000Y448000D02*
D03*
X749000Y392000D02*
D03*
X1407000Y504000D02*
D03*
X812000Y378000D02*
D03*
X1386000Y462000D02*
D03*
X1323000Y420000D02*
D03*
X700000Y490000D02*
D03*
X1379000Y420000D02*
D03*
X1407000Y448000D02*
D03*
X1400000Y490000D02*
D03*
X819000Y392000D02*
D03*
X1400000Y434000D02*
D03*
X1407000Y476000D02*
D03*
Y392000D02*
D03*
X1400000Y406000D02*
D03*
X756000Y378000D02*
D03*
X826000D02*
D03*
X1393000Y420000D02*
D03*
X1078000Y406000D02*
D03*
X1015000Y448000D02*
D03*
X987000D02*
D03*
X1400000Y462000D02*
D03*
X770000Y378000D02*
D03*
X735000Y392000D02*
D03*
X1176000Y462000D02*
D03*
X1386000Y434000D02*
D03*
X742000Y378000D02*
D03*
X1295000Y504000D02*
D03*
X1393000Y448000D02*
D03*
X1386000Y406000D02*
D03*
D84*
X744138Y489197D02*
D03*
X732045Y477104D02*
D03*
X1368300Y488200D02*
D03*
X1368535Y461800D02*
D03*
X920700Y455100D02*
D03*
X904100Y377350D02*
D03*
X1339000Y435400D02*
D03*
X966100Y499600D02*
D03*
X954600Y508800D02*
D03*
X750600Y514700D02*
D03*
X753444Y504750D02*
D03*
X725400Y464800D02*
D03*
X779365Y504300D02*
D03*
X886050Y444050D02*
D03*
X876500Y461600D02*
D03*
X886278Y461999D02*
D03*
X796445Y392001D02*
D03*
X796300Y401700D02*
D03*
X858550Y387350D02*
D03*
X746444Y415750D02*
D03*
X770100Y391900D02*
D03*
X747050Y456200D02*
D03*
X706000Y474200D02*
D03*
Y433300D02*
D03*
X1306700Y406400D02*
D03*
X1351700Y418200D02*
D03*
X796000Y412500D02*
D03*
X766700Y422103D02*
D03*
X1106300Y490500D02*
D03*
X974100Y442200D02*
D03*
X957384Y468384D02*
D03*
X983100Y499800D02*
D03*
X1013800Y500700D02*
D03*
X1080375Y480800D02*
D03*
X1116700Y477400D02*
D03*
X1090400Y463100D02*
D03*
X866000Y462000D02*
D03*
X883700Y471350D02*
D03*
X1306435Y423500D02*
D03*
X1247900Y385250D02*
D03*
X1238800Y392200D02*
D03*
X1284102Y434373D02*
D03*
X917496Y382098D02*
D03*
X1038100Y479200D02*
D03*
X876350Y424700D02*
D03*
X890250Y428053D02*
D03*
X1150304Y473100D02*
D03*
X773800Y473400D02*
D03*
X957384Y404902D02*
D03*
X815700Y484513D02*
D03*
X1285100Y449200D02*
D03*
X1273770Y462984D02*
D03*
X895667Y405200D02*
D03*
X1204120Y454660D02*
D03*
X913400Y418300D02*
D03*
X1197890Y410330D02*
D03*
X912667Y405200D02*
D03*
X783053Y444852D02*
D03*
X789048Y497050D02*
D03*
X957384Y423698D02*
D03*
X1239600Y420800D02*
D03*
X1204120Y416560D02*
D03*
X1090500Y411700D02*
D03*
D85*
X1351300Y486540D02*
D03*
Y461140D02*
D03*
D86*
Y511940D02*
D03*
D87*
Y435740D02*
D03*
Y410340D02*
D03*
Y384940D02*
D03*
D88*
X1004000Y427100D02*
D03*
Y480300D02*
D03*
D89*
X746000Y474200D02*
D03*
Y456200D02*
D03*
X706000D02*
D03*
Y474200D02*
D03*
X746000Y433300D02*
D03*
Y415300D02*
D03*
X706000D02*
D03*
Y433300D02*
D03*
D90*
X863250Y498988D02*
D03*
X850750D02*
D03*
X838250D02*
D03*
X825750D02*
D03*
M02*
