M48
;Layer_Color=9474304
;FILE_FORMAT=4:4
METRIC,LZ
;TYPE=PLATED
T1F00S00C0.3000
T2F00S00C0.5000
T3F00S00C0.6000
T4F00S00C2.1000
%
T01
X007Y00378
X00742
X00756
X0077
X007701Y003919
X00749Y00392
X00735
X00796445Y00392001
X00819Y00392
X00812Y00378
X00826
X0085855Y0038735
X009041Y0037735
X00917496Y00382098
X012388Y003922
X012479Y0038525
X01267Y00392
X01302Y00378
X014
X01407Y00392
X014Y00406
X01386
X01393Y0042
X01407
X014Y00434
X01386
X01393Y00448
X01379
X01386Y00462
X014
X01407Y00448
Y00476
X01393
X01379
X013683Y004882
X01368535Y004618
X01379Y0042
X013517Y004182
X01339Y004354
X01323Y00448
Y0042
X01306435Y004235
X013067Y004064
X01284102Y00434373
X012851Y004492
X0127377Y00462984
X01295Y00504
X01407
X014Y0049
X012396Y004208
X0120412Y0041656
X0119789Y0041033
X0120412Y0045466
X0118687Y0045061
Y0043561
Y0042061
X0117187
Y0043561
Y0045061
X01176Y00462
X01150304Y004731
X011167Y004774
X011063Y004905
X01080375Y004808
X010601Y004868
Y004978
X010381Y004792
X010138Y005007
X009831Y004998
X009661Y004996
X009546Y005088
X00957384Y00468384
X009741Y004422
X00987Y00448
X01001
X01015
X00957384Y00423698
Y00404902
X00912667Y004052
X009134Y004183
X00895667Y004052
X0089025Y00428053
X0087635Y004247
X0088605Y0044405
X00886278Y00461999
X008765Y004616
X00866Y00462
X008837Y0047135
X009207Y004551
X008157Y00484513
X00796Y004125
X007963Y004017
X01078Y00406
X010905Y004117
X010904Y004631
X01092Y00518
X00789048Y0049705
X00779365Y005043
X00753444Y0050475
X007506Y005147
X00728Y00518
X00744138Y00489197
X00732045Y00477104
X007254Y004648
X00706Y004742
X007Y0049
X00706Y004333
X00746444Y0041575
X007667Y00422103
X00783053Y00444852
X007738Y004734
X0074705Y004562
T02
X008274Y00441802
X010642Y004422
X010779
X0109143Y0044217
X0106011Y0041767
X011228Y004169
X011359Y004168
X011352Y00471
X011791Y004402
T03
X0082575Y00498988
X0083825
X0085075
X0086325
T04
X007164Y00386605
X013863Y00386498
Y005033
X007164Y00503202
M30
